<?xml version="1.0" encoding="UTF-8" standalone="no"?>
<!-- Created with Inkscape (http://www.inkscape.org/) -->

<svg
   viewBox="0 0 108.77579 26.08213"
   version="1.1"
   id="svg1"
   xml:space="preserve"
   xmlns:inkscape="http://www.inkscape.org/namespaces/inkscape"
   xmlns:sodipodi="http://sodipodi.sourceforge.net/DTD/sodipodi-0.dtd"
   xmlns:xlink="http://www.w3.org/1999/xlink"
   xmlns="http://www.w3.org/2000/svg"
   xmlns:svg="http://www.w3.org/2000/svg"><sodipodi:namedview
     id="namedview1"
     pagecolor="#505050"
     bordercolor="#eeeeee"
     borderopacity="1"
     inkscape:showpageshadow="0"
     inkscape:pageopacity="0"
     inkscape:pagecheckerboard="0"
     inkscape:deskcolor="#505050"
     inkscape:document-units="mm"
     showguides="true"><inkscape:page
       x="0"
       y="0"
       width="108.77579"
       height="26.08213"
       id="page550"
       margin="0"
       bleed="0" /></sodipodi:namedview><defs
     id="defs1"></defs><g
     inkscape:label="Agregador de Links"
     inkscape:groupmode="layer"
     id="layer1"
     inkscape:highlight-color="#002400"
     transform="translate(-379.37417,105.034)"><path
       style="baseline-shift:baseline;display:inline;overflow:visible;opacity:1;vector-effect:none;fill:#00cc00;paint-order:stroke fill markers;enable-background:accumulate;stop-color:#000000;stop-opacity:1"
       d="m 363.4193,-161.29687 c -8.68737,0 -15.6914,7.00403 -15.6914,15.6914 V -4.921875 c 0,8.6873721 7.00403,15.693359 15.6914,15.693359 h 140.6836 c 8.68737,0 15.69335,-7.0059869 15.69335,-15.693359 V -145.60547 c 0,-8.68737 -7.00598,-15.6914 -15.69335,-15.6914 z m 0,0.69921 h 140.6836 c 8.31168,0 14.99218,6.68051 14.99218,14.99219 V -4.921875 c 0,8.3116802 -6.6805,14.992188 -14.99218,14.992188 H 363.4193 c -8.31168,0 -14.99219,-6.6805078 -14.99219,-14.992188 V -145.60547 c 0,-8.31168 6.68051,-14.99219 14.99219,-14.99219 z"
       id="rect2"
       inkscape:highlight-color="#00cc00"
       inkscape:label="contorno" /><g
       id="g844"
       transform="translate(0,-8.8894737)"
       inkscape:highlight-color="#00cc00"><path
         id="text823-0-4"
         style="font-weight:bold;font-size:5.99722px;font-family:'LEMON MILK';-inkscape-font-specification:'LEMON MILK Bold';text-align:center;text-anchor:middle;fill:#00cc00;stroke-width:0.399999;stroke-linecap:round;paint-order:stroke fill markers"
         d="m 415.01774,-28.760518 c -7.33255,0 -13.24622,5.823535 -13.24622,13.042098 0,7.2185607 5.91367,13.0400305 13.24622,13.0400305 h 37.48866 c 7.33255,0 13.24622,-5.8214698 13.24622,-13.0400305 0,-7.218563 -5.91367,-13.042098 -13.24622,-13.042098 z m 0,0.682645 h 37.48866 c 6.96092,0 12.55479,5.506748 12.55479,12.359453 0,6.852703 -5.59387,12.3573848 -12.55479,12.3573848 h -37.48866 c -6.96092,0 -12.55479,-5.5046818 -12.55479,-12.3573848 0,-6.852705 5.59387,-12.359453 12.55479,-12.359453 z m -0.20723,1.670699 c -5.898,0 -10.68565,4.789718 -10.68565,10.68772 0,5.8980032 4.78765,10.6877198 10.68565,10.6877198 5.898,0 10.68721,-4.7897166 10.68721,-10.6877198 0,-5.898002 -4.78921,-10.68772 -10.68721,-10.68772 z m 0,0.70125 c 5.5197,0 9.98802,4.466776 9.98802,9.98647 0,5.519695 -4.46832,9.9864706 -9.98802,9.9864706 -5.51969,0 -9.98647,-4.4667756 -9.98647,-9.9864706 0,-5.519694 4.46678,-9.98647 9.98647,-9.98647 z m 0.56018,2.808097 c -0.0259,9.3e-4 -0.0541,0.0084 -0.0832,0.02325 -0.71966,0.367823 -3.10788,1.589393 -4.39302,2.255677 -0.47772,0.296063 -0.58167,0.621651 -0.62476,0.861962 l 0.003,9.870199 c 0.0284,0.5143501 0.83893,0.7239478 1.20716,0.7446574 0.42993,0.024165 2.78161,-0.5300057 7.68738,-1.3404864 0.10241,-0.01717 0.18552,-0.115662 0.18552,-0.220659 v -9.274369 c 0,-0.190688 -0.15165,-0.318567 -0.33848,-0.286287 -1.09756,0.189707 -4.6084,0.797432 -6.69313,1.170471 -0.18656,0.03339 -0.48985,0.09301 -0.6811,0.0894 -0.95208,-0.01761 -1.3208,-0.901766 -0.0889,-1.416451 1.34681,-0.510115 4.00544,-1.614372 4.00544,-1.614372 l -0.0439,-0.711067 c -0.006,-0.09774 -0.0643,-0.15472 -0.14211,-0.151929 z m 1.45159,0.933793 c -0.007,6.97e-4 -0.0139,0.0028 -0.0212,0.0067 -0.64068,0.238617 -4.03725,1.505724 -5.80326,2.210718 l 5.93452,-1.765267 -0.0196,-0.370003 c -0.002,-0.04755 -0.0315,-0.07828 -0.0703,-0.08165 v 5.17e-4 c -0.006,-0.0011 -0.0132,-0.0017 -0.0202,-0.001 z m 1.35754,0.655257 c -0.012,0 -0.0393,0.0052 -0.0393,0.0052 -0.77434,0.212334 -4.8027,1.319065 -6.87606,1.924947 0.14137,0.03538 0.36282,0.06365 0.60978,0.01809 l 6.42855,-1.312065 -0.0253,-0.5302 c -0.003,-0.06142 -0.0438,-0.103173 -0.0977,-0.105937 z m 26.8025,2.479952 -0.50333,0.986503 h 0.78755 l 0.69659,-0.986503 z m -29.28452,0.315743 -0.002,0.05736 -0.0899,0.0031 0.003,0.03256 0.0734,-0.0026 0.003,0.05116 -0.0739,0.0031 0.002,0.03307 0.0899,-0.0036 0.002,0.05788 -0.15038,0.0057 -0.004,-0.232027 z m 0.14831,0.0124 h 5.2e-4 5.1e-4 l 5.2e-4,0.001 c 10e-4,0 0.003,3.99e-4 0.004,5.17e-4 0.001,2.78e-4 0.003,9.52e-4 0.004,0.0021 0.0348,0.0058 0.0588,0.02657 0.0636,0.05064 l -0.0413,0.02791 c -0.004,-0.01315 -0.0205,-0.02143 -0.0315,-0.02325 -0.0125,-0.0022 -0.0229,0.003 -0.0243,0.01085 -1.4e-4,6.54e-4 0,0.002 0,0.0026 1e-4,9.19e-4 6.5e-4,0.0027 10e-4,0.0036 0.004,0.0072 0.0175,0.0135 0.0351,0.02481 0.0328,0.02095 0.0524,0.04677 0.046,0.08061 -0.008,0.0436 -0.0535,0.06453 -0.0992,0.05684 -0.0375,-0.0062 -0.0688,-0.02857 -0.0755,-0.05581 l 0.0434,-0.02997 c 0.007,0.01561 0.0233,0.02685 0.0424,0.02997 0.0109,0.0021 0.0226,5.2e-5 0.0269,-0.0062 v -5.17e-4 c 2.3e-4,-5.16e-4 8.8e-4,-0.002 10e-4,-0.0026 0.002,-0.01181 -0.0193,-0.02608 -0.0398,-0.03979 -0.0265,-0.01739 -0.0478,-0.04038 -0.0413,-0.07493 0.006,-0.03469 0.0402,-0.05675 0.0775,-0.05633 h 5.2e-4 5.1e-4 c 0.002,-3.05e-4 0.004,-0.0015 0.006,-0.0021 z m -0.44855,0.02481 c 0.037,-2.2e-5 0.0669,0.02207 0.0749,0.05478 0.007,0.028 -0.005,0.05591 -0.0243,0.07183 l 0.0827,0.0739 -0.0698,0.0186 -0.0842,-0.08165 0.0238,0.09767 -0.06,0.01602 -0.0553,-0.224276 0.0858,-0.02274 c 0.009,-0.0022 0.0178,-0.0032 0.0264,-0.0041 z m 0.63303,0.0248 5.2e-4,5.17e-4 h 5.2e-4 5.1e-4 l 5.2e-4,5.16e-4 5.2e-4,5.17e-4 5.1e-4,5.17e-4 h 5.2e-4 v 5.17e-4 h 5.2e-4 5.2e-4 c 10e-4,1.77e-4 0.004,7.75e-4 0.0119,0.0036 0.0107,0.0036 0.0282,0.0092 0.0506,0.01809 0.009,0.0036 0.0199,0.0083 0.032,0.01344 0.0617,0.02735 0.13914,0.06928 0.21859,0.130224 0.0637,0.04884 0.12939,0.109474 0.19069,0.187586 0.0163,0.02095 0.0348,0.04582 0.0537,0.07493 0.0423,0.06498 0.0806,0.139222 0.11214,0.223242 0.0313,0.08346 0.048,0.156676 0.0574,0.203088 -0.0109,-0.04601 -0.0308,-0.118171 -0.0656,-0.199471 -0.0351,-0.08192 -0.0766,-0.153024 -0.12092,-0.214974 -0.0198,-0.02773 -0.0391,-0.05143 -0.0558,-0.07131 -0.0617,-0.07325 -0.12754,-0.1336 -0.18914,-0.179834 -0.0784,-0.05885 -0.15305,-0.09957 -0.21342,-0.126608 -0.0116,-0.0051 -0.0221,-0.0094 -0.031,-0.01292 -0.0218,-0.0087 -0.0383,-0.01445 -0.0486,-0.01757 -0.006,-0.0023 -0.0102,-0.0033 -0.0114,-0.0036 -0.003,-8.36e-4 -0.006,-0.0032 -0.008,-0.0052 -0.006,-0.0086 -0.001,-0.02365 0.0119,-0.02377 z m -0.64388,0.03152 c -6e-4,1.4e-4 -0.002,0.0012 -0.003,0.0016 -2.8e-4,2.13e-4 -7.5e-4,2.38e-4 -0.001,5.17e-4 l -0.0243,0.0067 0.0109,0.04496 0.0243,-0.0067 c 0.0127,-0.0031 0.0222,-0.01503 0.0186,-0.02894 -0.003,-0.01115 -0.0125,-0.01772 -0.0227,-0.01705 l 5.1e-4,-10e-4 c -9.2e-4,0 -0.003,-1.17e-4 -0.004,0 z m -0.23565,0.03979 c 0.003,-3.48e-4 0.007,1.57e-4 0.0103,0.0016 0.0383,0.0033 0.0735,0.02381 0.094,0.05994 0.0338,0.05961 0.0107,0.132784 -0.0522,0.169499 -0.0629,0.03669 -0.13671,0.01977 -0.17053,-0.03979 -0.0341,-0.06008 -0.0116,-0.133861 0.0512,-0.170532 0.0196,-0.01159 0.0407,-0.01734 0.061,-0.01912 0.002,-8.36e-4 0.004,-0.0013 0.006,-0.0016 z m -0.008,0.0615 c -0.0105,0.0022 -0.0209,0.0038 -0.031,0.0098 -0.0321,0.01872 -0.0434,0.05695 -0.0258,0.08785 0.0174,0.03074 0.0557,0.03993 0.0879,0.02119 0.0322,-0.01872 0.0433,-0.05655 0.0258,-0.08733 -0.0105,-0.01873 -0.0284,-0.03023 -0.0481,-0.03152 z m -0.22893,0.128675 c 6.8e-4,-1.05e-4 0.002,-1.8e-5 0.003,0 h 5.1e-4 c 2.3e-4,4.9e-5 10e-4,4.4e-4 0.002,5.16e-4 l 5.2e-4,5.17e-4 h 5.2e-4 c 0.0258,0.0022 0.0508,0.01228 0.0734,0.03411 0.0512,0.04956 0.0484,0.114769 -0.007,0.172082 l -0.0532,0.05478 -0.16485,-0.15968 0.0532,-0.05478 c 0.0276,-0.02878 0.0577,-0.04446 0.0873,-0.04651 0.002,0 0.004,-7.55e-4 0.006,-10e-4 z m -3.46594,0.01757 c 0.0105,-4.63e-4 0.0213,-8.8e-5 0.032,5.16e-4 0.17215,0.0096 0.31058,0.155301 0.31058,0.326595 v 7.573698 c 0,0.17125 -0.13843,0.301647 -0.31058,0.2919722 -0.17214,-0.00959 -0.31057,-0.1553452 -0.31057,-0.3265952 v -7.574215 c 0,-0.160567 0.12147,-0.285026 0.27853,-0.291971 z m 3.45767,0.04496 c -0.0151,7.43e-4 -0.0305,0.01056 -0.045,0.02532 l -0.01,0.01034 0.0827,0.0801 0.0103,-0.01034 c 0.029,-0.02992 0.0312,-0.06308 0.006,-0.08785 -0.0111,-0.01115 -0.0239,-0.01638 -0.0372,-0.01705 h -5.1e-4 c -0.002,-2.79e-4 -0.004,-6.23e-4 -0.006,-5.17e-4 z m 1.28055,0.148828 0.0196,0.02842 0.0243,-0.0067 -0.005,0.03669 0.0341,-0.01912 -0.0212,0.04237 0.0506,0.02325 v -0.02429 h 0.005 l 0.01,0.01189 0.004,-0.03101 0.0109,0.0186 0.01,-0.01809 h 0.005 l 0.01,0.03617 0.0196,-0.0067 v 0.01809 l 0.0289,-0.0186 -0.005,0.02429 0.0341,-0.01292 0.005,-0.02429 h 0.005 l 0.01,0.02377 h 0.005 l 0.01,-0.02429 h 0.005 v 0.03617 l 0.01,0.0057 0.0145,0.0062 h 0.005 l 0.0145,-0.0124 -0.01,0.02429 0.0295,-0.0072 v 0.0062 l -0.015,0.0062 0.01,0.01189 v 0.0062 l -0.01,0.0186 -0.0191,0.0062 v 0.0062 l 0.0388,-0.0067 -0.01,0.01809 0.0341,-0.0124 0.0196,0.01189 v 0.0057 l -0.0196,0.0067 v 0.0062 l 0.0145,0.01189 -0.0145,0.0062 v 0.0062 c 3.2e-4,7.7e-5 0.001,4.21e-4 0.002,5.17e-4 2.7e-4,1.15e-4 10e-4,9e-4 0.002,10e-4 4.5e-4,3.02e-4 0.002,0.0012 0.002,0.0016 l 5.1e-4,5.17e-4 v 5.16e-4 c 1.2e-4,2.33e-4 4.2e-4,0.0013 5.2e-4,0.0016 0.004,0.01386 -0.0168,0.04723 -0.0253,0.06098 l 0.0243,-0.0062 -0.0145,0.04858 0.0486,-0.01344 0.0145,0.0057 0.0196,-0.03049 0.005,0.01809 0.0196,-0.0124 0.005,0.01809 0.0191,-0.0124 0.0145,0.01188 -0.01,0.03617 0.0145,-0.0186 v 0.06046 h 0.0196 v 0.0062 l -0.0295,0.0186 v 0.01189 l 0.0243,-0.0067 0.0248,0.0057 0.0145,0.04186 -0.0243,0.0067 v 0.0057 l 0.0434,0.0052 -0.01,0.02481 h 0.0196 l -0.005,0.02429 -0.005,0.02997 -0.0341,-0.0052 v 0.02429 l -0.0538,0.02532 0.0295,-0.0072 -0.0145,0.0186 0.0191,0.02377 v 0.0062 l -0.0434,0.07906 -0.0196,0.02481 0.0196,-0.0067 -0.0196,0.03049 0.0145,-0.0062 0.0486,0.01085 -0.01,0.02481 0.0295,-0.01912 0.005,0.04237 0.005,0.01757 c 0,0 0.0159,-0.05552 0.0336,-0.09043 -0.0516,-0.02373 -0.0439,-0.05427 -0.048,-0.06459 l -5.2e-4,-5.17e-4 c -1.2e-4,-1.86e-4 -9e-4,-8.68e-4 -10e-4,-10e-4 v -5.16e-4 l -5.2e-4,-5.17e-4 c -1.9e-4,-1.03e-4 -0.001,-4.36e-4 -0.002,-5.17e-4 h -5.2e-4 c -0.002,-3.16e-4 -0.006,2.9e-4 -0.0103,0.0021 l 0.0212,-0.03204 0.0289,-0.01344 -0.016,0.02635 0.0238,-0.0062 -0.005,0.02429 h 5.2e-4 l 5.2e-4,-5.17e-4 h 5.1e-4 c 2.3e-4,-1.23e-4 10e-4,-8.7e-4 0.002,-0.001 l 5.2e-4,-5.16e-4 c 0.0123,-0.01435 0.0118,-0.09542 0.0145,-0.09974 h 5.2e-4 l 5.1e-4,5.17e-4 c 2.1e-4,2.4e-4 7.6e-4,0.0011 10e-4,0.0016 v 5.17e-4 l 5.1e-4,5.17e-4 v 5.16e-4 5.17e-4 l 0.009,0.02067 c -0.004,0.08371 -0.0164,0.16721 -0.0424,0.258899 -0.0366,0.129607 -0.0789,0.200357 -0.10387,0.250114 l -0.005,0.0021 c -0.005,7.52e-4 -0.008,0.003 -0.0103,0.0052 -2.1e-4,2.6e-4 -10e-4,0.0013 -0.002,0.0016 -0.003,0.0059 -0.002,0.01549 -0.003,0.02739 l -0.0181,0.01292 -0.01,-0.02997 -0.0114,0.02997 -0.0129,0.0067 h -0.005 l -0.005,-0.02997 -0.01,0.0186 h -0.005 v -0.02429 l -0.0191,0.0186 -0.0196,-0.0057 v -0.0124 l -0.0145,0.0062 c -0.0286,-0.06402 -0.0968,0.04252 -0.14108,0.0093 h -0.005 c -0.0269,0.03716 -0.0618,0.05113 -0.0801,0.104386 -0.0269,0.07802 -0.0269,0.148822 -0.0238,0.190687 0.003,0.04186 0.0382,0.0677 0.0382,0.0677 0,0 -0.0704,0.05398 -0.18914,0.10697 -0.0773,0.03444 -0.17513,0.06887 -0.28628,0.08682 0.0666,-0.01984 0.16088,-0.03859 0.19998,-0.131258 0.0391,-0.09269 0.0163,-0.343883 -0.0822,-0.422196 l -0.005,0.01809 -0.0145,-0.02377 -0.01,0.0021 -0.0295,0.02481 0.005,0.04237 -0.015,-0.01809 h -0.005 l -0.0196,0.02481 v -0.02429 h -0.005 l -0.0295,0.04289 0.005,-0.03617 c -0.007,0.0048 -0.0207,0.01681 -0.0284,0.0155 h -5.2e-4 l -5.2e-4,-5.17e-4 h -5.1e-4 l -5.2e-4,-5.17e-4 -5.2e-4,-5.17e-4 -5.1e-4,-5.16e-4 c -10e-4,-0.0014 -0.002,-0.0034 -0.003,-0.0067 l -0.0341,0.0186 0.01,-0.03617 -0.0243,0.0067 0.005,-0.02429 -0.0145,0.0062 0.005,-0.0124 -0.0243,0.0186 0.01,-0.03049 -0.0341,0.03721 -0.0584,0.01344 0.01,-0.0186 -0.0145,0.0067 -0.015,-0.02997 -0.0243,0.02481 -0.0145,-0.04237 -0.0191,0.01292 c -0.005,-0.0478 -0.079,0.01324 -0.0971,0.02015 l -0.005,-0.02997 0.0145,-0.0248 -0.01,-0.01137 -0.0486,0.03101 0.01,-0.04237 -0.0145,0.0062 0.005,-0.01809 -0.01,0.0021 0.005,-0.01809 -0.0439,-0.01757 0.005,-0.02429 -0.0196,0.01292 -0.0341,0.0021 v -0.03617 l -0.01,0.0062 v -0.02429 l -0.0331,0.0062 -0.006,-0.03566 -0.0289,0.0026 v -0.0124 l 0.0336,-0.02481 v -0.01809 -0.0047 -5.16e-4 -5.17e-4 -5.17e-4 -5.17e-4 c -1.3e-4,-0.0035 0.003,-0.0077 0.004,-0.01034 v -5.17e-4 -5.16e-4 -5.17e-4 -5.17e-4 l 0.006,-0.01085 -0.0145,-0.03617 0.01,-0.01809 -0.0196,-0.01757 0.0439,-0.01912 -0.005,-0.01809 0.0486,-0.03101 -0.0434,0.01292 -0.015,-0.01189 -0.0336,-0.05374 v -0.0062 l 0.0486,-0.01292 -0.0145,-0.02997 h 0.0191 l -0.01,-0.05994 0.0341,-0.04289 0.0439,-0.0026 0.01,-0.07855 0.0388,-0.01292 -0.01,0.03669 0.0439,0.01085 0.01,-0.01809 v -0.0062 c -0.002,-2.71e-4 -0.004,-0.0013 -0.006,-0.0021 l -5.2e-4,-5.16e-4 h -5.2e-4 l -5.1e-4,-5.17e-4 v -5.17e-4 l -5.2e-4,-5.17e-4 -5.2e-4,-5.16e-4 c -0.004,-0.0098 0.012,-0.03172 0.0181,-0.04392 l -0.0393,-0.01137 c 0.005,-0.02365 0.0148,-0.03317 0.0341,-0.03721 l -0.0145,-0.04186 0.0486,0.01085 v -0.02997 l 0.0341,0.01137 0.005,-0.03669 0.0191,0.0057 -0.005,-0.03617 0.0439,0.02946 0.005,-0.0186 0.0537,0.02894 v -0.0062 l -0.0341,-0.03514 0.0145,0.0057 v -0.0062 l -0.0196,-0.01189 0.015,-0.0124 0.005,-0.02997 -0.005,-0.02997 0.0289,0.01137 0.0145,0.01757 0.005,-0.02429 0.0196,0.01189 0.0191,-0.04289 0.0584,0.0052 0.005,0.02997 0.0243,0.0052 c 0.008,-0.02555 0.0229,-0.02866 0.0434,-0.02481 l 0.005,-0.01809 0.0729,0.02842 -0.01,-0.02377 0.005,-0.04857 0.0341,0.02945 -0.01,-0.02377 0.0145,0.0057 0.0243,-0.03669 0.0196,0.05374 0.0388,-0.04909 0.01,-0.0021 0.005,0.02377 0.01,-0.0021 v -0.03617 l 0.01,-0.02429 0.0196,0.0057 -0.005,-0.01809 h 0.0243 l -0.005,-0.02429 0.0145,0.01189 0.0243,-0.0186 0.0196,-0.0067 0.01,-0.01189 0.0191,0.01137 z m -1.52704,0.05064 0.25735,0.01654 -0.0331,0.05943 -0.0294,-0.0031 -0.0424,0.07648 0.0181,0.02325 -0.0336,0.05943 -0.15141,-0.206189 z m 1.52239,0.03979 c -0.0244,0.02345 -0.0375,0.02885 -0.0682,0.02584 l 0.01,0.04806 0.0289,-0.0067 0.0243,0.03566 0.0196,-0.03049 v -0.02429 l 0.0145,0.0062 v -0.04237 z m -1.43609,0.02429 0.0367,0.04703 0.0233,-0.04237 z m 1.55753,0.03359 -0.005,0.03204 -0.0196,0.02429 c -0.0297,-0.01404 -0.0648,-1.51e-4 -0.0775,0.03772 l 0.0388,0.01137 0.0191,-0.0067 -0.009,0.0248 c 0.021,0 0.0432,-0.01364 0.0388,0.02326 l 0.0191,0.01757 -0.0289,-0.0057 0.0341,0.02997 -0.0537,0.01912 -0.005,0.01809 0.0486,-0.0021 v 0.02377 h -0.0243 v 0.03049 h -0.0243 l -0.0243,0.0248 0.005,-0.0186 h -0.0196 l 0.0145,-0.01809 v -0.0062 l -0.0191,-0.0057 0.0243,-0.0186 -0.0145,-0.02997 0.0145,-0.0124 -0.0145,-0.0062 0.01,-0.04237 h -0.005 l -0.005,0.02429 h -0.005 -0.0191 v -0.04806 l -0.0879,0.03204 v -0.0062 h -0.005 c -10e-4,-0.0063 -0.003,-0.01019 -0.005,-0.01189 v -5.17e-4 h -5.2e-4 -5.1e-4 l -5.2e-4,-5.16e-4 h -5.2e-4 -5.1e-4 -5.2e-4 c -5.4e-4,1.1e-4 -0.002,7.46e-4 -0.003,10e-4 -0.005,0.0029 -0.009,0.01084 -0.0134,0.01809 h -0.005 l -0.0145,-0.01137 0.01,-0.04858 -0.0289,-0.01137 0.0341,-0.04289 -0.0734,-0.0041 -0.0191,0.03669 h -0.005 l -0.0196,-0.01189 -0.005,0.01809 h -0.0191 l -0.0145,-0.01757 v 0.02377 l -0.0393,-0.0052 c -0.01,-0.02162 -0.0199,-0.02136 -0.0388,-0.01757 l 0.015,0.02377 0.005,0.03049 0.0145,-0.0124 v 0.01188 l 0.0145,-0.0124 -0.0145,0.03669 h 0.0196 l -0.005,0.01809 0.0196,0.0057 -0.0145,0.02429 -0.0196,0.0186 0.0636,0.01085 0.01,0.01137 -0.015,0.0248 0.015,0.01189 -0.0243,0.0062 0.009,0.03617 0.0393,-0.0021 0.005,-0.0186 h 0.005 l 0.01,0.02429 0.0145,-0.02481 h 0.005 l 0.005,0.02997 0.0486,-0.04289 c 9e-4,0.0052 0.002,0.0092 0.004,0.01137 l 5.2e-4,5.17e-4 5.2e-4,5.16e-4 5.2e-4,5.17e-4 h 5.1e-4 l 5.2e-4,5.17e-4 h 5.2e-4 5.1e-4 l 5.2e-4,5.17e-4 h 5.2e-4 c 0.003,1.24e-4 0.006,-0.0012 0.0114,-0.0026 l -0.01,0.02481 0.0191,-0.0067 -0.01,0.03669 0.0196,-0.0067 -0.005,0.01809 0.0248,-0.0186 v 0.04237 c 0.0207,-0.02689 0.0399,-0.05627 0.0677,-0.02584 l 0.0196,-0.0124 c 9e-4,0.0051 0.003,0.0095 0.005,0.01189 2.4e-4,2.66e-4 10e-4,0.0013 0.002,0.0016 2.7e-4,1.96e-4 10e-4,8.71e-4 0.002,0.001 0.015,0.0066 0.0447,-0.02844 0.0599,-0.03359 l -0.0145,-0.02429 c 0.0192,-0.006 0.0294,-0.0053 0.0439,0.01137 l 0.0196,-0.0067 v -0.03617 c 0.023,-0.0058 0.0459,-0.01358 0.0532,-0.04341 l 0.0145,0.0062 v -0.02481 l 0.0243,-0.0186 0.0202,0.0062 0.0336,-0.03101 -0.005,-0.01809 0.0196,-0.0062 v -0.01189 c -0.0149,-0.0071 -0.008,-0.02707 -0.009,-0.03307 v -5.17e-4 h -5.2e-4 c -5.6e-4,-1.6e-5 -0.002,-4.5e-5 -0.002,0 -2.6e-4,5.6e-5 -10e-4,4.18e-4 -0.002,5.17e-4 -9.4e-4,4.66e-4 -0.002,0.0014 -0.004,0.0026 l -0.0429,-0.0186 -0.003,-0.02171 -0.0212,0.0186 -0.008,-0.04186 -0.0388,0.01292 -0.005,-0.02429 -0.0341,0.0072 z m -0.20568,0.04031 v 0.02894 l -0.0284,0.0026 0.0248,0.01344 -0.0124,0.02584 0.0243,-0.01499 0.016,0.02377 v -0.02894 l 0.0289,-0.0026 -0.0248,-0.01344 0.0124,-0.02636 -0.0248,0.01499 z m -0.29145,0.02584 -0.009,0.02739 -0.0274,-0.0057 0.0191,0.02067 -0.0191,0.02119 0.0274,-0.0072 0.009,0.02739 0.008,-0.02739 0.0279,0.0057 -0.0191,-0.02067 0.0191,-0.02119 -0.0279,0.0072 z m -1.23403,0.02636 0.0553,0.01447 -0.0243,0.08682 0.031,0.0083 0.0202,-0.07183 0.0491,0.01292 -0.0196,0.07183 0.032,0.0083 0.0243,-0.08682 0.0553,0.01447 -0.0403,0.145727 -0.22376,-0.05788 z m 1.13843,0.02791 -5.2e-4,0.001 -0.005,0.02015 c -0.0167,0 -0.0241,0.0047 -0.0295,0.02481 h -0.0243 c 0.003,0.03214 0.0139,0.04516 0.0387,0.05374 v 0.0062 c -0.0296,0.0042 -0.0741,-0.04551 -0.0925,-0.01033 l -0.0145,-0.0057 -0.0775,0.0925 0.01,0.01757 c -0.0274,0.0098 -0.0524,0.0064 -0.0388,0.04909 l 0.0191,-0.0062 0.005,0.04186 h 0.005 l 0.005,-0.01809 c 0.0169,0.0036 0.0289,0.0037 0.0341,-0.0186 h 0.0196 v 0.02377 l 0.0145,-0.0124 -0.01,0.05478 -0.0294,0.0021 -0.005,-0.01809 -0.0243,0.0067 -0.005,0.03617 -0.0336,-0.03514 -0.0196,0.03049 -0.0191,-0.0057 0.005,0.02997 c -0.007,0.0011 -0.0124,0.0023 -0.0155,0.0047 l -5.1e-4,5.17e-4 -5.2e-4,5.17e-4 -5.2e-4,5.16e-4 c -0.002,0.0025 -0.003,0.0063 -0.003,0.0124 l -0.0336,-0.01137 0.005,0.01809 -0.0584,0.02532 v 0.0062 l 0.015,0.0062 -0.015,0.03669 0.01,-0.0026 -0.0145,0.02481 v 0.0057 c 0.034,0.02858 0.0865,-0.02447 0.12144,-0.04444 l 0.005,0.02377 0.0243,-0.0062 0.0145,0.01189 c 0.001,0.0064 0.004,0.01069 0.006,0.01292 5e-4,4.08e-4 0.002,0.0013 0.003,0.0015 5.7e-4,1.71e-4 0.002,-2.9e-5 0.003,0 0.005,-2.9e-4 0.0117,-0.0044 0.0186,-0.0093 l 0.005,0.04806 c -0.0223,0.0027 -0.037,0.0253 -0.01,0.03669 v 0.0057 l -0.0341,0.01292 0.01,0.02997 -0.0388,-0.05323 -0.005,0.01809 -0.0243,-0.01137 -0.01,-0.02997 v -0.0062 l 0.01,-0.03049 -0.0388,-0.0052 c -0.0203,0.03108 -0.072,0.03388 -0.0636,0.07958 -0.0232,0.02051 -0.003,0.106062 -0.005,0.13901 h 0.0145 v 0.02997 l -0.0243,0.01292 c 0.0118,0.0268 0.0388,0.03867 0.0584,0.01654 l 0.0295,0.0057 -0.005,0.02429 c 0.0286,0.01048 0.0365,0.02639 0.0486,0.05891 l 0.0439,-0.01912 -0.005,0.02429 0.0439,-0.0021 v 0.01188 l 0.0289,-0.0067 0.0248,0.04754 0.0729,-0.04961 0.0243,0.04186 0.0191,-0.0067 -0.005,-0.01809 0.0145,0.02377 0.0145,-0.04237 -0.0145,-0.01189 0.0827,0.03462 V -16.846 c 0.0227,0.0047 0.0338,-0.0022 0.0388,-0.03101 l 0.0295,0.01137 -0.005,-0.03617 0.0341,-0.0021 v -0.06666 l -0.0346,-0.0031 -0.0238,-0.02584 c 0.004,-10e-4 0.007,-0.0023 0.008,-0.0031 h 5.2e-4 v -5.17e-4 h 5.1e-4 v -5.16e-4 l 5.2e-4,-5.17e-4 v -5.17e-4 -5.17e-4 -5.16e-4 c -6e-5,-0.002 -9.8e-4,-0.0051 -0.002,-0.01034 l 0.0264,0.0093 v -0.02997 l 0.0294,0.01137 v -0.02429 l -0.0491,0.0072 c 0.006,-0.01917 0.0101,-0.0304 -0.005,-0.04237 l 0.005,-0.02997 -0.0434,-0.0052 v -0.0062 l 0.0243,-0.0124 0.0486,-0.05529 c -0.0196,-0.02229 -0.0377,0.0025 -0.0584,0.01344 l -0.0243,-0.01137 0.005,-0.03049 0.015,-0.0062 -0.0439,-0.03514 -0.005,0.01809 -0.0486,-0.02894 c -5.3e-4,0.005 -0.002,0.0081 -0.003,0.0098 l -5.1e-4,5.17e-4 -5.2e-4,5.16e-4 h -5.2e-4 l -5.2e-4,5.17e-4 h -5.1e-4 c -2.7e-4,4.5e-5 -10e-4,-4e-6 -0.002,0 -0.006,-6.35e-4 -0.0136,-0.0077 -0.0217,-0.0093 l -0.005,0.02429 -0.0439,-0.04134 v 0.04237 c -0.0167,-0.01159 -0.0243,-0.03602 -0.0243,-0.04806 0,-0.0019 -6.3e-4,-0.004 -10e-4,-0.0052 v -5.17e-4 l -5.2e-4,-5.17e-4 -5.2e-4,-5.16e-4 v -5.17e-4 l -5.1e-4,-5.17e-4 h -5.2e-4 l -5.2e-4,-5.17e-4 h -5.1e-4 v -5.16e-4 h -5.2e-4 c -6.1e-4,-1.68e-4 -0.002,1.5e-5 -0.003,0 -7.9e-4,4.9e-5 -0.002,-1.02e-4 -0.002,0 l 0.0145,-0.01499 -0.0196,-0.01188 0.0682,-0.01964 -0.01,-0.06046 0.0532,0.02326 c 0.0125,-0.03268 0.009,-0.05779 0.0295,-0.04909 h 0.0191 l -0.01,-0.05426 c 0.008,0.0068 0.0164,0.01455 0.0222,0.01292 0.003,-0.0014 0.006,-0.0061 0.007,-0.01499 l 0.0145,0.01189 h 0.005 l 0.0243,-0.0067 -0.005,-0.02377 0.0243,-0.0067 h 0.005 l 0.0145,0.01137 v -0.02377 l 0.0243,-0.0067 v 0.01189 l 0.0341,-0.03669 -0.0145,-0.0062 0.005,-0.03049 -0.0486,0.0072 0.01,-0.05426 -0.0196,0.0124 -0.005,-0.01809 h -0.005 l -0.005,0.02429 h -0.005 l -0.005,-0.03617 h -0.005 l -0.005,0.01809 -0.0341,-0.0052 -0.005,-0.03617 c -0.0265,0.0098 -0.038,-0.0021 -0.0584,-0.02274 z m -0.72141,0.03101 h 5.2e-4 5.2e-4 c 3.9e-4,-3.5e-5 7e-4,0 0.001,0 0.002,6.6e-5 0.003,0 0.004,0 l 0.005,0.0057 c 0.004,0 0.008,-1.62e-4 0.0119,0.0021 0.0116,0.0022 0.0227,0.0071 0.0336,0.01137 0.01,0.0038 0.02,0.0076 0.0289,0.01292 0.0147,0.0087 0.0108,0.0301 0.0258,0.03772 0.0131,0.0071 0.0298,-0.01494 0.0403,0 l 5.2e-4,-5.17e-4 h 5.2e-4 l 5.1e-4,-5.17e-4 h 5.2e-4 5.2e-4 5.1e-4 l 5.2e-4,5.17e-4 h 5.2e-4 l 5.1e-4,5.17e-4 c 8.5e-4,6.99e-4 0.002,0.0015 0.003,0.0026 -0.008,0.0022 -0.0125,0.0067 -0.0181,0.01292 -0.001,0.0016 -0.003,0.0036 -0.004,0.0052 l -5.2e-4,5.17e-4 c -7e-5,2.03e-4 4e-5,0.0013 0,0.0016 v 5.17e-4 5.17e-4 c 5e-5,2.39e-4 4.3e-4,0.0013 5.2e-4,0.0016 0.005,0.01271 0.0215,0.01404 0.0305,0.02274 0.006,0.0062 0.009,0.01447 0.0124,0.02274 0.006,0.01516 0.0129,0.03104 0.016,0.04703 0.002,0.0071 0.002,0.01829 -0.003,0.02429 -0.006,-0.0038 -0.006,-0.01162 -0.008,-0.01809 l -0.002,0.0021 h -5.2e-4 v -0.0026 l -5.2e-4,-5.16e-4 -5.1e-4,-5.17e-4 c -8e-5,-2.46e-4 5e-5,-0.0013 0,-0.0016 -3.2e-4,-0.0023 -3e-5,-0.0055 -5.2e-4,-0.0078 l -5.2e-4,-5.17e-4 c -1.1e-4,-2.41e-4 -3.8e-4,-7.96e-4 -5.2e-4,-0.001 l -0.002,0.0062 -5.2e-4,5.17e-4 h -5.2e-4 v -5.17e-4 c -0.002,-0.0042 -0.004,-0.0095 -0.005,-0.01395 l -5.2e-4,5.17e-4 -5.2e-4,5.17e-4 c 0,5.57e-4 4e-5,0.0012 0,0.0016 v 5.17e-4 h -5.1e-4 c -3.2e-4,3.5e-5 -0.001,0 -0.002,0 h -5.2e-4 -5.2e-4 l -5.1e-4,-5.17e-4 -5.2e-4,-5.17e-4 v -5.16e-4 -5.17e-4 c -0.003,-0.0046 -0.003,-0.01187 -0.004,-0.01757 l -5.1e-4,5.17e-4 h -5.2e-4 v 5.16e-4 h -5.2e-4 -5.1e-4 v 5.17e-4 5.17e-4 5.17e-4 l -5.2e-4,5.16e-4 v 5.17e-4 l -5.2e-4,5.17e-4 c -2.7e-4,2.93e-4 -8.2e-4,3.04e-4 -0.001,5.17e-4 v 5.17e-4 h -5.2e-4 -5.1e-4 v -5.17e-4 -5.17e-4 l -5.2e-4,-5.17e-4 -5.2e-4,-5.17e-4 h -5.1e-4 -5.2e-4 c -1.4e-4,-2.22e-4 -4.1e-4,-0.0013 -5.2e-4,-0.0015 l -5.1e-4,-5.17e-4 c -5.5e-4,-0.0023 2e-5,-0.0054 -5.2e-4,-0.0078 l -5.2e-4,-5.17e-4 h -5.1e-4 c -1.3e-4,6.29e-4 -7.1e-4,0.002 -0.001,0.0026 l -5.1e-4,5.17e-4 v 5.17e-4 h -5.2e-4 -5.2e-4 v 5.16e-4 h -5.1e-4 -5.2e-4 v -5.16e-4 h -5.2e-4 -5.1e-4 -5.2e-4 l -5.2e-4,-5.17e-4 c -2.2e-4,-1.55e-4 -0.001,-8.4e-4 -0.002,-0.001 -0.002,-0.0025 -0.004,-0.0068 -0.006,-0.0088 -2.8e-4,-2.78e-4 -0.001,-0.0013 -0.002,-0.0015 -2.5e-4,-1.64e-4 -0.001,-3.92e-4 -0.002,-5.17e-4 -4.4e-4,-1.95e-4 -0.002,-8.73e-4 -0.002,-0.001 l -5.2e-4,-5.17e-4 c -0.002,-0.0022 -0.003,-0.004 -0.005,-0.0067 h -5.1e-4 v 5.17e-4 h -5.2e-4 -5.2e-4 -5.2e-4 -5.1e-4 c -2.3e-4,-3.6e-5 -10e-4,-4.48e-4 -0.002,-5.17e-4 h -5.2e-4 l -5.2e-4,-5.17e-4 c -0.002,-0.0011 -0.003,-0.0029 -0.004,-0.0041 l -5.2e-4,5.17e-4 c -2.7e-4,8.9e-5 -0.001,-4.3e-5 -0.002,0 h -5.2e-4 -5.1e-4 -5.2e-4 l -5.2e-4,-5.17e-4 h -5.1e-4 l -5.2e-4,-5.17e-4 -5.2e-4,-5.16e-4 -5.1e-4,-5.17e-4 c -8e-4,-0.0011 -10e-4,-0.0024 -0.002,-0.0036 -5.1e-4,0 -0.002,-4.48e-4 -0.002,-5.16e-4 h -5.2e-4 c -2e-4,-6.7e-5 -0.001,-4.34e-4 -0.002,-5.17e-4 l -5.2e-4,-5.17e-4 h -5.1e-4 l -5.2e-4,-5.17e-4 v -5.16e-4 l -5.2e-4,-5.17e-4 -5.1e-4,-5.17e-4 c -4.5e-4,-7.42e-4 -7.6e-4,-0.0016 -10e-4,-0.0026 -0.002,-0.0017 -0.003,-0.0049 -0.004,-0.0062 -0.008,0.0051 -0.0184,0.0059 -0.0264,0.01085 -0.006,0.0036 -0.007,0.0094 -0.0124,0.01344 -3.4e-4,2.79e-4 -0.001,8.29e-4 -0.002,0.001 h -5.2e-4 -5.1e-4 -5.2e-4 -5.2e-4 -5.1e-4 -5.2e-4 -5.2e-4 v -5.17e-4 l -5.2e-4,-5.17e-4 -5.1e-4,-5.17e-4 -5.2e-4,-5.17e-4 v -5.16e-4 c -1.1e-4,-2.45e-4 -4.2e-4,-7.55e-4 -5.2e-4,-10e-4 h -5.1e-4 -5.2e-4 -5.2e-4 l -5.1e-4,-5.17e-4 -5.2e-4,-5.16e-4 h -5.2e-4 v -5.17e-4 -5.17e-4 l -5.1e-4,-5.17e-4 v -5.16e-4 -5.17e-4 -5.17e-4 h -5.2e-4 l -5.2e-4,-5.17e-4 h -5.1e-4 l -5.2e-4,-5.16e-4 h -5.2e-4 v -5.17e-4 h -5.1e-4 v -5.17e-4 l -5.2e-4,-5.17e-4 v -5.17e-4 -5.16e-4 -5.17e-4 -5.17e-4 c -4.7e-4,-4.99e-4 -10e-4,-0.002 -0.002,-0.0026 v -5.16e-4 -5.17e-4 -5.17e-4 -5.17e-4 -5.16e-4 -5.17e-4 l 5.2e-4,-5.17e-4 5.1e-4,-5.17e-4 5.2e-4,-5.17e-4 5.2e-4,-5.16e-4 5.1e-4,-5.17e-4 5.2e-4,-5.17e-4 c 0.003,-0.0016 0.007,-0.0012 0.009,-0.0026 0.007,-0.0071 0.0122,-0.01532 0.0207,-0.02067 -3e-4,-1.4e-4 -10e-4,-8.93e-4 -0.002,-0.001 l -5.1e-4,-5.16e-4 -5.2e-4,-5.17e-4 -5.2e-4,-5.17e-4 -5.1e-4,-5.17e-4 v -5.17e-4 -5.16e-4 -5.17e-4 -5.17e-4 -5.17e-4 -5.16e-4 -5.17e-4 c -0.001,-0.0011 -0.002,-0.0028 -0.003,-0.0041 -3.9e-4,-0.0016 -6.7e-4,-0.0036 0,-0.0057 l -5.2e-4,5.17e-4 h -5.1e-4 -5.2e-4 -5.2e-4 -5.1e-4 -5.2e-4 -5.2e-4 l -5.1e-4,-5.17e-4 h -5.2e-4 l -5.2e-4,-5.16e-4 h -5.1e-4 v -5.17e-4 l -5.2e-4,-5.17e-4 h -5.2e-4 c -0.002,-0.0024 -0.002,-0.0064 0,-0.0093 v -0.0021 h -5.1e-4 -5.2e-4 v 5.17e-4 h -5.2e-4 -5.1e-4 -5.2e-4 l -5.2e-4,-5.17e-4 h -5.1e-4 -5.2e-4 l -5.2e-4,-5.17e-4 -5.1e-4,-5.16e-4 -5.2e-4,-5.17e-4 -5.2e-4,-5.17e-4 v -5.17e-4 l -5.1e-4,-5.16e-4 v -5.17e-4 -5.17e-4 -5.17e-4 -5.16e-4 -5.17e-4 h 5.1e-4 v -5.17e-4 -5.17e-4 c -0.001,-5.57e-4 -0.003,-0.0014 -0.004,-0.0021 l -5.1e-4,-5.17e-4 -5.2e-4,-5.16e-4 -5.2e-4,-5.17e-4 c -1.1e-4,-1.95e-4 -4.2e-4,-0.0013 -5.1e-4,-0.0016 v -5.17e-4 c -2e-5,-2.3e-4 -2e-5,-0.0013 0,-0.0016 5e-5,-2.59e-4 4.2e-4,-0.0013 5.1e-4,-0.0016 v -5.16e-4 c -5.8e-4,1.74e-4 -0.002,1.2e-5 -0.003,0 h -5.2e-4 -5.1e-4 v -5.17e-4 h -5.2e-4 -5.2e-4 v -5.17e-4 h -5.1e-4 v -5.17e-4 h -5.2e-4 v -5.17e-4 l -5.2e-4,-5.16e-4 v -5.17e-4 -5.17e-4 -5.17e-4 l 5.2e-4,-5.16e-4 v -5.17e-4 l 5.2e-4,-5.17e-4 5.1e-4,-5.17e-4 5.2e-4,-5.16e-4 c -0.007,0 -0.0102,-0.0037 -0.0145,-0.0057 l 0.009,-0.0021 c -0.007,0 -0.0138,0.0021 -0.0212,-0.0026 l 5.1e-4,-5.16e-4 c 2e-4,-1.66e-4 10e-4,-8.88e-4 0.002,-0.001 h 5.2e-4 c 0.002,-8.65e-4 0.005,-0.0015 0.008,-0.0015 -0.004,-6.7e-4 -0.009,-0.0019 -0.0124,-0.0021 -0.003,0 -0.006,-0.0021 -0.008,-0.0047 v -5.17e-4 h 5.1e-4 c 0.002,-3.05e-4 0.003,-0.0015 0.005,-0.0021 l -0.009,-0.0026 c -0.002,0 -0.005,-9.8e-4 -0.007,-0.0021 l -5.2e-4,-5.17e-4 -5.1e-4,-5.16e-4 -5.2e-4,-5.17e-4 -5.2e-4,-5.17e-4 -5.1e-4,-5.17e-4 c -1.3e-4,-2.33e-4 -4.1e-4,-0.0013 -5.2e-4,-0.0016 h 0.004 c -0.002,-1.05e-4 -0.005,-9.12e-4 -0.007,-0.0026 h -5.2e-4 -5.1e-4 v -5.17e-4 h -5.2e-4 v -5.16e-4 h -5.2e-4 v -5.17e-4 -5.17e-4 -5.17e-4 -5.16e-4 l 5.2e-4,-5.17e-4 c 2.6e-4,-2.14e-4 0.001,-8.77e-4 0.002,-10e-4 2.4e-4,-1.09e-4 8.1e-4,-4.47e-4 10e-4,-5.16e-4 z m 0.0501,0.03101 -0.002,5.17e-4 h 0.002 z m 0.002,0.0057 h 0.003 z m 1.58285,0.01395 -0.0186,0.03256 -0.0341,-0.0155 0.0191,0.03204 -0.031,0.0217 0.0372,-0.0021 0.003,0.03721 0.0186,-0.03256 0.0336,0.0155 -0.0186,-0.03204 0.031,-0.0217 -0.0377,0.0021 z m -0.1111,0.03411 -0.01,0.0026 -0.0439,0.08527 -0.0243,0.0124 -0.005,-0.05426 -0.01,0.0026 -0.005,0.02997 c -0.0178,-0.0053 -0.028,-0.0044 -0.0341,0.0186 l -0.0243,-0.01137 -0.0196,0.0186 v 0.0062 l 0.01,0.02377 0.015,0.01809 -0.0248,0.03049 0.0295,-0.0067 v 0.0062 l -0.01,0.0124 h 0.0243 l -0.0145,0.02429 0.01,0.01757 -0.0243,0.03101 0.0191,0.01188 v 0.01809 l -0.0145,0.0062 v 0.04754 c -0.028,0.003 -0.0606,0.03439 -0.0729,0.05839 l 0.0486,-0.01292 v 0.03617 h 0.0191 l -0.0289,0.07906 h 0.0191 l -0.005,0.02429 c 0.0225,0.0098 0.067,0.05599 0.0873,0.02791 l 0.0341,0.0057 c 0.006,0.02272 0.0163,0.02084 0.0341,0.01705 l -0.005,-0.02997 -0.0145,-0.0057 0.01,-0.01809 -0.0341,0.0067 -0.0145,-0.06615 0.0341,-0.03101 0.0243,0.0057 -0.0341,-0.02377 0.0217,-0.04444 -0.016,-0.0041 -0.0155,-0.01137 -0.0388,0.01912 -0.005,-0.01809 -0.0145,0.0062 c -0.007,-0.01337 -0.017,-0.01993 -0.0279,-0.02015 l -5.2e-4,-5.16e-4 c -0.002,-5.8e-5 -0.002,-1.3e-5 -0.004,0 l 0.0419,-0.0124 0.005,-0.03617 0.0145,0.02377 0.01,-0.0026 0.005,-0.01809 0.0341,-0.0067 0.0243,0.05943 0.0439,0.0052 c -0.003,0.04273 0.0285,0.03525 0.0532,0.02894 l -0.0145,-0.01757 v -0.0062 l 0.0295,-0.03101 -0.015,-0.0057 0.015,-0.0062 c -0.0401,-0.07693 0.0269,-0.07321 0.0486,-0.140043 l -0.0625,-0.02429 c 0.004,-0.01583 0.008,-0.01519 0.0191,-0.02429 0.0368,0.0214 0.0469,-0.0024 0.0651,0.0021 l -0.0331,-0.01292 -0.008,-0.02429 -0.0439,0.0072 -0.01,-0.01189 0.005,-0.01809 -0.0341,-0.02326 h -0.005 l -0.0341,0.03049 0.005,-0.02377 z m 40.32363,0.01499 c -1.46709,0 -2.59157,1.075042 -2.59157,2.492354 0,1.405598 1.12138,2.474268 2.58847,2.474268 1.47003,0 2.59468,-1.06867 2.59468,-2.474268 0,-1.417312 -1.12448,-2.492354 -2.59158,-2.492354 z m -40.54894,0.05788 0.002,0.02274 -0.0227,0.0041 0.0207,0.0098 -0.009,0.02119 0.0191,-0.01292 0.014,0.01809 -0.002,-0.02325 0.0227,-0.0036 -0.0207,-0.0098 0.009,-0.0217 -0.0191,0.01343 z m 28.38741,0.0098 -2.19315,4.779037 h 1.37046 l 0.2403,-0.550871 h 1.76268 l 0.2372,0.550871 h 1.37355 l -2.19624,-4.779037 z m -6.74377,0.01137 v 4.770251 h 1.25315 v -2.307352 l 2.42776,2.351277 h 0.39842 v -4.772835 h -1.25677 v 2.301668 l -2.41845,-2.343009 z m -21.89014,0.0016 -0.0243,0.02946 0.0145,-0.01189 -0.005,0.02997 -0.0145,-0.0057 v 0.0062 l 0.003,0.05684 -0.009,-0.0036 -0.0124,-0.0026 -0.003,0.0098 -0.01,0.0021 0.003,-0.0098 -0.0145,-0.0031 0.003,-0.02894 -0.0341,-0.02377 h -0.0196 l -0.005,0.0186 -0.0145,-0.01809 0.01,-0.03049 -0.0341,0.01292 -0.005,0.0067 v 0.04806 l -0.0196,-0.02377 -0.0434,0.03101 0.0145,0.02997 c -0.0351,0.02766 0.008,0.03658 0.0196,0.05994 l 0.0579,-0.01912 0.005,0.03566 -0.0145,-0.0057 -0.0486,0.05529 v 0.02429 l 0.0289,-0.0067 0.015,0.05994 h 0.0145 l -0.0243,0.04858 c 0.021,0.01271 0.0216,0.02758 0.0145,0.05426 l 0.0729,0.02274 -0.0243,0.0062 0.0191,0.01188 -0.01,0.03049 h 0.005 l 0.0579,-0.03772 v -0.02377 l -0.0289,0.0021 v -0.0062 l 0.0243,-0.01292 -0.0439,-0.01705 0.01,-0.01809 -0.0341,-0.02377 0.0248,0.0057 -0.0196,-0.05374 h 0.005 c 0.0165,0.04249 0.066,0.05482 0.0584,-0.0078 l 0.0196,0.01189 -0.01,-0.06615 0.0289,-0.0067 0.005,-0.02429 0.0289,0.01137 0.0196,-0.06098 0.0677,-0.01344 0.0295,0.06563 0.0677,-0.0021 c 0.002,0.07842 0.0513,0.0158 0.0827,0.0047 l -0.01,-0.01189 v -0.0057 l 0.01,-0.0124 c -0.0201,-0.01538 -0.0124,-0.02809 0.005,-0.04237 v -0.0062 l -0.0145,-0.0057 0.005,-0.01809 -0.0289,0.0021 -0.01,-0.02377 0.005,-0.03049 0.0196,-0.02429 -0.0439,0.0248 -0.0103,-0.0248 c -0.0261,-0.0051 -0.036,-0.0047 -0.0481,0.02635 -0.0303,0 -0.0475,0.01132 -0.0682,-0.02274 l -0.0677,0.02532 0.0145,-0.03049 -0.0341,0.01292 z m -1.29656,0.0031 -0.002,0.0615 -0.092,0.0021 0.0873,0.06201 -0.0889,0.06356 0.092,-0.0026 -0.003,0.06201 -0.2341,0.0021 v -0.02481 l 0.13798,-0.100769 -0.13539,-0.0987 v -0.02481 z m 16.38711,0.04238 v 4.720642 h 1.25315 v -1.77767 h 1.40302 v 1.77767 h 1.25005 v -4.720642 h -1.25005 v 1.771468 h -1.40302 v -1.771468 z m 4.72633,0 v 4.720642 h 1.25315 v -4.720642 z m 12.07936,0 0.006,4.720642 h 1.25367 v -2.050004 l 1.26194,2.050004 h 1.46709 l -1.26504,-1.894975 c 0.46268,-0.21084 0.81701,-0.702799 0.81701,-1.291394 0,-0.846287 -0.72917,-1.534273 -1.74822,-1.534273 z m 4.43953,0 v 4.720642 h 1.25315 v -4.720642 z m -36.6417,0.04134 -0.008,0.04496 -0.045,-0.0026 0.0351,0.02791 -0.0258,0.03772 0.0424,-0.01705 0.0191,0.04082 0.007,-0.04496 0.0449,0.0026 -0.0351,-0.0279 0.0264,-0.03721 -0.0424,0.01654 z m 0.40308,0.103869 -0.01,0.03721 c -0.0228,-0.0025 -0.0333,0.01676 -0.0387,0.04289 l -0.0289,-0.01757 -0.01,0.0124 0.0191,0.06563 -0.0191,-0.0057 -0.005,0.01809 -0.005,-0.01757 -0.0196,0.02429 0.0145,0.0057 v 0.02429 c -0.005,0.0016 -0.009,0.0045 -0.01,0.0067 v 5.17e-4 c -9e-5,5.22e-4 -6e-5,0.002 0,0.0026 7e-5,2.72e-4 4.2e-4,0.0013 5.2e-4,0.0016 0.002,0.0044 0.008,0.0094 0.0145,0.01292 l -0.01,0.04806 0.063,0.0052 0.0145,-0.0186 -0.005,-0.03617 0.0294,0.0057 -0.005,-0.04237 0.0248,0.03566 c 0.0482,-0.01337 0.0476,-0.003 0.0873,0.02222 l 0.0682,-0.03152 -0.01,-0.0062 v -0.0062 l 0.0243,-0.0186 v -0.0062 l -0.01,-0.01757 -0.0341,-0.0057 h -0.005 l -0.0341,0.02532 0.005,-0.03669 0.0289,-0.03669 -0.0289,-0.01137 0.005,-0.02429 -0.0243,0.01292 0.005,-0.03049 -0.0196,0.02481 -0.0388,0.0021 -0.01,-0.02377 v -0.03049 l -0.0145,0.0062 z m -0.67489,0.07493 -0.008,0.02481 -0.0248,-0.0052 0.0176,0.01809 -0.0176,0.01912 0.0248,-0.0062 0.008,0.02429 0.007,-0.02481 0.0248,0.0052 -0.0171,-0.01809 0.0171,-0.01912 -0.0248,0.0062 z m -0.71365,0.01757 0.0367,0.145211 -0.2248,0.06201 -0.0372,-0.145211 0.0558,-0.0155 0.0217,0.0863 0.0315,-0.0083 -0.0181,-0.07131 0.0496,-0.01344 0.0181,0.0708 0.0326,-0.0088 -0.0222,-0.0863 z m 1.76888,5.17e-4 -0.0119,0.0186 -0.0191,-0.01034 0.01,0.01912 -0.0191,0.01137 0.0222,0.0026 v 0.02222 l 0.0119,-0.01912 0.0191,0.01085 -0.01,-0.01964 0.0191,-0.01137 -0.0222,-0.0026 z m 0.0868,0.02997 c -0.0305,0.0022 -0.0522,0.01347 -0.0486,0.05529 l -0.0295,0.0021 0.01,0.03617 -0.063,0.01343 v 0.0062 l 0.0388,0.01705 -0.005,0.0186 0.0196,0.0052 v 0.0062 h -0.0196 c 0.01,0.02434 0.0224,0.06028 0.0326,0.06615 2.7e-4,1.13e-4 7.8e-4,4.47e-4 0.001,5.17e-4 h 5.1e-4 5.2e-4 5.2e-4 5.1e-4 5.2e-4 l 5.2e-4,-5.17e-4 h 5.1e-4 c 2.5e-4,-1.7e-4 10e-4,-0.0013 0.002,-0.0015 0.004,-0.0047 0.007,-0.01726 0.01,-0.04134 l 0.0145,0.01809 0.0243,-0.0067 0.005,0.03566 c 0.0172,-0.0076 0.0248,-0.0093 0.0388,0.0057 l 0.0439,-0.02532 -0.01,-0.05374 0.0191,-0.01292 c -0.0154,-0.02006 -0.006,-0.0375 0.01,-0.05426 v -0.0062 l -0.0584,0.0072 0.01,-0.01809 h -0.0191 l 0.0145,-0.0186 v -0.01188 l -0.0486,-0.01705 0.005,-0.02429 z m -0.42117,0.102836 -0.0124,0.03927 -0.0398,-0.0083 0.0279,0.02946 -0.0284,0.03049 0.0403,-0.0098 0.0114,0.03876 0.0124,-0.03927 0.0398,0.0088 -0.0279,-0.02946 0.0284,-0.03049 -0.0403,0.0098 z m -0.10903,0.05323 c -0.0246,0.0094 -0.0364,0.03191 -0.0439,0.06149 l 0.0243,-0.0124 c 0.002,0.0368 0.0209,0.03859 0.0439,0.02325 0.007,0.04965 0.0226,0.03363 0.0486,0.05323 l 0.0145,-0.04858 -0.0434,0.01292 -0.005,-0.0062 0.005,-0.02429 -0.005,-0.03617 -0.0486,0.01344 z m -1.31414,0.0078 h 10e-4 c 0.0297,0 0.0576,0.0217 0.0729,0.05271 0.0167,0.03397 0.0169,0.0725 -0.002,0.09457 l -0.0491,-0.01654 c 0.009,-0.01516 0.008,-0.03539 0,-0.05271 -0.005,-0.0096 -0.013,-0.01736 -0.0202,-0.01757 -2.8e-4,1.5e-5 -10e-4,4.78e-4 -0.002,5.17e-4 -5.5e-4,1.25e-4 -0.002,8.07e-4 -0.003,0.001 -6.6e-4,3.35e-4 -0.002,0.0011 -0.003,0.0016 -0.008,0.0082 -0.007,0.03225 -0.006,0.05478 0.002,0.03192 -0.005,0.06308 -0.0367,0.07906 -0.0361,0.01828 -0.0784,-0.0027 -0.0977,-0.04186 -0.0154,-0.03157 -0.0124,-0.06416 0.004,-0.08268 l 0.046,0.01602 c -0.008,0.01181 -0.005,0.03043 0,0.04031 0.006,0.0107 0.0154,0.01597 0.0227,0.0124 l 5.2e-4,-5.17e-4 c 2.7e-4,-1.75e-4 10e-4,-8.36e-4 0.002,-0.001 4.5e-4,-4.4e-4 0.002,-0.0015 0.002,-0.0021 0.004,-0.0074 10e-4,-0.02249 0,-0.04444 -0.002,-0.0393 0.007,-0.07065 0.0377,-0.0863 0.01,-0.0051 0.02,-0.0066 0.03,-0.0072 z m 1.233,0.04496 -0.0289,0.04754 -0.0491,-0.02429 0.0264,0.04806 -0.0465,0.03101 h 0.0553 l 0.003,0.05529 0.0289,-0.04806 0.0491,0.02481 -0.0264,-0.04858 0.0465,-0.03049 h -0.0553 z m 0.54261,0.03152 0.009,0.04393 -0.0434,0.01343 0.0429,0.01344 -0.0109,0.04392 0.0336,-0.03101 0.0326,0.03101 -0.01,-0.04444 0.0434,-0.01292 -0.0429,-0.01343 0.0109,-0.04393 -0.0336,0.03101 z m -0.31058,0.0155 c -0.021,0.04019 -0.0706,0.196254 -0.0341,0.22996 0.007,-0.0976 0.11615,-0.159028 0.18501,-0.173116 v -0.01189 l -0.0584,0.0021 v -0.0062 l 0.0145,-0.0186 -0.0486,0.02532 v -0.04237 l -0.0295,0.03101 v -0.02997 h -0.005 l -0.005,0.01809 -0.01,0.0021 z m -0.16071,0.112137 -0.005,0.01809 -0.0341,0.0021 0.0439,0.08372 h 0.005 l -0.005,-0.102836 z m -1.34721,0.07752 c 0.005,0 0.009,0.003 0.0114,0.0072 v 5.17e-4 h 5.2e-4 c 8.1e-4,9.87e-4 0.003,0.0038 0.006,0.0098 0.006,0.0091 0.015,0.0241 0.0289,0.04289 0.006,0.0078 0.0127,0.01635 0.0207,0.02635 0.0412,0.05154 0.0996,0.113519 0.17622,0.174667 0.0602,0.04804 0.13511,0.09701 0.22169,0.138493 0.0234,0.01115 0.0513,0.02376 0.0832,0.03617 0.0712,0.02755 0.15033,0.04988 0.23874,0.06356 0.0877,0.0136 0.16282,0.01536 0.21033,0.01447 -0.0475,0.0025 -0.12293,0.0042 -0.21188,-0.0052 -0.0896,-0.0096 -0.17129,-0.02841 -0.24494,-0.05323 -0.033,-0.01115 -0.0619,-0.02248 -0.0863,-0.03307 -0.0912,-0.0399 -0.1662,-0.08855 -0.22944,-0.137976 -0.0789,-0.06162 -0.13851,-0.126551 -0.18036,-0.179317 -0.008,-0.01048 -0.0154,-0.01945 -0.0212,-0.02739 -0.0143,-0.01939 -0.0243,-0.03488 -0.0305,-0.04444 -0.006,-0.0094 -0.007,-0.01085 -0.007,-0.01085 -0.005,-0.0094 0.002,-0.02104 0.0124,-0.0217 0,-1.7e-5 0.001,-4e-5 0.002,0 z m 42.11836,0.352433 c 0.74965,0 1.32344,0.56224 1.32344,1.291394 0,0.726226 -0.57379,1.285193 -1.32344,1.285193 -0.74965,0 -1.32343,-0.558967 -1.32343,-1.285193 0,-0.729154 0.57378,-1.291394 1.32343,-1.291394 z m -7.64604,0.06149 h 0.51263 c 0.26355,0 0.50953,0.181557 0.50953,0.47439 0,0.289904 -0.24305,0.477319 -0.50953,0.47439 l -0.51263,-0.0031 z m -4.2168,1.007174 0.48318,1.118795 h -0.96945 z m -29.59044,0.114722 0.0171,0.0021 0.015,0.0026 v -0.0046 c 0.0751,0.0042 0.13177,0.06776 0.13177,0.146761 v 4.061767 c 0,0.09004 -0.0734,0.169866 -0.16381,0.179317 -0.0905,0.0091 -0.1633,-0.05641 -0.1633,-0.146244 v -4.062284 c 0,-0.08993 0.0728,-0.170378 0.1633,-0.179317 z m 1.63452,0.273885 c 0.0746,0.01025 0.13075,0.0685 0.13075,0.147278 v 3.279903 c 0,0.08999 -0.0734,0.170489 -0.16382,0.179317 -0.0905,0.0091 -0.16381,-0.05661 -0.16381,-0.146761 v -3.279903 c 0,-0.09002 0.0733,-0.170378 0.16381,-0.179318 l 0.0331,0.0021 z m -2.70164,0.267684 0.0326,0.0021 v -0.0021 c 0.0746,0.01025 0.13125,0.06749 0.13125,0.146244 v 3.193087 c 0,0.09002 -0.0734,0.170355 -0.16381,0.179317 -0.0905,0.0089 -0.16381,-0.05612 -0.16381,-0.146244 v -3.193087 c 0,-0.08995 0.0734,-0.169865 0.16381,-0.179317 z m 1.60094,0.273885 0.0331,0.0021 v -0.0021 c 0.0746,0.01025 0.13074,0.06796 0.13074,0.146761 v 2.324406 c 0,0.08997 -0.0734,0.169865 -0.16381,0.179317 -0.0904,0.0091 -0.16382,-0.05692 -0.16382,-0.146761 v -2.324406 c 0,-0.09004 0.0734,-0.169865 0.16382,-0.179317 z m 1.63297,0.273885 c 0.0751,0.0042 0.13178,0.06782 0.13178,0.146761 v 1.542541 c 0,0.09004 -0.0729,0.169866 -0.1633,0.179318 -0.0904,0.0091 -0.16382,-0.05686 -0.16382,-0.146761 v -1.542025 c 0,-0.08988 0.0735,-0.170356 0.16382,-0.179317 l 0.0165,0.0021 0.015,0.0021 z m -1.09916,0.02015 0.0165,0.0021 0.0155,0.0021 v -0.0041 c 0.0751,0.0042 0.13178,0.06764 0.13178,0.146761 v 1.716174 c 0,0.09002 -0.0734,0.169865 -0.16382,0.179317 -0.0904,0.0089 -0.16381,-0.05661 -0.16381,-0.146761 v -1.716174 c 0,-0.09004 0.0734,-0.170356 0.16381,-0.179317 z m 1.63401,0.187585 c 0.0746,0.01003 0.13074,0.06789 0.13074,0.146761 v 0.933793 c 0,0.08997 -0.0728,0.169843 -0.16329,0.179317 -0.0905,0.0089 -0.16382,-0.05632 -0.16382,-0.146244 v -0.93431 c 0,-0.09015 0.0734,-0.169348 0.16382,-0.1788 l 0.0325,0.0021 z m -3.20187,0.05943 c 0.0746,0.01003 0.13023,0.06822 0.13023,0.146761 v 1.455725 c 0,0.08995 -0.0728,0.170378 -0.1633,0.179317 -0.0905,0.0089 -0.16382,-0.05692 -0.16382,-0.146761 v -1.455725 c 0,-0.08991 0.0734,-0.169326 0.16382,-0.1788 l 0.0331,0.0021 z m -1.10071,0.02015 0.0331,0.0021 v -0.0021 c 0.0746,0.01003 0.13074,0.06798 0.13074,0.146761 v 1.716174 c 0,0.09002 -0.0734,0.170356 -0.16382,0.179317 -0.0904,0.0091 -0.16381,-0.05661 -0.16381,-0.146761 v -1.716174 c 0,-0.09006 0.0734,-0.169865 0.16381,-0.179317 z m -0.53381,0.314192 0.0331,0.0026 v -0.0026 c 0.0746,0.01003 0.13074,0.06807 0.13074,0.146762 v 1.107425 c 0,0.08997 -0.0734,0.169843 -0.16381,0.179318 -0.0905,0.0089 -0.16382,-0.05636 -0.16382,-0.146245 v -1.107942 c 0,-0.09002 0.0733,-0.169866 0.16382,-0.179318 z" /><path
         id="text823-0"
         style="font-weight:bold;font-size:5.99722px;font-family:'LEMON MILK';-inkscape-font-specification:'LEMON MILK Bold';text-align:center;text-anchor:middle;fill:#00cc00;stroke-width:0.399999;stroke-linecap:round;paint-order:stroke fill markers"
         d="m 404.0011,-62.452518 c -7.35285,0 -13.28291,5.821461 -13.28291,13.040031 0,7.218569 5.93006,13.042098 13.28291,13.042098 h 59.52194 c 7.35285,0 13.28291,-5.823529 13.28291,-13.042098 0,-7.21857 -5.93006,-13.040031 -13.28291,-13.040031 z m 0,0.682646 h 59.52194 c 6.98018,0 12.5889,5.504672 12.5889,12.357385 0,6.852712 -5.60872,12.359453 -12.5889,12.359453 H 404.0011 c -6.98019,0 -12.58942,-5.506741 -12.58942,-12.359453 0,-6.852713 5.60923,-12.357385 12.58942,-12.357385 z m -0.24443,1.671216 c -5.898,0 -10.68514,4.789201 -10.68514,10.687203 0,5.898003 4.78714,10.687719 10.68514,10.687719 5.898,0 10.68772,-4.789716 10.68772,-10.687719 0,-5.898002 -4.78972,-10.687203 -10.68772,-10.687203 z m 0,0.700732 c 5.5197,0 9.98853,4.466777 9.98853,9.986471 0,5.519695 -4.46883,9.98647 -9.98853,9.98647 -5.51969,0 -9.98596,-4.466775 -9.98596,-9.98647 0,-5.519694 4.46627,-9.986471 9.98596,-9.986471 z m -2.98897,4.05505 c -0.3016,0 -0.55035,0.248309 -0.55035,0.549837 v 0.198438 h -1.10484 c -0.36323,0 -0.66171,0.29828 -0.66198,0.661458 v 5.17e-4 c 8e-5,0.0027 -4.6e-4,0.01051 -5.2e-4,0.0155 -1.4e-4,0.01087 -4.1e-4,0.02516 -5.1e-4,0.04289 -1.9e-4,0.03546 -4.7e-4,0.08474 -5.2e-4,0.146761 -1e-4,0.124042 2.6e-4,0.297538 5.2e-4,0.504362 5.2e-4,0.413645 0.002,0.960015 0.002,1.506368 6.5e-4,0.546353 9.7e-4,1.093103 0,1.506368 -4.8e-4,0.206632 -0.001,0.379877 -0.003,0.502812 -6.1e-4,0.06147 -0.001,0.110444 -0.002,0.14366 -3.4e-4,0.01428 -7.3e-4,0.02408 -0.001,0.03152 -10e-4,0.0051 -0.003,0.0107 -0.006,0.01964 -0.007,0.02292 -0.0164,0.05666 -0.0289,0.0987 -0.025,0.08409 -0.0605,0.202075 -0.10284,0.342098 -0.0848,0.280046 -0.19664,0.648012 -0.30592,1.012858 -0.10929,0.364847 -0.21594,0.726105 -0.29094,0.994255 -0.1596,0.440474 -0.10579,0.852963 0.14573,1.252636 0.0651,0.470667 0.19364,0.893994 0.59273,1.189075 -0.0245,0.587504 0.1069,1.085473 0.80615,1.142566 l 9.16688,5.17e-4 c 0.74826,-0.06466 0.80667,-0.560618 0.80667,-1.153418 0.76668,-0.496134 0.53224,-1.143508 0.38964,-1.874305 0.60819,-0.626405 0.016,-1.522387 0.016,-1.522387 l -0.40618,-1.518771 v -4.383711 c 0,-0.363062 -0.29875,-0.661975 -0.66249,-0.661975 h -0.42529 v -0.198438 c 0,-0.301599 -0.24877,-0.549837 -0.55036,-0.549837 h -0.15244 c -0.30159,0 -0.55036,0.248307 -0.55036,0.549837 v 0.198438 h -5.41827 v -0.198438 c 0,-0.301599 -0.24877,-0.549837 -0.55036,-0.549837 z m 0.006,0.200504 h 0.15297 c 0.19234,0 0.34933,0.156985 0.34933,0.349333 v 0.243913 0.243913 c 0,0.192348 -0.15699,0.349332 -0.34933,0.349332 h -0.15297 c -0.19235,0 -0.34933,-0.156984 -0.34933,-0.349332 v -0.487826 c 0,-0.192344 0.15698,-0.349333 0.34933,-0.349333 z m 6.67143,0 h 0.15296 c 0.19235,0 0.34934,0.156985 0.34934,0.349333 v 0.243913 0.243913 c 0,0.192348 -0.15699,0.349332 -0.34934,0.349332 h -0.15296 c -0.19235,0 -0.34933,-0.156984 -0.34933,-0.349332 v -0.487826 c 0,-0.192344 0.15698,-0.349333 0.34933,-0.349333 z m -8.32611,0.748275 h 0.99374 c -0.0354,0.397114 0.2536,0.747275 0.65939,0.748275 h 0.15297 c 0.4058,-0.0012 0.69479,-0.351161 0.65939,-0.748275 h 5.19968 c -0.0354,0.397114 0.25412,0.747275 0.65991,0.748275 h 0.15244 c 0.4058,-0.0012 0.69479,-0.351161 0.65939,-0.748275 h 0.3173 c 0.25502,0 0.46147,0.207079 0.46147,0.461471 v 4.388362 c 0,0.01487 0.002,0.02958 0.006,0.04444 l 0.32608,1.263489 c -0.52617,-0.670138 -1.15779,-1.052763 -1.64486,-1.334286 l 0.1328,-1.531172 h -2.46703 v 1.575614 h 1.90945 c -0.0658,0.105485 -0.13428,0.208298 -0.20568,0.310059 h -1.68568 c 0.0428,0.386343 0.16587,1.246793 0.20877,1.636075 -0.0941,0.07236 -0.22024,0.149025 -0.31884,0.218075 l -0.20257,-1.85415 h -2.49856 c -0.0645,0.58574 -0.21007,1.898387 -0.27647,2.495971 h 1.7446 c -1.96213,0.825148 -4.54478,1.270995 -5.41414,1.16427 -0.48709,-0.0726 -0.86704,-0.542728 -0.83664,-1.033528 h 5.1e-4 c -0.0518,-0.01525 0.83378,-2.858417 0.83871,-2.910417 0.0172,-0.06205 0.001,-4.372594 0.006,-4.432804 0,-0.2544 0.20708,-0.461471 0.46147,-0.461471 z m 0.71779,1.365291 v 1.616956 h 2.46703 v -1.616956 z m 2.77657,0 v 1.616956 h 2.46652 v -1.616956 z m 2.77761,0 v 1.616956 h 2.46704 v -1.616956 z m 26.12554,1.14205 c -1.46709,0 -2.59157,1.075043 -2.59157,2.492354 0,1.405599 1.12137,2.474268 2.58847,2.474268 1.47002,0 2.59467,-1.068669 2.59467,-2.474268 0,-1.417311 -1.12447,-2.492354 -2.59157,-2.492354 z m 10.49238,0 c -1.46709,0 -2.59157,1.075043 -2.59157,2.492354 0,1.405599 1.12137,2.474268 2.58847,2.474268 1.47002,0 2.59468,-1.068669 2.59468,-2.474268 0,-1.417311 -1.12448,-2.492354 -2.59158,-2.492354 z m 5.60173,0.01188 c -1.46417,0 -2.60036,1.133438 -2.60036,2.480469 0,1.347032 1.13309,2.465483 2.6324,2.465483 1.34117,0 2.42466,-0.928283 2.42466,-2.363164 0,-0.149345 -0.0142,-0.30179 -0.0377,-0.45992 h -2.42207 v 0.93431 h 1.08055 c -0.0176,0.450963 -0.42426,0.726054 -0.99529,0.726054 -0.87264,0 -1.40301,-0.644061 -1.40301,-1.305864 0,-0.729154 0.61805,-1.305863 1.32085,-1.305863 0.34847,0 0.72605,0.158131 0.9896,0.40411 l 0.69402,-0.95188 c -0.38947,-0.360184 -1.08331,-0.61495 -1.68362,-0.623735 z m -25.19846,0.0031 c -1.47002,0 -2.60036,1.074353 -2.60036,2.471167 0,1.481735 1.24471,2.465999 2.5771,2.465999 0.71744,0 1.31741,-0.284047 1.76837,-0.694014 l -0.71417,-0.95188 c -0.30455,0.272335 -0.65887,0.45992 -1.0542,0.45992 -0.67352,0 -1.30638,-0.539158 -1.30638,-1.27124 0,-0.723298 0.60651,-1.276408 1.33274,-1.276408 0.34847,0 0.73174,0.172598 1.02164,0.436149 l 0.72037,-0.925525 c -0.48317,-0.43925 -1.13602,-0.705383 -1.74511,-0.714168 z m 34.55448,0.05271 -2.19315,4.779036 h 1.37046 l 0.23978,-0.550871 h 1.7632 l 0.23719,0.550871 h 1.37304 l -2.19625,-4.779036 z m 10.98692,0 -2.19315,4.779036 h 1.37046 l 0.2403,-0.550871 h 1.76268 l 0.2372,0.550871 h 1.37356 l -2.19625,-4.779036 z m -33.23053,0.01137 v 4.770251 h 1.25316 v -2.307353 l 2.42775,2.351278 h 0.39843 v -4.772835 h -1.25625 v 2.301668 l -2.41898,-2.343009 z m 25.50594,0.0031 v 4.764567 h 1.25315 v -1.871203 l 1.27383,1.792138 h 0.009 l 1.27124,-1.792138 v 1.871203 h 1.25316 v -4.764567 h -0.50385 l -2.02623,2.776058 -2.02675,-2.776058 z m -35.5384,0.04392 0.006,4.720642 h 1.25367 v -2.050004 l 1.26194,2.050004 h 1.4671 l -1.26504,-1.894975 c 0.46267,-0.21084 0.817,-0.7028 0.817,-1.291394 0,-0.846288 -0.72915,-1.534273 -1.74821,-1.534273 z m 25.99169,0 0.006,4.720642 h 1.25315 v -2.050004 l 1.26245,2.050004 h 1.46658 l -1.26504,-1.894975 c 0.46268,-0.21084 0.81701,-0.7028 0.81701,-1.291394 0,-0.846288 -0.72917,-1.534273 -1.74822,-1.534273 z m -50.84547,0.658875 v 1.575614 h 2.46703 v -1.575614 z m 2.77657,0 v 1.575614 h 2.46652 v -1.575614 z m 28.90315,0.40721 c 0.74966,0 1.32343,0.56224 1.32343,1.291394 0,0.726226 -0.57377,1.285193 -1.32343,1.285193 -0.74965,0 -1.32343,-0.558967 -1.32343,-1.285193 0,-0.729154 0.57378,-1.291394 1.32343,-1.291394 z m 10.49238,0 c 0.74966,0 1.32344,0.56224 1.32344,1.291394 0,0.726226 -0.57378,1.285193 -1.32344,1.285193 -0.74965,0 -1.32395,-0.558967 -1.32395,-1.285193 0,-0.729154 0.5743,-1.291394 1.32395,-1.291394 z m -16.06517,0.0615 h 0.51263 c 0.26355,0 0.50953,0.181557 0.50953,0.47439 0,0.289905 -0.24305,0.477317 -0.50953,0.474389 l -0.51263,-0.0031 z m 25.99221,0 h 0.51212 c 0.26355,0 0.50953,0.181557 0.50953,0.47439 0,0.289905 -0.24305,0.477317 -0.50953,0.474389 l -0.51212,-0.0031 z m 5.3294,1.007174 0.48317,1.118794 h -0.96945 z m 10.98692,0 0.48318,1.118794 h -0.96894 z m -60.68467,0.257348 c 0.0272,0.01171 2.6585,1.54431 1.9079,2.516642 -0.25639,0.309625 -0.47057,0.552616 -2.26085,0.888318 -1.84405,0.349332 -4.46743,0.459131 -6.34069,0.482141 1.25959,-0.276739 3.34764,-0.873669 4.34598,-1.533239 0.98102,-0.636621 1.77058,-1.428258 2.34766,-2.353345 z m -7.77006,0.152446 -0.7457,2.495455 h 2.95745 c 0.0676,-0.613669 0.20835,-1.8874 0.27595,-2.495455 z m 9.64178,2.828251 0.0847,0.466121 c 0.0229,0.08376 0.0415,0.167895 0.0455,0.254765 0.0167,0.298453 -0.1092,0.598496 -0.33383,0.798918 -0.1607,0.14519 -0.3706,0.236111 -0.58653,0.252181 -0.14953,0.01578 -9.38295,-0.0025 -9.51828,0.0041 -0.0478,0 -0.095,-0.004 -0.14211,-0.01034 -0.14334,-0.01987 -0.27992,-0.07066 -0.40153,-0.148828 -0.23082,-0.148924 -0.38783,-0.385255 -0.44183,-0.646472 0.0236,0.01366 0.0476,0.02728 0.0718,0.04031 0.18552,0.09618 0.39408,0.144211 0.60255,0.145211 1.37314,0 2.73551,0.0021 3.92431,-0.03256 0.52443,-0.01635 5.49349,-0.195947 6.69519,-1.123445 z m -10.78177,1.998844 5.2e-4,10e-4 c 0.12969,0.04969 0.26729,0.07777 0.40566,0.08527 0.0223,9.76e-4 0.045,0.0021 0.0667,0.0021 h 9.43302 c 0.1607,-6e-4 0.32341,-0.02973 0.47232,-0.08682 v 0.101286 c 0,0.33383 -0.27182,0.605648 -0.60565,0.605648 l -9.16688,-5.17e-4 c -0.33382,0 -0.60565,-0.271822 -0.60565,-0.605647 z" /><path
         id="rect3"
         style="baseline-shift:baseline;display:inline;overflow:visible;vector-effect:none;fill:#00cc00;fill-opacity:1;stroke:none;paint-order:stroke fill markers;enable-background:accumulate;stop-color:#000000"
         d="m 392.41369,-96.144519 c -7.21849,0 -13.03951,5.822567 -13.03951,13.041064 0,7.218498 5.82102,13.041065 13.03951,13.041065 h 82.69521 c 7.2185,0 13.04107,-5.822567 13.04107,-13.041065 0,-7.218497 -5.82257,-13.041064 -13.04107,-13.041064 z m 0,0.699182 h 82.69521 c 6.84281,0 12.33982,5.499077 12.33982,12.341882 0,6.842806 -5.49701,12.339816 -12.33982,12.339816 h -82.69521 c -6.8428,0 -12.33981,-5.49701 -12.33981,-12.339816 0,-6.842805 5.49701,-12.341882 12.33981,-12.341882 z m -5.2e-4,1.654163 c -5.898,0 -10.68565,4.789717 -10.68565,10.687719 0,5.898003 4.78765,10.687203 10.68565,10.687203 5.898,0 10.68772,-4.7892 10.68772,-10.687203 0,-5.898002 -4.78972,-10.687719 -10.68772,-10.687719 z m 0,0.701249 c 5.5197,0 9.98802,4.466776 9.98802,9.98647 0,5.519695 -4.46832,9.986471 -9.98802,9.986471 -5.51969,0 -9.98647,-4.466776 -9.98647,-9.986471 0,-5.519694 4.46678,-9.98647 9.98647,-9.98647 z m 0.001,3.183785 -7.17424,4.140316 v 5.323189 l 7.17424,4.141349 7.17424,-4.141866 v -5.322672 z m 0,0.432532 6.60941,3.816821 -6.60941,3.816821 -2.29754,-1.327051 0.61909,-0.357084 1.67845,0.96945 5.37176,-3.101619 -5.37176,-3.102137 -5.37177,3.102137 1.67897,0.969966 -0.6196,0.356568 -2.29754,-1.326534 z m 78.09704,3.233911 c -0.33383,0 -0.73226,0.172944 -0.85525,0.784965 l 0.57103,0.1757 c 0.0469,-0.202055 0.12298,-0.366386 0.2899,-0.366386 0.26062,0 0.42169,0.380855 0.91364,0.380855 0.31626,0 0.72933,-0.158302 0.85525,-0.784965 l -0.56844,-0.1757 c -0.0498,0.202055 -0.12886,0.363285 -0.28991,0.363285 -0.2577,0 -0.42719,-0.377754 -0.91622,-0.377754 z m -84.89508,0.907955 2.29754,1.326534 v 2.340942 l 2.01279,1.16272 v -2.340943 l 2.29754,1.326534 v 4.6731 l -6.6089,-3.814754 z m 13.59607,0 v 4.673616 l -6.60993,3.815788 v -4.672583 z m 71.75841,0.386539 c -1.4671,0 -2.59157,1.074526 -2.59157,2.491838 0,1.405598 1.1219,2.474268 2.58899,2.474268 1.47002,0 2.59416,-1.06867 2.59416,-2.474268 0,-1.417312 -1.12449,-2.491838 -2.59158,-2.491838 z m -16.81137,0.01137 c -1.46416,0 -2.60036,1.133437 -2.60036,2.480469 0,1.347031 1.13308,2.465483 2.63239,2.465483 1.34117,0 2.42466,-0.928282 2.42466,-2.363164 0,-0.149345 -0.0142,-0.301273 -0.0377,-0.459403 h -2.42208 v 0.933793 h 1.08056 c -0.0176,0.450962 -0.42427,0.726571 -0.99529,0.726571 -0.87264,0 -1.40301,-0.644578 -1.40301,-1.306381 0,-0.729154 0.61806,-1.305863 1.32085,-1.305863 0.34848,0 0.72605,0.15813 0.9896,0.40411 l 0.69401,-0.95188 c -0.38946,-0.360184 -1.0833,-0.61495 -1.68361,-0.623735 z m -42.20001,0.0031 c -1.47002,0 -2.60036,1.07487 -2.60036,2.471684 0,1.481735 1.2442,2.465482 2.57659,2.465482 0.71744,0 1.31792,-0.284048 1.76888,-0.694014 l -0.71468,-0.95188 c -0.30454,0.272335 -0.65887,0.45992 -1.0542,0.45992 -0.67351,0 -1.30587,-0.538641 -1.30587,-1.270723 0,-0.723298 0.60599,-1.276925 1.33222,-1.276925 0.34847,0 0.73225,0.172599 1.02216,0.436149 l 0.72037,-0.925008 c -0.48317,-0.43925 -1.13602,-0.7059 -1.74511,-0.714685 z m 32.93184,0.04082 c -0.89607,0 -1.67225,0.582911 -1.67225,1.399915 0,0.711584 0.51263,1.103981 1.11001,1.361674 0.46268,0.204983 0.94568,0.418923 0.94568,0.661975 0,0.19327 -0.26062,0.289905 -0.5271,0.289905 -0.39532,0 -0.76138,-0.1757 -0.95757,-0.465605 l -0.75809,0.743624 c 0.23719,0.521243 0.94275,0.86403 1.71876,0.86403 0.94585,0 1.78335,-0.559312 1.78335,-1.458309 0,-0.696943 -0.48886,-1.147906 -1.2268,-1.458309 -0.50953,-0.213768 -0.84336,-0.284049 -0.84336,-0.500745 0,-0.161058 0.18415,-0.293005 0.44184,-0.293005 0.22548,0 0.58859,0.108176 0.72915,0.357084 l 0.72347,-0.696598 c -0.18448,-0.465605 -0.74672,-0.805636 -1.46709,-0.805636 z m 17.71054,0 c -0.89607,0 -1.67225,0.582911 -1.67225,1.399915 0,0.711584 0.51263,1.103981 1.11001,1.361674 0.46268,0.204983 0.94568,0.418923 0.94568,0.661975 0,0.19327 -0.26062,0.289905 -0.5271,0.289905 -0.39532,0 -0.76136,-0.1757 -0.95756,-0.465605 l -0.75809,0.743624 c 0.23719,0.521243 0.94274,0.86403 1.71875,0.86403 0.94585,0 1.78336,-0.559312 1.78336,-1.458309 0,-0.696943 -0.48886,-1.147906 -1.2268,-1.458309 -0.50953,-0.213768 -0.84336,-0.284049 -0.84336,-0.500745 0,-0.161058 0.18414,-0.293005 0.44183,-0.293005 0.22548,0 0.5886,0.108176 0.72916,0.357084 l 0.72347,-0.696598 c -0.18448,-0.465605 -0.74673,-0.805636 -1.4671,-0.805636 z m 16.94626,0 c -0.89607,0 -1.67174,0.582911 -1.67174,1.399915 0,0.711584 0.51212,1.103981 1.1095,1.361674 0.46267,0.204983 0.94619,0.418923 0.94619,0.661975 0,0.19327 -0.26062,0.289905 -0.5271,0.289905 -0.39533,0 -0.76136,-0.1757 -0.95756,-0.465605 l -0.75861,0.743624 c 0.23719,0.521243 0.94275,0.86403 1.71876,0.86403 0.94585,0 1.78335,-0.559312 1.78335,-1.458309 0,-0.696943 -0.48886,-1.147906 -1.2268,-1.458309 -0.50953,-0.213768 -0.84336,-0.284049 -0.84336,-0.500745 0,-0.161058 0.18466,-0.293005 0.44235,-0.293005 0.22548,0 0.5886,0.108176 0.72916,0.357084 l 0.72295,-0.696598 c -0.18448,-0.465605 -0.74672,-0.805636 -1.46709,-0.805636 z m -63.4659,0.01189 -2.19314,4.779036 h 1.37045 l 0.2403,-0.550354 h 1.76268 l 0.2372,0.550354 h 1.37356 l -2.19625,-4.779036 z m 11.77499,0 -2.19314,4.779036 h 1.37046 l 0.23977,-0.550354 h 1.7632 l 0.2372,0.550354 h 1.37304 l -2.19625,-4.779036 z m -8.51265,0.05839 v 4.720642 h 1.25315 v -4.720642 z m 1.80402,0 1.41697,2.269629 -1.49603,2.451013 h 1.44332 l 0.79065,-1.393713 0.79375,1.393713 h 1.44384 l -1.50224,-2.454114 1.42317,-2.266528 h -1.43505 l -0.72037,1.247469 -0.72347,-1.247469 z m 13.34131,0 -1.54048,0.0031 v 4.717541 h 1.54048 c 1.60473,0 2.58588,-0.890213 2.58588,-2.354378 0,-1.475879 -0.98115,-2.372121 -2.58588,-2.366263 z m 3.20083,0 v 4.720642 h 3.05976 v -1.174088 h -1.82107 v -0.676445 h 1.49913 v -1.045414 h -1.49913 v -0.658875 h 1.82107 v -1.16582 z m 9.37618,0 v 3.004468 c 0,1.083482 0.8785,1.847949 1.95905,1.847949 1.08056,0 1.95905,-0.764467 1.95905,-1.847949 v -3.004468 h -1.26194 v 3.001884 c 0,0.38654 -0.34537,0.652673 -0.6997,0.652673 -0.35725,0 -0.69401,-0.260277 -0.69401,-0.652673 v -3.001884 z m 10.16423,0 v 4.720642 h 3.06028 v -1.174088 h -1.82159 v -0.676445 h 1.49965 v -1.045414 h -1.49965 v -0.658875 h 1.82159 v -1.16582 z m 7.30033,0 v 1.171505 h 1.13327 v 3.549137 h 1.25625 v -3.549137 h 1.13068 v -1.171505 z m 9.64644,0 v 4.720642 h 3.05976 v -1.174088 h -1.82107 v -0.676445 h 1.49913 v -1.045414 h -1.49913 v -0.658875 h 1.82107 v -1.16582 z m -85.26818,0.457853 v 1.906861 l -0.61908,0.356567 v -1.90686 z m 82.06166,0.608232 c 0.74965,0 1.32343,0.562239 1.32343,1.291394 0,0.726225 -0.57378,1.28571 -1.32343,1.28571 -0.74966,0 -1.32395,-0.559485 -1.32395,-1.28571 0,-0.729155 0.57429,-1.291394 1.32395,-1.291394 z m -36.80086,0.10542 h 0.28733 c 0.84629,0 1.36167,0.450791 1.36167,1.191658 0,0.732083 -0.5128,1.177189 -1.35031,1.177189 h -0.29869 z m -17.78961,0.963249 0.48318,1.118794 h -0.96894 z m 11.77499,0 0.48318,1.118794 h -0.96945 z m -39.11285,0.586527 0.51004,0.294039 v 0.652673 l -1.0759,-0.620634 z" /></g></g></svg>
