<?xml version="1.0" encoding="UTF-8" standalone="no"?>
<!-- Created with Inkscape (http://www.inkscape.org/) -->

<svg
   viewBox="0 0 132.29166 18.787861"
   version="1.1"
   id="svg1"
   xml:space="preserve"
   xmlns:inkscape="http://www.inkscape.org/namespaces/inkscape"
   xmlns:sodipodi="http://sodipodi.sourceforge.net/DTD/sodipodi-0.dtd"
   xmlns:xlink="http://www.w3.org/1999/xlink"
   xmlns="http://www.w3.org/2000/svg"
   xmlns:svg="http://www.w3.org/2000/svg"><sodipodi:namedview
     id="namedview1"
     pagecolor="#505050"
     bordercolor="#eeeeee"
     borderopacity="1"
     inkscape:showpageshadow="0"
     inkscape:pageopacity="0"
     inkscape:pagecheckerboard="0"
     inkscape:deskcolor="#505050"
     inkscape:document-units="mm"
     showguides="true"><inkscape:page
       x="0"
       y="0"
       width="132.29166"
       height="18.787861"
       id="page550"
       margin="0"
       bleed="0" /></sodipodi:namedview><defs
     id="defs1"></defs><g
     inkscape:label="Agregador de Links"
     inkscape:groupmode="layer"
     id="layer1"
     inkscape:highlight-color="#002400"
     transform="translate(-606.44378,-41.866475)"><path
       id="text242-9-9"
       style="font-size:3.08628px;line-height:1;font-family:'LEMON MILK';-inkscape-font-specification:'LEMON MILK';text-align:center;letter-spacing:0px;text-orientation:upright;text-anchor:middle;fill:#00cc00;fill-opacity:1;stroke-width:2.64871;stroke-miterlimit:2.5"
       inkscape:highlight-color="#00cc00"
       inkscape:label="copyright"
       d="m 611.24194,41.866474 c -2.68828,0 -4.79816,2.128821 -4.79816,4.78717 0,2.676579 2.12173,4.810721 4.79816,4.810721 2.64027,0 4.79502,-2.114201 4.79502,-4.802873 0,-2.634134 -2.10037,-4.795018 -4.79502,-4.795018 z m 59.51539,0 v 9.597891 h 1.4743 v -5.215803 l 3.12445,5.058793 h 0.0122 l 3.11819,-5.05251 v 5.20952 h 1.4743 v -9.597891 h -0.11151 l -4.4873,6.829841 -4.49354,-6.829841 z m 21.78485,0.01094 -4.41821,9.586898 h 1.59677 l 0.64217,-1.428773 h 4.44644 l 0.6406,1.428773 h 1.59677 l -4.41661,-9.586898 z m -33.29039,0.0237 c -1.69013,0 -3.02397,1.072643 -3.02397,2.61104 0,1.474299 1.22379,2.046189 2.32529,2.535679 1.09567,0.47201 2.33158,0.995418 2.33158,1.863682 0,0.716756 -0.79937,1.22466 -1.85427,1.22466 -0.90334,0 -1.6843,-0.419772 -2.10392,-1.154008 l -1.16497,0.832141 c 0.53617,1.083873 1.70718,1.807161 3.25161,1.807161 1.90573,0 3.35214,-1.071622 3.35214,-2.738216 0,-1.480123 -1.15473,-2.19704 -2.64088,-2.849692 -1.14231,-0.489489 -2.01129,-0.752632 -2.01129,-1.486864 0,-0.66431 0.68872,-1.19954 1.55126,-1.19954 0.68189,0 1.32892,0.355546 1.62032,0.990718 l 1.09591,-0.758347 c -0.38465,-1.031426 -1.38837,-1.678414 -2.72881,-1.678414 z m 76.37175,0 c -1.69014,0 -3.02397,1.072643 -3.02397,2.61104 0,1.474299 1.22379,2.046189 2.32529,2.535679 1.09567,0.47201 2.33,0.995418 2.33,1.863682 0,0.716756 -0.79782,1.22466 -1.85269,1.22466 -0.90334,0 -1.6843,-0.419772 -2.10392,-1.154008 l -1.16497,0.832141 c 0.5362,1.083873 1.70715,1.807161 3.25161,1.807161 1.90576,0 3.35056,-1.071622 3.35056,-2.738216 0,-1.480123 -1.15315,-2.19704 -2.6393,-2.849692 -1.14231,-0.489489 -2.01129,-0.752632 -2.01129,-1.486864 0,-0.66431 0.68711,-1.19954 1.54968,-1.19954 0.68188,0 1.32892,0.355546 1.62032,0.990718 l 1.09591,-0.758347 c -0.38465,-1.031426 -1.38676,-1.678414 -2.72723,-1.678414 z m -24.25613,0.0064 c -2.67509,0 -4.85467,2.191416 -4.85467,4.871954 0,2.657234 2.17912,4.835841 4.84838,4.835841 2.67509,0 4.86724,-2.178607 4.86724,-4.835841 0,-2.680538 -2.19169,-4.871954 -4.86095,-4.871954 z m -87.3513,0.0237 c -1.81252,0 -3.27518,1.387057 -3.27518,3.152715 l 1.34553,0.326577 c 0,-1.130489 0.88108,-2.00499 1.97674,-2.00499 0.89751,0 1.76005,0.78585 1.76005,1.846412 0,1.142144 -1.57316,2.767977 -5.43716,5.897215 v 0.315587 h 7.04022 v -1.468024 h -3.90477 c 2.12726,-1.35775 3.7823,-3.194337 3.7823,-4.820142 0,-1.730697 -1.44607,-3.24535 -3.28773,-3.24535 z m 8.14714,0 c -2.28458,0 -3.83414,2.00379 -3.83414,4.835841 0,2.826218 1.54956,4.831132 3.83414,4.831132 2.28458,0 3.83568,-2.004914 3.83568,-4.831132 0,-2.832051 -1.5511,-4.835841 -3.83568,-4.835841 z m 8.37008,0 c -1.81252,0 -3.27518,1.387057 -3.27518,3.152715 l 1.34554,0.326577 c 0,-1.130489 0.87946,-2.00499 1.97516,-2.00499 0.89751,0 1.76008,0.78585 1.76008,1.846412 0,1.142144 -1.5732,2.767977 -5.4372,5.897215 v 0.315587 h 7.04023 v -1.468024 h -3.90478 c 2.12723,-1.35775 3.78233,-3.194337 3.78233,-4.820142 0,-1.730697 -1.44449,-3.24535 -3.28618,-3.24535 z m 7.47671,0.139731 c -2.71006,4.85411 -3.16529,5.297165 -3.16529,6.404348 0,1.841411 1.45191,3.111895 3.28776,3.111895 1.8533,0 3.32228,-1.475161 3.32228,-3.182548 0,-1.759836 -1.41599,-2.959598 -2.8905,-2.959598 -0.31471,0 -0.63586,0.05773 -0.93893,0.174276 l 2.0568,-3.542096 z m 15.61914,0 v 9.393779 h 5.59576 V 49.9967 h -4.12147 v -2.600051 h 3.55468 v -1.468021 h -3.55468 v -2.406931 h 4.12147 V 42.07092 Z m 18.13754,0 v 9.393779 h 5.59418 V 49.9967 h -4.11989 v -2.600051 h 3.55468 v -1.468021 h -3.55468 v -2.406931 h 4.11989 V 42.07092 Z m 16.3241,0 v 9.393779 h 2.67543 c 2.98396,0 4.84212,-1.80062 4.84212,-4.685115 0,-2.907801 -1.85816,-4.714491 -4.84212,-4.708664 z m 19.4894,0 0.006,9.393779 h 1.47433 V 47.82842 h 1.154 l 2.5294,3.636304 h 1.81185 l -2.73333,-3.759102 c 1.07817,-0.349634 1.85898,-1.405251 1.85898,-2.617321 0,-1.672422 -1.43256,-3.01769 -3.18097,-3.01769 z m 7.96657,0 v 9.393779 h 5.59577 V 49.9967 h -4.12147 v -2.600051 h 3.55467 v -1.468021 h -3.55467 v -2.406931 h 4.12147 V 42.07092 Z m -114.30485,0.558948 c 2.20427,0 4.0257,1.823236 4.0257,4.033529 0,2.210233 -1.82143,4.025682 -4.0257,4.025682 -2.1982,0 -4.0288,-1.821496 -4.0288,-4.025682 0,-2.204247 1.81844,-4.033529 4.0288,-4.033529 z m 100.11918,0.763056 c 1.85332,0 3.37411,1.515203 3.37411,3.3741 0,1.847239 -1.52079,3.356827 -3.37411,3.356827 -1.85332,0 -3.36311,-1.509588 -3.36311,-3.356827 0,-1.858897 1.50979,-3.3741 3.36311,-3.3741 z m -79.20258,0.01884 c 1.4162,0 2.35981,1.391471 2.35981,3.355259 0,1.957957 -0.94361,3.345835 -2.35981,3.345835 -1.42204,0 -2.36142,-1.387878 -2.36142,-3.345835 0,-1.963788 0.93938,-3.355259 2.36142,-3.355259 z m 67.40187,0.122473 h 1.19955 c 2.06315,0 3.35682,1.246147 3.35682,3.239072 0,1.981267 -1.28802,3.223371 -3.33953,3.223371 h -1.21684 z m 19.49411,0 h 1.48059 c 0.8742,0 1.62502,0.645748 1.62502,1.519836 0,0.839127 -0.73918,1.555494 -1.62502,1.549666 h -1.48059 z m -107.71837,0.116184 c -1.58659,0 -2.96746,1.284491 -2.96746,2.980007 0,1.701623 1.38087,2.973729 2.96746,2.973729 0.72069,0 1.43064,-0.26588 1.94533,-0.701826 l -0.68456,-0.904364 c -0.30079,0.284383 -0.77616,0.485153 -1.26077,0.485153 -0.96891,0 -1.84013,-0.780876 -1.84013,-1.852692 0,-1.071756 0.86721,-1.854261 1.84797,-1.854261 0.47215,0 0.94363,0.187918 1.23409,0.472594 l 0.63589,-0.943619 c -0.51438,-0.405976 -1.19329,-0.654721 -1.87782,-0.654721 z m 81.25313,1.450752 1.64857,3.670843 h -3.30344 z m -44.42693,1.474301 c 1.00239,0 1.82914,0.810457 1.82914,1.783611 0,0.932363 -0.83301,1.758488 -1.83543,1.758488 -1.00825,0 -1.83543,-0.821413 -1.83543,-1.753778 0,-0.978979 0.83346,-1.788321 1.84172,-1.788321 z m 50.65699,7.732638 v 6.170409 h 0.94677 V 57.12483 l 2.00812,3.251633 2.00342,-3.246924 v 3.34898 h 0.94834 V 54.30811 h -0.0723 l -2.88425,4.389939 -2.8905,-4.389939 z m 7.07636,0 v 6.170409 h 0.94831 V 57.12483 l 2.00812,3.251633 2.00658,-3.246924 v 3.34898 h 0.94676 V 54.30811 h -0.0738 l -2.88425,4.389939 -2.88737,-4.389939 z m 9.42203,0.0079 -2.8387,6.164125 h 1.02682 l 0.41138,-0.918495 h 2.85754 l 0.41293,0.918495 h 1.02524 l -2.8387,-6.164125 z m -35.04728,0.02188 c -1.69658,0 -3.11661,1.426795 -3.11661,3.127598 0,1.70454 1.42021,3.113463 3.13229,3.113463 0.89872,0 1.56116,-0.392859 2.08192,-0.905935 l -0.54637,-0.764627 c -0.41564,0.412234 -0.94707,0.719095 -1.56536,0.719095 -1.08254,0 -2.14317,-0.939724 -2.14317,-2.157287 0,-1.210028 1.04593,-2.171418 2.14001,-2.171418 0.59217,0 1.14371,0.282014 1.56694,0.704965 l 0.54795,-0.744217 c -0.59216,-0.57694 -1.31433,-0.910395 -2.0976,-0.921637 z m 38.6145,0 v 6.151568 h 0.94676 v -3.939327 l 3.86394,4.036671 h 0.0456 v -6.159416 h -0.95147 v 3.936186 l -3.8561,-4.025682 z m -33.61852,0.105186 v 6.038522 h 3.59548 v -0.943886 h -2.64872 v -1.670566 h 2.28446 v -0.945186 h -2.28446 v -1.548096 h 2.64872 V 54.4428 Z m 8.97142,0 v 6.038522 h 3.59548 v -0.943886 h -2.64714 v -1.670566 h 2.28604 v -0.945186 h -2.28604 v -1.548096 h 2.64714 V 54.4428 Z m 30.60713,0 v 3.749349 c 0,1.386128 0.99671,2.402219 2.28129,2.402219 1.2852,0 2.28604,-1.016091 2.28604,-2.402219 v -3.749349 h -0.95618 v 3.746208 c 0,0.835438 -0.59656,1.446042 -1.33456,1.446042 -0.73831,0 -1.32515,-0.610604 -1.32515,-1.446042 v -3.746208 z m 5.66953,0 v 6.038522 h 3.59548 v -0.943886 h -2.6503 v -1.670566 h 2.28604 v -0.945186 h -2.28604 v -1.548096 h 2.6503 V 54.4428 Z m 4.57992,0 v 6.038522 h 3.64102 v -0.943886 h -2.69268 V 54.4428 Z m -19.74528,1.948469 1.0582,2.359828 h -2.12273 z m -31.73601,2.990999 c -0.35001,0 -0.63746,0.289184 -0.63746,0.63745 0,0.348462 0.28925,0.634313 0.63746,0.634313 0.35001,0 0.63589,-0.285599 0.63589,-0.634313 0,-0.34442 -0.2935,-0.63745 -0.63589,-0.63745 z m 6.72464,0 c -0.35001,0 -0.63588,0.289184 -0.63588,0.63745 0,0.348462 0.28803,0.634313 0.63588,0.634313 0.35002,0 0.63747,-0.285599 0.63747,-0.634313 0,-0.34442 -0.29532,-0.63745 -0.63747,-0.63745 z" /></g></svg>
