<?xml version="1.0" encoding="UTF-8" standalone="no"?>
<!-- Created with Inkscape (http://www.inkscape.org/) -->

<svg
   width="264.58334mm"
   height="264.58319mm"
   viewBox="0 0 264.58334 264.58319"
   version="1.1"
   id="svg1"
   xmlns="http://www.w3.org/2000/svg"
   xmlns:svg="http://www.w3.org/2000/svg">
  <defs
     id="defs1" />
  <g
     id="layer1"
     transform="translate(54.504192,-1148.8208)">
    <g
       id="g1">
      <path
         id="path43-2"
         style="display:inline;fill:none;fill-opacity:1;stroke:none;stroke-width:2.36441"
         d="m -54.50416,1148.8208 h 264.58334 v 264.5833 H -54.50416 Z" />
      <path
         id="path51-4-5"
         style="font-weight:bold;font-size:35.2777px;line-height:0;font-family:'LEMON MILK';-inkscape-font-specification:'LEMON MILK Bold';text-align:center;letter-spacing:0px;text-orientation:upright;text-anchor:middle;fill:#00cc00;fill-opacity:1;stroke:none;stroke-width:0.460318;stroke-miterlimit:2.5"
         d="m 82.48715,1168.6896 -14.7885,0.2726 0.42017,22.8125 14.78857,-0.272 -0.10472,-5.6753 -8.80223,0.1624 -0.0603,-3.2691 7.24597,-0.1333 -0.0933,-5.0527 -7.24588,0.1339 -0.0586,-3.1843 8.80267,-0.1625 z m 13.93283,1.6402 c -3.66672,-0.087 -6.96809,1.9246 -7.60778,5.3202 -0.63674,3.3801 1.4463,5.7027 4.05327,7.4613 2.01427,1.3877 4.11817,2.8354 3.90063,3.9899 -0.17288,0.9181 -1.49722,1.1441 -2.76305,0.9056 -1.87783,-0.3537 -3.45919,-1.516 -4.1317,-3.0687 l -4.26856,2.8544 c 0.66028,2.6882 3.70594,4.9473 7.39205,5.6417 4.49282,0.8464 8.97141,-1.0608 9.77588,-5.331 0.62365,-3.3106 -1.29538,-5.8904 -4.52281,-8.0251 -2.22904,-1.4714 -3.75196,-2.1041 -3.55804,-3.1334 0.1441,-0.765 1.13809,-1.2261 2.36212,-0.9954 1.07103,0.2017 2.69884,1.0417 3.14382,2.3498 l 4.05964,-2.6633 c -0.45963,-2.3767 -2.82622,-4.4935 -6.248,-5.1381 -0.53203,-0.1002 -1.06363,-0.1554 -1.58747,-0.1679 z m -43.44465,1.387 c -0.83937,-0.018 -1.71632,0.076 -2.61344,0.2948 l -8.41516,2.0564 5.44466,22.1579 5.88464,-1.4383 -2.35229,-9.6248 8.2783,8.1766 6.88898,-1.6837 -8.11395,-7.4444 c 1.9305,-1.5209 3.02963,-4.2373 2.35427,-7.001 -0.78912,-3.2285 -3.71877,-5.4145 -7.35601,-5.4935 z m 62.24056,3.8681 a 1.433222,1.433222 0 0 0 -0.41129,2.8099 c -0.012,0 0.15333,0.033 1.11293,0.3595 1.00287,0.3416 2.648,0.9392 4.78448,1.8447 0.87789,0.3721 1.90161,0.8243 3.04841,1.3622 5.93472,2.7839 13.27143,6.9554 20.98272,12.9049 6.05555,4.6721 12.55936,10.7219 18.62603,18.0523 1.64444,1.987 3.50728,4.3627 5.4619,7.1303 4.36276,6.1773 8.42974,13.2431 11.88228,21.3654 3.4254,8.0582 5.392,15.175 6.48157,19.7177 -0.91883,-4.5781 -2.57473,-11.7847 -5.65056,-20.0491 -3.09745,-8.3222 -6.87544,-15.6949 -11.03351,-22.1662 -1.86456,-2.9018 -3.66587,-5.4042 -5.27583,-7.4893 -6.02685,-7.8057 -12.46825,-13.8888 -18.72911,-18.8215 -7.81048,-6.1536 -15.46074,-10.4316 -21.52982,-13.2495 -1.1824,-0.549 -2.2394,-1.0127 -3.14573,-1.3968 -2.20586,-0.9348 -3.91632,-1.5564 -4.97909,-1.9183 -1.01708,-0.3464 -1.22755,-0.396 -1.23927,-0.3994 a 1.433222,1.433222 0 0 0 -0.38611,-0.057 z m -62.9822,1.6719 c 1.01088,0.018 1.9617,0.6047 2.23473,1.7216 0.33268,1.3614 -0.59357,2.5199 -1.84809,2.812 l -2.40953,0.5743 -1.08535,-4.4409 2.40608,-0.5885 c 0.2321,-0.056 0.46885,-0.083 0.70216,-0.078 z m -24.12103,3.514 c -1.99357,0.078 -4.03327,0.6416 -5.96609,1.7257 -6.18483,3.4692 -8.38423,10.6588 -5.03286,16.6337 3.32379,5.9255 10.57922,7.7792 16.76406,4.31 6.19716,-3.476 8.41043,-10.641 5.08673,-16.5666 -2.30412,-4.1076 -6.46597,-6.276 -10.85184,-6.1028 z m -0.0923,5.8821 c 2.25025,-0.071 4.39258,1.0689 5.578,3.1823 1.71718,3.0616 0.62037,6.7762 -2.53992,8.5489 -3.16028,1.7726 -6.90277,0.772 -8.62003,-2.2895 -1.72416,-3.0739 -0.63373,-6.8014 2.52655,-8.5741 0.98761,-0.554 2.03254,-0.8356 3.0554,-0.8676 z m -23.07127,12.2289 c -2.91681,0.1462 -5.8787,1.6117 -8.59582,4.3792 l -5.22548,5.3034 16.21306,16.0348 5.23523,-5.2936 c 5.4544,-5.5149 5.72907,-11.9124 0.69725,-16.889 -2.53604,-2.5082 -5.40751,-3.681 -8.32424,-3.5348 z m 0.36785,6.1128 c 1.30425,0.053 2.56258,0.6279 3.67646,1.7296 2.51595,2.4883 2.30402,5.7626 -0.54264,8.6408 l -1.01519,1.0264 -8.14153,-8.0522 0.97521,-0.9865 c 1.61798,-1.636 3.37076,-2.4272 5.04769,-2.3581 z m 125.27308,17.2705 -0.47798,1.7786 -1.9118,-1.1855 -0.95641,1.1855 -1.91187,0.593 -2.38979,1.7786 -1.43431,-1.1856 0.4779,2.371 h -2.38978 l 0.47799,1.7785 -1.91187,-0.593 -0.95642,2.3716 v 3.5569 h -0.9559 l -0.4779,-2.3715 h -0.95597 l -3.8241,4.7426 -1.91188,-5.3351 -2.39021,3.5566 -1.43389,-0.5926 0.9559,2.3711 -3.34619,-2.964 -0.478,4.7425 0.95599,2.3715 -7.16986,-2.964 -0.47799,1.778 c -2.01677,-0.4156 -3.50082,-0.1087 -4.30209,2.3715 l -2.38978,-0.5929 -0.47851,-2.9641 -5.73597,-0.5925 -1.91179,4.1495 -1.91231,-1.1855 -0.47799,2.371 -1.43388,-1.7784 -2.86769,-1.1856 0.4779,2.964 -0.4779,2.9641 -1.4344,1.186 1.9123,1.1855 v 0.593 l -1.43431,-0.593 3.34619,3.557 v 0.5925 l -5.25807,-2.964 -0.47791,1.7785 -4.30208,-2.964 0.47791,3.557 -1.91179,-0.593 -0.47852,3.557 -3.34567,-1.1854 v 2.964 l -4.78008,-1.1856 1.43389,4.1495 c -1.91101,0.3454 -2.81278,1.2443 -3.34619,3.5571 l 3.82418,1.1856 c -0.81101,1.4885 -3.04678,4.4281 -0.95598,4.7425 v 0.5929 l -0.9559,1.7786 -4.30208,-1.1861 0.95589,-3.5564 -3.8241,1.1854 -0.95597,7.7066 h -4.30209 l -3.3462,4.15 0.95641,5.9281 h -1.9123 l 1.4344,2.964 -4.78007,1.1855 v 0.593 l 3.34567,5.3355 1.4344,1.1856 4.30209,-1.1856 -4.7806,2.9641 0.47851,1.7785 -4.30217,1.7785 1.91187,1.7785 -0.95589,1.7785 1.43379,3.5566 -0.57176,1.0665 c 0.0551,0.2825 -0.42308,0.8503 -0.34164,1.4091 l -0.0422,0.4889 v 1.778 l -3.34619,2.3715 v 1.1856 h 2.86829 l 0.56089,3.4829 3.2632,-0.5189 v 2.3714 l 0.9559,-0.5929 v 3.5569 h 3.34619 l 1.91187,-1.1854 -0.47798,2.371 4.30209,1.7785 -0.47791,1.7785 h 0.95589 l -0.47798,1.7786 1.43388,-0.5926 -0.9559,4.1495 4.78008,-2.964 0.9559,1.1855 -1.43389,2.3716 0.47799,2.964 c 1.77872,-0.6387 9.07028,-6.4869 9.56016,-1.7785 l 1.91231,-1.1855 1.43388,4.1495 2.38978,-2.3711 1.43431,2.9641 1.43389,-0.593 -0.95589,1.7785 5.73598,-1.1855 3.34619,-3.557 -0.95642,2.964 2.3903,-1.7785 -0.47799,1.1855 1.43388,-0.5925 -0.47799,2.371 2.38979,-0.5925 -0.9559,3.557 3.34619,-1.7785 c 0.28364,2.0513 2.35281,0.096 3.34619,-0.593 l -0.47799,3.557 2.86778,-4.15 h 0.47798 v 2.3715 l 1.91232,-2.3715 h 0.4779 l 1.43388,1.7785 -0.4779,-4.1495 2.8682,-2.3715 h 0.95589 l 1.43389,2.3715 0.47799,-1.7785 c 9.67901,7.9026 11.89891,32.6526 8.0556,41.6731 -3.84332,9.0204 -13.09587,10.6307 -19.64855,12.4481 10.92768,-1.5275 20.53257,-4.671 28.12888,-7.8922 11.67654,-4.9514 18.6418,-10.1171 18.6418,-10.1171 0,0 -3.47634,-2.5968 -3.77825,-6.7161 -0.30191,-4.1193 -0.31432,-11.1167 2.3167,-18.7237 1.79673,-5.1948 5.21894,-6.4864 7.87047,-10.0792 h 0.47799 c 4.3575,3.3414 11.05377,-6.9499 13.86224,-0.5929 l 1.43388,-0.593 v 1.1859 l 1.91232,0.5926 1.91178,-1.7785 v 2.3715 h 0.47773 l 0.9559,-1.7785 0.47799,2.964 h 0.4779 l 1.24083,-0.6562 1.14947,-2.9008 0.96581,2.9729 1.75433,-1.2838 c 0.11713,-1.8699 -0.0656,-3.044 1.4956,-3.2835 l 0.48677,-0.1002 c 2.45278,-4.8368 6.57327,-11.7138 10.16941,-24.3679 2.54423,-8.9528 3.83814,-17.1298 4.20143,-25.348 l -0.9135,-2.0003 c -0.48885,-2.8289 -0.1023,9.4291 -1.90782,9.5419 l 0.4779,-2.371 -2.38978,0.5925 1.5717,-2.5572 -2.82925,1.2522 -2.08864,3.0835 c 3.33396,-1.1746 -0.8966,3.1814 6.16216,6.5759 -1.7426,3.3936 -3.29388,8.8377 -3.29388,8.8377 l -0.47798,-1.7784 -0.4779,-4.1501 -2.86829,1.7785 0.95589,-2.371 -4.77999,-1.186 -1.43389,0.593 1.91179,-2.964 -1.91179,0.593 1.91179,-2.3715 4.30209,-7.7066 v -0.593 l -1.91179,-2.371 1.43388,-1.7785 -2.86828,0.5924 5.25859,-2.371 v -2.3715 l 3.34567,0.593 0.4779,-2.964 0.47799,-2.3715 h -1.91179 l 0.9559,-2.371 -4.30209,-0.5931 v -0.5929 l 2.39021,-0.5925 -1.43379,-4.1501 -2.39031,-0.5924 -2.38978,0.5924 v -1.1855 l 2.86769,-1.7784 v -0.5931 h -1.91179 v -5.9281 l -1.4344,1.7785 0.95641,-3.5569 -1.43432,-1.1856 -1.91188,1.1856 -0.4779,-1.7785 -1.9123,1.1859 -0.47799,-1.7784 -1.9118,2.964 -1.43389,-0.593 -4.78007,1.1854 1.43388,-4.7425 -2.38977,0.593 c 1.02475,-1.6089 3.9152,-5.9877 1.91179,-6.521 v -0.593 l 1.43388,-0.5925 -1.43388,-1.186 v -0.5925 l 1.91187,-0.5931 v -0.5925 l -1.91187,-1.1859 -3.34619,1.1859 0.95589,-1.7785 -3.82367,0.5926 v -0.5926 l 1.91188,-0.593 0.9559,-1.7785 v -0.593 l -0.9559,-1.1855 1.43388,-0.5925 v -0.593 l -2.86777,0.593 0.9559,-2.3715 -1.43389,1.1855 h -0.47791 l -1.4344,-0.5926 -0.95589,-0.5929 v -3.5571 h -0.478 l -0.95589,2.3716 h -0.4779 l -0.95641,-2.3716 h -0.47799 l -0.478,2.3716 -3.34619,1.1855 0.47851,-2.3711 -2.86829,1.7781 v -1.7781 l -1.91179,0.5925 -0.9564,-3.557 h -0.478 l -0.95589,1.7785 -1.04725,-1.8649 -0.38664,3.0509 -0.9559,-1.186 h -0.4779 v 2.3716 l -4.93168,-2.4111 2.06339,-4.1099 -3.34619,1.7784 0.47799,-3.557 -2.38978,0.593 z m -150.15161,1.7435 -1.41113,2.5029 14.91398,20.5808 3.2538,-5.7701 -1.74786,-2.3181 4.18504,-7.4222 2.88113,0.3081 3.26078,-5.7824 z m 8.53264,6.4524 5.85698,0.6217 -2.30144,4.0809 z m 141.14099,0.6968 2.8682,1.1854 v 4.1501 l -1.4338,-0.593 v 2.371 l -1.9124,2.9645 -2.38978,-3.557 -2.8682,0.5925 -0.9559,-4.7425 c 3.01205,0.2956 4.29666,-0.096 6.69188,-2.371 z m 11.94993,5.928 h 4.3e-4 l 1.43389,2.3715 3.34619,-0.593 0.47799,2.3715 3.8241,-1.186 0.77326,4.1353 2.09451,-1.7638 0.33234,2.1583 4.17814,1.8911 c 1.9586,-1.3524 -0.39671,2.022 1.70391,3.0647 v 1.1855 l -1.91231,0.5925 0.478,1.7785 -3.34568,2.9645 -1.94247,-0.6754 -2.3903,1.7785 0.0302,2.4535 -1.43389,-0.5925 c -0.70932,2.9111 -2.99998,3.6296 -5.25807,4.1495 v 3.557 l -1.91231,0.5931 c -1.42863,-1.6669 -2.41736,-1.7169 -4.30157,-1.1861 l 1.41656,2.4229 c -1.8849,0.5991 -5.98358,5.7286 -6.67505,1.7271 l -1.91189,1.1856 c -2.73986,-3.05 -4.65415,-0.2194 -6.69186,2.3715 v -4.15 l -2.3903,1.7785 0.47799,-1.7785 -1.91188,0.5929 0.95599,-3.557 -1.91188,0.5931 0.95589,-2.3715 c -1.29598,0.3417 -1.62289,0.455 -1.9123,-1.1856 l -4.78008,4.1495 -0.4779,-2.9639 h -0.478 l -1.43388,2.3715 -0.95589,-2.3715 h -0.478 l -0.4779,1.7784 h -3.82418 l -0.9559,-3.557 2.38978,-0.5926 -1.43388,-1.1859 1.43388,-2.371 -0.95589,-1.1861 -6.21396,-1.1854 1.91187,-1.7785 1.43389,-2.3711 -1.91188,-0.593 0.47799,-1.7785 H 99.9978 l 1.43388,-3.557 -1.43388,1.186 v -1.186 l -1.43432,1.186 -0.478,-2.9645 -1.43387,-2.3711 c 1.86222,-0.3556 2.86906,-0.3494 3.82417,1.7786 l 3.8241,0.5925 v -2.3711 l 1.43389,1.7786 h 1.91187 l 0.47791,-1.7786 1.9123,1.1855 h 0.478 l 1.91187,-3.557 7.17029,0.593 -3.3462,4.1496 2.86829,1.186 -0.9564,4.7425 1.43431,1.1855 h 0.47799 c 0.78352,-1.4252 1.9523,-3.0603 2.38978,-0.593 h 0.47791 v 0.593 l 8.60426,-2.964 v 4.7425 h 1.9123 0.47799 l 0.47791,-2.3715 h 0.47799 l -0.9559,4.15 1.4338,0.593 -1.4338,1.1856 1.4338,2.9639 -2.3902,1.7786 1.9123,0.5929 v 0.5926 l -1.43389,1.7786 h 1.91179 l -0.4779,1.7784 2.38978,-2.3715 h 2.3903 v -2.964 h 2.38978 v -2.371 h -4.78008 l 0.47791,-1.7785 5.25858,-1.7786 -3.34619,-2.964 2.86768,0.5925 -1.91178,-1.7785 c 0.4361,-3.6148 -1.76226,-2.3667 -3.82419,-2.371 l 0.9559,-2.3715 -1.9118,0.593 -3.82418,-1.1855 c 1.24022,-3.6596 4.73,-5.0025 7.64837,-3.5571 l 1.91178,-2.3715 z m -170.19119,5.4407 -4.00095,14.24 21.96628,6.1714 4.00095,-14.2395 -5.46397,-1.5355 -2.38133,8.4759 -3.14823,-0.8844 1.96075,-6.9767 -4.86497,-1.3669 -1.96023,6.9768 -3.06626,-0.8615 2.38142,-8.4759 z m 111.87453,5.2304 c 2.00401,2.1406 3.13365,3.287 5.73641,2.371 l 0.47798,3.557 3.34568,0.5931 0.47799,-1.7786 h 0.47791 l 0.4785,3.557 h 0.47791 l 0.47799,-2.3715 h 0.47799 l 0.47791,1.7785 1.91187,-1.1854 -0.95598,5.335 4.78007,-0.5925 -0.4779,2.964 1.43389,0.5929 -3.34576,3.5566 v -1.1854 l -2.3903,0.5929 v 2.371 l -1.4338,-1.1855 h -0.47799 l -2.3903,0.5931 0.47799,2.371 -2.38978,0.5929 H 90.9156 l -1.43388,-1.186 c -0.42128,2.3882 -1.66194,1.1047 -2.86821,0 l 0.95589,5.3356 h -1.91179 c -1.96281,-0.9059 -1.65245,1.5562 -2.86828,4.7425 l -5.25798,-2.371 0.95589,5.9281 -6.69187,1.7785 1.91179,1.1854 -1.43828,1.4833 c 0,0 0.95762,-0.2967 0.96038,0.8882 0,1.185 0.76439,3.5745 2.3903,4.7427 v -4.1501 l 4.30208,4.1501 0.47791,-2.3716 c 1.32632,0.4329 2.63308,2.2554 2.86777,0 l 4.78008,2.9645 0.4779,-1.7785 4.30218,3.5566 -1.43389,0.5929 -0.47799,2.964 2.38978,1.1861 c 2.03745,-1.1931 3.80134,-3.4079 5.73597,-1.1861 l -4.78007,5.3356 -2.38979,1.1855 v 0.593 l 4.30218,0.593 -0.47799,2.964 c 1.43172,1.1973 1.0781,2.2739 0.47799,4.1495 l 4.77999,-0.5924 v 2.371 l -2.86821,-1.1855 v 2.964 l -2.59464,-0.9772 c 0.27459,1.4205 0.43214,1.2661 -0.75103,1.5702 l 2.32264,2.6135 3.41333,0.3506 v 6.521 h -3.34619 l 0.47791,3.5571 -2.86769,-1.1861 c -0.48437,2.8144 -1.5929,3.4764 -3.82418,2.9645 v 2.371 l -8.12627,-3.557 1.43388,1.186 -1.43388,4.1495 -1.4338,-2.3715 0.47791,1.7786 -1.9118,0.5929 -2.39029,-4.1495 -7.17038,4.7426 -2.38979,-4.7426 -2.86767,0.5926 v -1.1856 h -4.30218 l 0.47799,-2.3715 -4.30209,1.7785 c -1.18257,-3.2201 -1.96824,-4.8404 -4.78007,-5.928 l 0.47798,-2.3715 -2.86829,-0.5925 c -1.9242,2.1413 -4.57073,0.8682 -5.73596,-1.7785 l 2.39029,-1.1856 v -2.9645 h -1.4344 c 0.10084,-3.2349 -1.80354,-11.6686 0.47799,-13.6346 -0.82015,-4.5076 4.22116,-4.6982 6.2144,-7.707 l 3.82366,0.5929 -0.95589,2.964 v 0.5931 l 0.95589,2.964 2.3903,1.1855 0.47799,-1.7785 3.8241,5.3355 -0.9559,-2.964 3.34567,-1.1855 v -0.593 c -2.68109,-1.1712 -1.23755,-3.3449 0.95642,-3.5571 l -0.4779,-4.7425 c -1.3583,0.9311 -2.47623,1.6651 -2.86829,-0.5925 l -1.43389,-1.186 -2.39021,0.5931 -0.47799,-2.3716 c -3.43747,1.8897 -8.61271,7.0302 -11.95037,4.15 v -0.593 l 1.43432,-2.371 h -0.9559 l 1.43389,-3.5571 -1.43389,-0.5929 v -0.5925 l 5.73598,-2.3715 -0.47799,-1.7785 3.34576,1.1854 c 0,-1.6755 0.54599,-1.6538 1.9123,-1.7779 l -0.47799,-2.9646 1.91188,0.5931 1.91179,-2.9641 3.3462,3.557 0.47798,-3.557 2.3903,-0.593 0.47791,1.7785 h 2.86777 l 0.9564,-5.3355 -1.4344,1.186 v -2.3715 h -1.91179 c -0.51599,2.186 -1.67607,2.1552 -3.34619,1.7784 l -0.47798,1.7786 h -0.47792 l -0.47798,-4.1501 -1.91188,0.5931 c -1.3452,-4.2128 1.13732,-3.8433 3.82366,-4.7426 l -0.95588,-1.7784 7.64827,-8.8922 1.43389,0.5926 c 1.8082,-3.4156 6.16923,1.5272 9.08217,1.1854 v -0.5924 c -2.45089,-0.9061 -3.53572,-2.1719 -3.82411,-5.3356 h 2.39022 c 0.53194,-1.9634 1.21962,-2.3735 2.86777,-2.371 z m 18.16433,1.7785 0.4779,0.5925 z m 59.75055,11.2636 h 0.95641 l 0.47791,5.928 -0.47791,2.371 3.34567,-2.964 h 0.47791 l 3.34619,2.3715 -0.4779,1.7785 0.95589,1.1856 4.30209,-0.5931 0.79792,2.374 3.25482,1.385 c -1.7862,-0.3855 -2.76029,1.8436 -6.38478,-0.3333 -1.09,0.8785 -1.44913,0.8187 -1.87524,2.3651 l 6.11958,2.5088 c -2.13415,6.5214 -8.72242,5.9935 -4.77999,13.6352 l -1.4344,0.5929 1.4344,0.5925 -2.86829,2.9641 v 0.593 l 1.43389,1.7785 c -2.42693,0.5584 -5.58609,1.2315 -5.25798,-2.9641 l -4.30217,-0.593 -2.38979,-5.928 -3.34619,0.5925 -0.4779,1.7785 h -0.95599 l -1.4338,-2.371 -0.4785,3.557 -4.30157,1.1855 v -4.7425 l 1.43388,-0.593 v -1.7785 l -1.91239,-1.1855 2.3903,-2.9641 -0.95589,-1.7785 1.43388,-2.3715 h -2.38978 l 0.9559,-1.1855 v -0.593 l -2.86821,0.593 2.39021,-2.964 -1.43432,-1.7786 -0.95589,-2.3715 v -0.5925 l 1.91231,-1.7785 2.38978,1.1856 c 0.60244,-2.2515 1.58988,-2.359 3.34619,-1.7786 l 0.4779,-2.9639 h 0.95599 l 0.4779,5.3354 2.3903,-1.186 z m -196.05621,5.5103 -0.0319,2.4337 13.28746,9.9714 -13.54671,9.6164 -0.0319,2.4348 23.02689,0.3047 0.0802,-6.0579 -9.04415,-0.1196 8.74345,-6.042 5.1e-4,-0.042 -8.58047,-6.2568 9.04416,0.1195 0.0802,-6.0574 z m 150.6458,2.7887 2.86829,5.3356 3.34569,-1.1856 -1.43389,2.9641 6.69186,-2.371 c 2.03763,3.3984 3.71025,2.2493 6.69239,2.371 1.18058,-3.0375 2.14277,-3.0197 4.71148,-2.4658 l 1.02449,2.4658 4.30209,-2.371 -1.91231,2.371 -0.4779,2.964 0.95641,2.3715 h 2.86768 l -0.4779,1.7785 1.4338,0.5925 v 0.5931 c -1.75286,1.3656 -2.46381,2.5888 -0.47791,4.1495 l -0.95589,1.186 v 0.5925 l 0.95589,1.186 c -3.09159,1.0194 -7.92071,7.0754 -8.12575,-0.593 h -6.69238 l -2.86777,-6.521 -6.69239,1.1854 -1.91179,5.9286 -2.86829,-1.186 -0.4779,2.3716 -2.86829,0.5929 0.95642,6.5211 -1.91232,-1.1861 c 0.73501,6.1643 -4.10316,4.8066 -5.73597,0.5931 h -0.4779 l 1.9123,5.3355 -2.39029,-0.593 3.34619,2.3715 -0.9559,1.7781 4.30157,1.7785 -2.38977,1.1859 v 0.5925 h 2.86777 v 2.3716 l -5.73597,3.557 h -0.478 l 0.9559,-2.9645 -1.91179,-1.1856 2.39029,-0.5924 -7.17037,-2.3715 c 0.69811,-2.6058 0.63089,-4.0315 -1.43388,-5.3356 l 2.38977,-4.7425 h -1.43388 l -1.4338,-5.9281 -2.86828,0.5926 v -2.371 l 4.78007,-5.3356 1.43389,0.5929 -0.478,-3.5569 -5.73596,1.7785 c -1.17689,-2.319 -5.36133,-3.2842 -1.9118,-5.9281 l -1.4344,-2.9645 4.30209,-2.964 1.91239,2.3715 v -4.7425 l 0.47791,-0.593 3.34576,-1.1856 -0.95599,2.964 1.4344,1.7786 0.47792,-1.7786 h 1.91187 l 3.34619,2.3716 -0.30018,2.8297 1.41905,0.36 -0.16297,0.9599 h 0.95589 l 0.16298,-0.9599 1.24324,0.2888 0.81963,0.3431 -0.31397,-5.6001 v -0.5931 l 1.43432,0.5931 0.47798,-2.9646 -1.4344,1.1861 z m 52.58069,1.186 -0.4779,1.1856 z m -43.02052,17.7846 0.95589,1.7786 1.4344,-0.593 v 2.964 l 0.9559,2.3715 h 3.82367 l 1.9123,-2.3715 -0.47799,2.9641 2.38978,-1.1856 -0.4779,2.3715 2.8682,1.1856 -2.8682,3.557 -0.478,3.557 3.3462,-2.3715 h 0.47799 l 3.34619,0.593 0.9559,1.7785 v 0.5925 l -2.3903,1.7785 v 0.5931 l 0.95589,0.5925 -6.69187,2.9644 c -3.9077,-2.5574 -3.86133,-3.5857 -8.60417,-2.3715 l -2.38978,-3.557 0.47791,4.15 -2.8682,-0.593 0.4779,3.5571 -1.4338,1.7785 -6.21397,-0.5931 0.95589,-4.7425 c -1.21807,-0.721 -2.38994,-1.862 -0.4779,-2.371 v -2.3715 l -1.43388,-0.593 1.91178,-2.371 0.478,1.7785 0.4779,-1.7785 1.91239,0.5925 -1.91239,-6.521 0.95599,-1.1856 2.8682,1.7785 c 0.54091,-2.5453 1.5873,-4.4258 3.82418,-4.1495 z m -136.54069,6.1311 -5.50284,1.3904 2.15665,8.5355 -3.17037,0.8009 -1.7751,-7.0261 -4.89902,1.2374 1.7751,7.0266 -3.08798,0.7801 -2.1563,-8.5361 -5.4619,1.3796 3.62319,14.3412 22.12176,-5.5889 z m 158.17316,0.7332 c 1.26263,-0.055 2.41822,0.5046 3.22372,2.0279 l 1.4344,-0.5926 0.47791,1.7785 3.82367,-1.7785 1.54549,1.1485 1.58299,0.4439 -2.17207,4.3357 3.34568,2.3715 -2.38979,-0.593 -3.34619,2.964 1.43389,6.521 3.34619,-0.5924 -0.95589,1.778 1.43388,0.593 0.47791,2.9641 c -1.75235,0.3373 -2.74108,0.4606 -3.34568,-1.7786 l -3.34619,-0.5925 c -1.9941,2.717 -6.39202,-1.9457 -8.60418,-2.964 l 0.4779,-2.3715 h -1.91178 l 2.86768,-7.7066 h -1.91178 v -3.557 l -4.78009,1.1855 c 1.21954,-2.3666 4.51454,-5.4639 7.29233,-5.5849 z m -13.50621,0.2494 0.47791,0.5929 z m 37.76255,5.9285 -0.4785,2.371 4.78007,1.7785 v 1.186 l -1.43388,1.7781 h 1.9123 l -0.9564,1.7785 5.73597,-0.5926 v 0.5926 c -1.49766,1.616 -2.46795,3.3362 -0.9559,5.3355 l -1.91179,1.1855 0.95589,5.3355 -4.30209,2.3715 c -1.36923,-1.4904 -2.13052,-1.2988 -3.82417,-0.593 l -0.4779,-3.557 -2.38979,0.5931 -1.43389,-1.7786 c -0.9315,8.8857 -3.20803,1.6908 -4.78059,-2.3715 h 1.91231 v -0.5925 l -1.91231,-0.593 0.47851,-1.7786 -3.82418,-1.7785 v -0.5925 l 6.21396,-1.1859 -0.95598,-3.5566 h 2.86828 c -0.36801,-4.1272 1.78355,-5.2457 4.78008,-5.3355 z m -181.16937,12.1884 c -0.97468,-0.028 -1.97005,0.1737 -2.94723,0.6483 -3.03032,1.4716 -3.95856,4.5502 -3.75016,8.4141 0.14644,2.6669 0.54574,4.2668 -0.39645,4.7243 -0.70026,0.34 -1.66297,-0.184 -2.20706,-1.3045 -0.4761,-0.9804 -0.77172,-2.7877 0.0138,-3.9245 l -4.55738,-1.6733 c -1.63495,1.7852 -1.92488,4.9471 -0.40387,8.0793 1.89197,3.8961 6.06409,6.0395 9.61644,4.3145 3.09393,-1.5025 3.71808,-4.5591 3.57726,-7.7006 -0.0853,-2.4446 -0.17599,-4.9967 0.88082,-5.5098 0.84033,-0.4081 1.81036,0.521 2.37298,1.6797 0.83472,1.7188 0.84402,3.6813 0,5.1465 l 4.83532,1.7271 c 1.76562,-2.1319 1.76493,-5.9239 0.12644,-9.2979 h 5.2e-4 c -1.49784,-3.0844 -4.23504,-5.2392 -7.159,-5.3232 z m 129.06659,2.0392 -0.95641,3.557 4.78059,-1.1855 0.47791,3.5566 -0.47791,2.3714 0.47791,0.593 4.30217,-1.1859 -1.4344,4.7425 c -2.55293,-1.9789 -4.04422,-0.3803 -4.78008,-5.335 -2.26826,1.4571 -4.17091,1.2487 -4.30209,-2.3716 l -2.38978,1.1856 c 0.74423,-2.8904 1.88413,-5.0681 4.30209,-5.9281 z m 14.81814,10.0781 0.95589,2.371 h 0.95599 l 0.4779,-1.7785 h 0.47799 v 2.9645 l 2.8682,-2.9645 v 4.15 l 4.78009,-2.3715 -1.43389,1.7785 v 0.593 h 5.73597 v 1.1855 c -6.76737,1.2395 -17.46923,7.0275 -18.16434,16.5992 -3.59216,-3.3921 1.28151,-18.6529 3.3462,-22.5272 z m -15.77455,10.6706 h 0.4785 l 0.47791,10.0781 h -0.47791 l -4.30216,-8.2996 h 3.34576 z m -132.63256,4.7968 a 1.433222,1.433222 0 0 0 -1.20618,2.1315 c 0.009,0.01 0.10162,0.2041 0.66855,1.1169 0.59227,0.9537 1.58385,2.48 2.99214,4.4182 0.57865,0.7963 1.26883,1.7216 2.07029,2.7497 4.11419,5.2771 10.00772,11.7653 17.76442,17.9866 6.21776,4.987 13.59627,9.8905 22.56028,14.0015 2.39443,1.0981 5.23911,2.2883 8.4867,3.4503 7.24243,2.5913 15.27743,4.6093 24.08397,5.7499 8.74509,1.1325 16.13912,1.1204 20.80647,0.983 -4.67149,-0.036 -12.04854,-0.3478 -20.67168,-1.8674 -8.69165,-1.5316 -16.49283,-3.9005 -23.49497,-6.7575 -3.13718,-1.2801 -5.8718,-2.5587 -8.17858,-3.7126 -8.5098,-4.257 -15.86996,-9.2288 -21.78753,-14.0745 -7.53546,-6.1707 -13.25455,-12.3776 -17.30513,-17.5314 -0.78284,-0.9959 -1.45458,-1.8914 -2.01505,-2.6629 -1.36407,-1.8771 -2.31721,-3.3447 -2.87613,-4.2448 -0.53478,-0.8611 -0.60735,-1.0139 -0.60141,-1.0032 a 1.433222,1.433222 0 0 0 -1.29616,-0.7333 z" />
      <path
         id="path53-5-5"
         style="display:inline;fill:#ffffff;fill-opacity:1;stroke:none;stroke-width:0.137166"
         d="m 121.83915,1240.6092 0.0129,2.8063 -2.79831,0.2098 2.43624,1.3918 -1.21721,2.5282 2.42373,-1.4141 1.5811,2.3184 -0.0129,-2.8058 2.79821,-0.2102 -2.43666,-1.3919 1.21721,-2.5282 -2.42331,1.4141 z m -28.6553,1.9278 -0.82127,2.6831 -2.73402,-0.6307 1.91309,2.0529 -1.91309,2.0528 2.73402,-0.6307 0.82127,2.6832 0.82084,-2.6832 2.73444,0.6307 -1.91308,-2.0528 1.91308,-2.0529 -2.73444,0.6307 z m -79.20087,7.5869 c -0.13315,0 -0.26778,-5e-4 -0.40396,0.014 -0.13626,0.015 -0.45178,0.025 -0.52763,0.1709 -0.0611,0.132 0.14368,0.1992 0.22986,0.2272 0.26718,0.097 0.55315,0.1551 0.83118,0.216 0.0319,0 0.0508,0.01 0.0568,0.01 1.7e-4,2e-4 0,8e-4 0,9e-4 h 4.3e-4 v 4e-4 l 4.3e-4,5e-4 v 4e-4 5e-4 l -4.3e-4,4e-4 v 4e-4 l -4.3e-4,5e-4 c -0.009,0 -0.025,0.01 -0.0586,0.01 l -0.54995,0.028 c 0.14289,0.494 0.57641,0.5655 1.02303,0.6638 l 2.30152,0.5111 c 0.0354,0 0.0551,0.01 0.0603,0.011 l 4.3e-4,5e-4 v 4e-4 h 4.3e-4 v 5e-4 5e-4 l -4.3e-4,3e-4 -4.3e-4,5e-4 h -4.3e-4 c -0.009,0 -0.0259,0 -0.0594,0 -0.64381,-0.062 -1.38036,-0.3869 -1.99927,-0.2259 0.11541,0.3839 0.42887,0.4641 0.78292,0.5437 0.51023,0.115 1.52378,0.2349 1.92964,0.2795 0.0482,0.01 0.0741,0.012 0.0793,0.02 l 4.3e-4,4e-4 v 5e-4 l 4.3e-4,4e-4 v 5e-4 5e-4 3e-4 l -4.3e-4,5e-4 v 5e-4 5e-4 c -1.7e-4,2e-4 -6.9e-4,8e-4 0,0 -0.009,0.01 -0.0293,0.012 -0.0681,0.014 -0.52177,0.039 -1.36356,-0.062 -1.68365,0.2428 0.7075,0.4491 1.33735,0.2162 2.05459,0.2745 0.0613,0 0.0936,0.012 0.0964,0.023 v 5e-4 5e-4 l 5.2e-4,4e-4 -5.2e-4,4e-4 c 0,0.011 -0.0302,0.023 -0.0862,0.033 l -0.90212,0.1553 c 0.42964,0.212 0.69061,0.5317 1.41854,0.553 -0.45885,0.3775 0.0422,0.7054 0.46377,0.6402 l 0.0103,0.041 c -0.26812,0.4844 0.0285,0.7792 0.45756,0.9749 -0.23856,0.4233 0.24227,0.7353 0.62718,0.6432 l 0.0112,0.085 c -0.34224,0.5278 0.025,1.1774 0.65924,1.1209 l 0.0103,0.041 c -0.21089,0.4324 -0.0543,0.7135 0.1473,0.9672 0.12109,0.1534 -0.0517,0.4123 0.345,0.6088 l 0.0103,0.041 c -0.83929,0.508 -1.36011,1.3172 -2.0091,1.9957 -0.29036,0.2108 -0.72466,0.1401 -1.02441,0.3647 -0.29312,0.2153 -0.23089,0.5187 0.0328,0.7521 -0.11988,0.2291 0.13514,0.4588 0.30174,0.4825 9e-5,-0.01 -1.7e-4,-0.01 0,-0.012 l 4.3e-4,-4e-4 c 0.009,0.02 0.0396,0.4275 0.39103,0.4467 0.17789,0.2591 0.46507,0.3271 0.72621,0.1175 0.47722,-0.38 0.66623,-0.9268 1.21722,-1.265 0.78688,-0.4814 1.75527,-0.5758 2.55724,-1.0472 0,-0.01 0.009,-0.012 0.009,-0.013 1.7e-4,-10e-5 0,-7e-4 0,-8e-4 h 4.3e-4 4.3e-4 l 5.1e-4,-5e-4 c 1.7e-4,0 0,0 0,0 l 4.3e-4,5e-4 h 5.2e-4 4.4e-4 l 4.3e-4,5e-4 c 0.0405,0.025 0.0862,0.5153 0.36241,0.615 0.11791,0.4006 0.34863,0.6322 0.76603,0.5928 0.11186,0.4139 0.33975,0.6283 0.78292,0.5436 0.12936,0.3685 0.46488,0.6465 0.85695,0.4933 0.12092,0.2603 0.2321,0.5106 0.46377,0.6955 0.15797,0.1279 0.38491,0.1753 0.52186,0.3262 0.24641,0.282 0.52513,0.9883 0.92934,1.0767 0.25244,0.053 0.34337,-0.2659 0.39681,-0.4437 0.0551,0.361 0.0328,0.7526 0.16738,1.098 0.14797,0.3837 0.2982,-0.024 0.34905,-0.2223 0,-0.1004 0.0647,-0.2104 0.0508,-0.308 0.0874,0.5752 0.0508,1.4045 0.37189,1.9096 0.10748,0.1726 0.26976,0.1151 0.32406,-0.066 0.0568,-0.1874 0.0397,-0.4275 0.012,-0.6419 0.0621,0.4052 0.22909,1.3173 0.55401,1.9091 0.0181,0.067 0.0964,0.054 0.0862,-0.017 l 0.10222,-0.6138 c 0.0594,0.3944 0.0431,0.8163 0.18211,1.1972 0.0904,0.2732 0.32725,-0.1 0.32725,-0.1 0.20116,0.627 0.10817,1.4094 0.75078,1.7796 0.44946,-0.5797 0.36413,-1.6811 0.25752,-2.3764 -0.29717,-1.5775 -0.97399,-3.1361 -1.55109,-4.6288 -0.31261,-0.8124 -0.56841,-1.6898 -1.21593,-2.306 -0.90547,-0.8615 -2.47725,-0.9867 -3.01119,-2.2483 -0.18831,-0.4355 0.13463,-0.6685 0.40758,-0.9615 0.55729,-0.5975 0.94624,-1.1071 1.78502,-1.2306 -0.23245,-0.2175 -0.40361,-0.4119 -0.71466,-0.2978 -1.02692,-1.5351 -2.62637,0.5825 -3.92399,-0.1044 -1.47845,-0.7844 -1.09181,-2.8812 -2.53587,-3.7714 -0.87885,-0.5416 -1.89714,-0.917 -2.84907,-1.3037 -1.07216,-0.4355 -2.16958,-0.9213 -3.29999,-1.1794 -0.39362,-0.09 -0.78215,-0.1764 -1.18154,-0.1893 z m 159.57171,7.4668 -1.83551,3.1988 -3.31956,-1.6061 1.8524,3.1888 -3.05092,2.0716 3.68784,-0.01 0.26916,3.6781 1.83509,-3.1986 3.32,1.6059 -1.85285,-3.1888 3.05092,-2.072 -3.68783,0.01 z m -33.10787,9.7951 0.14773,2.2627 -2.24654,0.3061 2.03323,1.0034 -0.85791,2.0988 1.88585,-1.2591 1.38864,1.7921 -0.14815,-2.2626 2.24697,-0.3062 -2.03366,-1.0034 0.85798,-2.0988 -1.8855,1.2592 z m -54.29855,9.6223 -0.71018,4.3958 -4.43507,-0.399 3.45211,2.8125 -2.56345,3.6415 4.16238,-1.5833 1.87163,4.0405 0.70966,-4.3958 4.43516,0.3991 -3.4522,-2.8126 2.56344,-3.6415 -4.16195,1.5833 z m -26.72705,16.9775 -0.73121,2.4028 -2.44831,-0.5606 1.71537,1.8345 -1.7095,1.84 2.44649,-0.5682 0.73827,2.4005 0.73121,-2.4028 2.4483,0.5606 -1.71494,-1.8345 1.7096,-1.8399 -2.44658,0.5682 z m 103.76748,3.9892 -1.18731,1.8051 -1.88456,-1.0579 0.96995,1.9314 -1.85862,1.103 2.15725,0.1254 0.0268,2.1609 1.18739,-1.8051 1.88456,1.0578 -0.96995,-1.9314 1.85819,-1.1029 -2.15725,-0.1259 z m -32.88371,12.3648 -1.20747,3.8499 -3.92485,-0.9338 2.7304,2.9701 -2.77151,2.9322 3.93787,-0.8789 1.15343,3.8659 1.20738,-3.8494 3.92494,0.9338 -2.73005,-2.9706 2.77107,-2.9322 -3.93734,0.8793 z m -18.67644,9.9731 -2.84649,4.6516 -4.83989,-2.5122 2.60542,4.7909 -4.59581,2.9358 5.45147,0.1388 0.24459,5.4479 2.84606,-4.6521 4.8404,2.5122 -2.60542,-4.7904 4.59573,-2.9357 -5.4519,-0.1389 z m 53.31801,4.2838 0.91236,4.3386 -4.26416,1.2146 4.21366,1.3797 -1.08018,4.2999 3.30129,-2.9594 3.18399,3.0852 -0.91194,-4.3386 4.26365,-1.2146 -4.21323,-1.3793 1.07975,-4.3003 -3.30129,2.9594 z" />
    </g>
  </g>
</svg>
