<?xml version="1.0" encoding="UTF-8" standalone="no"?>
<!-- Created with Inkscape (http://www.inkscape.org/) -->

<svg
   width="264.58334mm"
   height="264.58334mm"
   viewBox="0 0 264.58334 264.58334"
   version="1.1"
   id="svg1"
   sodipodi:docname="favicon.svg"
   inkscape:version="1.4.4 (dcaf3e7, 2026-05-05)"
   xmlns:inkscape="http://www.inkscape.org/namespaces/inkscape"
   xmlns:sodipodi="http://sodipodi.sourceforge.net/DTD/sodipodi-0.dtd"
   xmlns="http://www.w3.org/2000/svg"
   xmlns:svg="http://www.w3.org/2000/svg">
  <sodipodi:namedview
     id="namedview1"
     pagecolor="#505050"
     bordercolor="#eeeeee"
     borderopacity="1"
     inkscape:showpageshadow="0"
     inkscape:pageopacity="0"
     inkscape:pagecheckerboard="0"
     inkscape:deskcolor="#505050"
     inkscape:document-units="mm"
     inkscape:zoom="0.0625"
     inkscape:cx="224"
     inkscape:cy="1528"
     inkscape:window-width="1366"
     inkscape:window-height="715"
     inkscape:window-x="-8"
     inkscape:window-y="-8"
     inkscape:window-maximized="1"
     inkscape:current-layer="svg1" />
  <defs
     id="defs1" />
  <g
     id="g1"
     transform="translate(54.504077,-1148.8209)">
    <path
       id="path43-2"
       style="display:inline;fill:none;fill-opacity:1;stroke:none;stroke-width:2.36441"
       d="m -54.50416,1148.8208 h 264.58334 v 264.5833 H -54.50416 Z" />
    <path
       id="path51-4-5"
       style="font-weight:bold;font-size:35.2777px;line-height:0;font-family:'LEMON MILK';-inkscape-font-specification:'LEMON MILK Bold';text-align:center;letter-spacing:0px;text-orientation:upright;text-anchor:middle;display:inline;fill:#00cc00;fill-opacity:1;stroke:none;stroke-width:0.460318;stroke-miterlimit:2.5"
       d="m 83.31326,1148.8211 -17.388867,0.3209 0.494012,26.8443 17.389475,-0.3199 -0.123352,-6.6786 -10.34995,0.1909 -0.07109,-3.8469 8.520346,-0.1568 -0.10999,-5.9453 -8.519736,0.1575 -0.06927,-3.7472 10.35056,-0.1914 z m 16.383221,1.93 c -4.311541,-0.1024 -8.193509,2.2652 -8.945693,6.261 -0.748716,3.9774 1.700911,6.7101 4.766336,8.7795 2.368495,1.633 4.842266,3.3367 4.586476,4.6952 -0.203282,1.0804 -1.760623,1.3465 -3.249058,1.0659 -2.20806,-0.4163 -4.067314,-1.7844 -4.85809,-3.6114 l -5.019117,3.3591 c 0.776395,3.1632 4.35736,5.8214 8.6917,6.6385 5.282915,0.9959 10.549405,-1.2481 11.495345,-6.2731 0.73333,-3.8957 -1.52368,-6.9311 -5.31867,-9.4431 -2.621036,-1.7315 -4.411634,-2.4762 -4.183613,-3.6874 0.169441,-0.9002 1.338244,-1.4427 2.777523,-1.1712 1.25938,0.2373 3.17365,1.2257 3.6969,2.765 l 4.77362,-3.1341 c -0.54045,-2.7967 -3.32346,-5.2878 -7.34699,-6.0463 -0.62559,-0.1179 -1.25071,-0.1829 -1.866669,-0.1976 z m -51.084393,1.6321 c -0.98698,-0.021 -2.018562,0.089 -3.073448,0.3472 l -9.894828,2.4196 6.402106,26.0738 6.919211,-1.6923 -2.765376,-11.3257 9.733804,9.6218 8.100464,-1.9812 -9.540574,-8.7602 c 2.269993,-1.7897 3.561934,-4.9863 2.767807,-8.2384 -0.927894,-3.799 -4.37229,-6.3716 -8.649166,-6.4646 z m 73.185512,4.5515 v 7e-4 a 1.6852647,1.6865181 0 0 0 -0.48307,3.3062 c -0.0141,0 0.17991,0.039 1.30825,0.4233 1.17923,0.4019 3.11395,1.1052 5.62615,2.1708 1.03228,0.4378 2.236,0.9699 3.58447,1.6029 6.97839,3.2759 15.60529,8.1844 24.67266,15.1853 7.12047,5.4978 14.76768,12.6166 21.90123,21.2425 1.93361,2.3381 4.1244,5.1337 6.42275,8.3904 5.12998,7.2691 9.91181,15.584 13.9715,25.1417 4.02778,9.4823 6.34045,17.8569 7.62164,23.2024 -1.08041,-5.3872 -3.02782,-13.8672 -6.64456,-23.5921 -3.64217,-9.793 -8.08444,-18.4693 -12.97374,-26.0843 -2.19245,-3.4146 -4.31033,-6.3589 -6.20342,-8.8125 -7.08672,-9.1852 -14.66086,-16.3434 -22.02274,-22.1479 -9.18401,-7.2411 -18.17977,-12.2749 -25.31615,-15.5909 -1.39033,-0.646 -2.63299,-1.1917 -3.69869,-1.6436 -2.59379,-1.1 -4.60498,-1.8321 -5.85464,-2.2579 -1.19594,-0.4077 -1.44334,-0.4654 -1.45712,-0.4694 a 1.6852647,1.6865181 0 0 0 -0.45452,-0.067 z m -74.058084,1.9679 c 1.188651,0.021 2.307004,0.7118 2.628049,2.0261 0.391184,1.602 -0.697789,2.965 -2.172926,3.3087 l -2.833431,0.6755 -1.276045,-5.2254 2.829176,-0.6926 c 0.272918,-0.066 0.550839,-0.098 0.825177,-0.092 z m -28.362866,4.135 c -2.344153,0.092 -4.742497,0.7548 -7.015218,2.0304 -7.2724774,4.0824 -9.8585489,12.543 -5.9178157,19.5739 3.9083037,6.9727 12.4399957,9.1538 19.7124867,5.0714 7.286976,-4.0902 9.889208,-12.5213 5.981011,-19.4941 -2.709316,-4.8335 -7.603305,-7.3854 -12.760464,-7.1816 z m -0.108155,6.9219 c 2.645974,-0.084 5.164994,1.2578 6.558879,3.7446 2.019158,3.6027 0.729494,7.9738 -2.986556,10.0597 -3.71604,2.0859 -8.116811,0.9081 -10.136063,-2.6945 -2.027367,-3.6171 -0.745281,-8.0035 2.970758,-10.0895 1.161288,-0.6519 2.390245,-0.9827 3.592982,-1.0203 z m -27.1287464,14.3898 c -3.4297526,0.1721 -6.9125586,1.8965 -10.1075036,5.1531 l -6.144467,6.2408 19.0641334,18.8685 6.1560121,-6.2293 c 6.4135966,-6.4895 6.7370186,-14.0175 0.8203158,-19.8737 -2.9820214,-2.9515 -6.3588322,-4.3314 -9.7884907,-4.1594 z m 0.4326402,7.1932 c 1.5336121,0.062 3.0129946,0.7388 4.3227587,2.0353 2.9583984,2.928 2.70924363,6.7811 -0.6380226,10.1679 l -1.1934071,1.2077 -9.5733868,-9.4754 1.146619,-1.1608 c 1.902513,-1.9251 3.9636082,-2.8561 5.9354388,-2.7747 z m 147.3031512,20.3225 -0.56207,2.093 -2.24766,-1.395 -1.12475,1.395 -2.24828,0.698 -2.80973,2.0931 -1.6868,-1.3954 0.56207,2.7898 h -2.81034 l 0.56205,2.0931 -2.24766,-0.6981 -1.12474,2.7912 v 4.1855 h -1.12413 l -0.56207,-2.7904 h -1.12412 l -4.49656,5.5803 -2.24767,-6.278 -2.81094,4.1855 -1.6856,-0.6974 1.12353,2.7899 -3.93448,-3.4873 -0.56207,5.5804 1.12414,2.7905 -8.43102,-3.488 -0.562067,2.0925 c -2.371434,-0.4891 -4.116434,-0.128 -5.058613,2.7905 l -2.809733,-0.6975 -0.562675,-3.488 -6.744817,-0.6975 -2.247666,4.883 -2.248879,-1.395 -0.562068,2.7899 -1.686204,-2.0924 -3.371801,-1.3956 0.562068,3.488 -0.562068,3.4881 -1.686811,1.3956 2.248879,1.3949 v 0.6981 l -1.686812,-0.6981 3.935084,4.1855 v 0.6976 l -6.182749,-3.4881 -0.562067,2.093 -5.058613,-3.488 0.562068,4.1855 -2.248272,-0.6975 -0.562676,4.1855 -3.93387,-1.395 v 3.4881 l -5.62068,-1.395 1.685598,4.8824 c -2.247075,0.4064 -3.307263,1.4645 -3.934477,4.1861 l 4.496545,1.3949 c -0.953631,1.7516 -3.582012,5.2105 -1.12353,5.5805 v 0.6981 l -1.124136,2.0925 -5.058613,-1.3956 1.12353,-4.1849 -4.496545,1.3949 -1.124136,9.0686 h -5.058617 l -3.934476,4.8835 1.124742,6.976 h -2.248879 l 1.686811,3.4874 -5.62068,1.395 v 0.6981 l 3.933869,6.2787 1.686811,1.3949 5.058613,-1.3949 -5.621287,3.4879 0.562674,2.0925 -5.058612,2.0931 2.248272,2.0924 -1.124136,2.0931 1.685598,4.1849 -0.672052,1.2551 c 0.06479,0.3324 -0.497413,1.0006 -0.401651,1.6582 l -0.04982,0.5754 v 2.0924 l -3.934476,2.7905 v 1.3949 h 3.372408 l 0.659898,4.0986 3.836646,-0.6105 v 2.7905 l 1.124137,-0.698 v 4.1855 h 3.935084 l 2.247664,-1.3945 -0.562068,2.7901 5.058613,2.0922 -0.56146,2.0931 h 1.123527 l -0.562067,2.0931 1.686204,-0.6975 -1.124137,4.883 5.620681,-3.4879 1.124136,1.3948 -1.686204,2.7907 0.562068,3.488 c 2.091521,-0.7517 10.665332,-7.6331 11.241362,-2.0926 l 2.24888,-1.3954 1.686204,4.8829 2.809732,-2.7899 1.686812,3.4879 1.685596,-0.698 -1.123527,2.093 6.744208,-1.395 3.935085,-4.1855 -1.124744,3.4875 2.810341,-2.0925 -0.562069,1.3951 1.686204,-0.6975 -0.562067,2.7898 2.81034,-0.6969 -1.124136,4.1856 3.934476,-2.093 c 0.33352,2.4138 2.767012,0.1129 3.935084,-0.6976 l -0.562068,4.1856 3.371801,-4.8837 h 0.562067 v 2.7906 l 2.248881,-2.7906 h 0.56146 l 1.6862,2.0931 -0.56207,-4.8829 3.37302,-2.7906 h 1.12352 l 1.68622,2.7906 0.56206,-2.0926 c 11.38114,9.2993 13.9917,38.4232 9.47252,49.0379 -4.5192,10.6146 -15.39933,12.5093 -23.104338,14.6479 12.849388,-1.7975 24.143558,-5.4964 33.075728,-9.2869 13.72993,-5.8265 21.92005,-11.9053 21.92005,-11.9053 0,0 -4.08747,-3.0553 -4.44247,-7.9026 -0.355,-4.8473 -0.36966,-13.0818 2.72405,-22.0333 2.11271,-6.1128 6.13655,-7.6323 9.25437,-11.8601 h 0.56208 c 5.12379,3.9319 12.9976,-8.178 16.29997,-0.6976 l 1.6862,-0.698 v 1.3956 l 2.24827,0.6974 2.24827,-2.093 v 2.7906 h 0.56147 l 1.12414,-2.0926 0.56207,3.4875 h 0.56207 l 1.45894,-0.7723 1.35199,-3.4132 1.13507,3.4983 2.06296,-1.5104 c 0.13773,-2.2004 -0.0773,-3.582 1.7585,-3.8638 l 0.57241,-0.1181 c 2.88411,-5.6916 7.72922,-13.784 11.95776,-28.6746 2.99166,-10.535 4.51356,-20.1569 4.94073,-29.8276 l -1.07431,-2.3538 c -0.57481,-3.3289 -0.12037,11.0957 -2.2434,11.2284 l 0.56207,-2.7906 -2.81036,0.6974 1.84846,-3.0093 -3.32684,1.4739 -2.45608,3.6286 c 3.92025,-1.3822 -1.05397,3.7437 7.24612,7.738 -2.04905,3.9934 -3.87312,10.3996 -3.87312,10.3996 l -0.56206,-2.093 -0.56206,-4.8837 -3.37302,2.093 1.12414,-2.7898 -5.62068,-1.3955 -1.6856,0.6974 2.24766,-3.4875 -2.24766,0.6976 2.24766,-2.7906 5.05862,-9.0685 v -0.6982 l -2.24767,-2.7898 1.68561,-2.0931 -3.37243,0.6974 6.18337,-2.7898 v -2.7905 l 3.93387,0.6974 0.56207,-3.4881 0.56206,-2.7904 h -2.24826 l 1.12413,-2.79 -5.05861,-0.6981 v -0.6974 l 2.81032,-0.6975 -1.68558,-4.883 -2.81094,-0.6975 -2.80975,0.6975 v -1.3956 l 3.37181,-2.0925 v -0.6981 h -2.24767 v -6.9754 l -1.68682,2.0925 1.12475,-4.1855 -1.68681,-1.395 -2.24827,1.395 -0.56146,-2.0924 -2.24888,1.3955 -0.56206,-2.0931 -2.24829,3.4881 -1.68559,-0.6981 -5.62069,1.3949 1.68561,-5.5803 -2.80974,0.6974 c 1.20496,-1.8932 4.60401,-7.0453 2.24827,-7.6729 v -0.6981 l 1.68561,-0.6974 -1.68561,-1.3957 v -0.6969 l 2.24768,-0.6981 v -0.6968 l -2.24768,-1.3956 -3.93508,1.3956 1.12414,-2.0931 -4.49593,0.6975 v -0.6975 l 2.24766,-0.6981 1.12413,-2.0924 v -0.6981 l -1.12413,-1.395 1.68621,-0.6968 v -0.6981 l -3.37181,0.6981 1.12414,-2.7905 -1.6862,1.3948 h -0.56208 l -1.68682,-0.6974 -1.12413,-0.6974 v -4.1863 h -0.56206 l -1.12353,2.7907 h -0.56206 l -1.12474,-2.7907 h -0.56207 l -0.56208,2.7907 -3.93448,1.3956 0.56268,-2.7907 -3.37301,2.0925 v -2.0925 l -2.24767,0.6977 -1.12474,-4.1863 h -0.56207 l -1.12414,2.093 -1.23107,-2.1946 -0.45452,3.5902 -1.12413,-1.3956 h -0.56207 v 2.7907 l -5.79872,-2.8368 2.4263,-4.8363 -3.93508,2.0924 0.56208,-4.1855 -2.80975,0.6977 z m -176.556819,2.0517 -1.659469,2.9456 17.537132,24.2179 3.825708,-6.79 -2.055041,-2.7278 4.920677,-8.7334 3.388207,0.3624 3.8342158,-6.8046 z m 10.03337,7.5926 6.887006,0.7316 -2.706434,4.8028 z m 165.961379,0.8204 3.37301,1.3951 v 4.8835 l -1.6862,-0.6981 v 2.7899 l -2.24889,3.4886 -2.80973,-4.1855 -3.37301,0.6969 -1.12353,-5.5805 c 3.54174,0.3479 5.05192,-0.1129 7.86835,-2.7899 z m 14.0517,6.9754 h 6.1e-4 l 1.68559,2.7906 3.93508,-0.6975 0.56208,2.7905 4.49653,-1.3955 0.90903,4.8659 2.46279,-2.0754 0.39071,2.5399 4.91277,2.2252 c 2.30304,-1.5915 -0.46603,2.3796 2.00401,3.6065 v 1.3949 l -2.2489,0.697 0.56208,2.0931 -3.93386,3.4885 -2.28413,-0.7948 -2.81095,2.0924 0.0359,2.8873 -1.68619,-0.6974 c -0.83406,3.4255 -3.52757,4.2711 -6.18276,4.8829 v 4.1855 l -2.24827,0.6981 c -1.67986,-1.9616 -2.84244,-2.0201 -5.058,-1.3955 l 1.66554,2.8506 c -2.21637,0.705 -7.03584,6.7416 -7.84891,2.0329 l -2.24827,1.3949 c -3.22168,-3.589 -5.47289,-0.2582 -7.86894,2.7906 v -4.8836 l -2.81034,2.093 0.56206,-2.093 -2.24827,0.6981 1.12414,-4.1861 -2.24827,0.6981 1.12413,-2.7906 c -1.52389,0.4021 -1.90797,0.5356 -2.24827,-1.3949 l -5.62068,4.883 -0.56208,-3.4881 h -0.56206 l -1.6862,2.7906 -1.12414,-2.7906 h -0.56206 l -0.56146,2.0925 h -4.49716 l -1.12352,-4.1855 2.80972,-0.6974 -1.6862,-1.3951 1.6862,-2.7904 -1.12413,-1.3957 -7.30628,-1.3949 2.24767,-2.0924 1.6862,-2.7906 -2.24827,-0.6975 0.56207,-2.093 h -2.24767 l 1.6856,-4.1855 -1.6856,1.3956 v -1.3956 l -1.68681,1.3956 -0.56207,-3.4887 -1.686199,-2.7899 c 2.189699,-0.4184 3.374079,-0.411 4.497149,2.093 l 4.49655,0.6969 v -2.7899 l 1.68559,2.093 h 2.24828 l 0.56207,-2.093 2.24827,1.3949 h 0.56206 l 2.24827,-4.1854 8.43103,0.6974 -3.93448,4.883 3.37302,1.3957 -1.12476,5.5809 1.68622,1.395 h 0.56205 c 0.92132,-1.677 2.29595,-3.6013 2.81035,-0.698 h 0.56206 v 0.698 l 10.11723,-3.488 v 5.5805 h 2.24889 0.56147 l 0.56206,-2.7905 h 0.56207 l -1.12413,4.8835 1.6862,0.6981 -1.6862,1.395 1.6862,3.4874 -2.81036,2.093 2.24829,0.6976 v 0.6974 l -1.6856,2.093 h 2.24767 l -0.56207,2.0925 2.81032,-2.7906 h 2.81035 v -3.4874 h 2.81034 v -2.7904 h -5.62069 l 0.56207,-2.0925 6.18337,-2.0931 -3.93509,-3.488 3.37241,0.6976 -2.24827,-2.0931 c 0.51279,-4.2536 -2.07201,-2.7849 -4.49655,-2.79 l 1.12413,-2.7905 -2.24826,0.6981 -4.49655,-1.3955 c 1.45832,-4.3064 5.5615,-5.8864 8.99309,-4.1856 l 2.24828,-2.7905 z m -23.77942,4.146 1.85937,2.7285 2.84923,-1.6643 -1.43099,2.9754 2.86502,1.6376 -3.29038,0.2474 0.0152,3.3013 -1.85938,-2.7279 -2.84983,1.6644 1.4316,-2.9754 -2.86503,-1.6376 3.29039,-0.2469 z m -176.341112,2.2567 -4.704966,16.7566 25.829611,7.2618 4.704357,-16.7561 -6.424589,-1.8066 -2.800619,9.9734 -3.70175,-1.0405 2.305999,-8.2098 -5.720941,-1.6085 -2.304783,8.2098 -3.605744,-1.0136 2.80062,-9.9739 z m 142.646798,0.012 0.964934,3.1573 3.21564,-0.7419 -2.249491,2.4153 2.249491,2.4159 -3.21564,-0.7423 -0.964934,3.1571 -0.965541,-3.1571 -3.21503,0.7423 2.249488,-2.4159 -2.249488,-2.4153 3.21503,0.7419 z m -11.098565,6.1424 c 2.35643,2.5189 3.684949,3.8678 6.745424,2.7899 l 0.562068,4.1855 3.933869,0.6981 0.562069,-2.093 h 0.562068 l 0.562674,4.1861 h 0.562069 l 0.561461,-2.7912 h 0.562067 l 0.562069,2.093 2.248271,-1.3949 -1.12414,6.278 5.62068,-0.6975 -0.56206,3.4879 1.6862,0.6977 -3.93387,4.1855 v -1.3951 l -2.81095,0.6974 v 2.7907 l -1.6862,-1.3956 h -0.562067 l -2.810341,0.698 0.562069,2.79 -2.810341,0.6981 h -0.562068 l -1.685597,-1.3956 c -0.495366,2.8102 -1.954614,1.2999 -3.373015,0 l 1.124136,6.2785 h -2.247667 c -2.307984,-1.066 -1.943371,1.8312 -3.373014,5.5806 l -6.182749,-2.79 1.124136,6.9754 -7.868346,2.093 2.247665,1.395 -1.691066,1.7452 c 0,0 1.125753,-0.349 1.128998,1.0453 0,1.3944 0.89911,4.2064 2.810948,5.5812 v -4.8836 l 5.058612,4.8836 0.562068,-2.7913 c 1.559563,0.5095 3.09584,2.6541 3.371803,0 l 5.62068,3.4887 0.562068,-2.0931 5.058612,4.1855 -1.686204,0.6974 -0.562068,3.4882 2.81034,1.3957 c 2.395751,-1.404 4.469968,-4.0101 6.744818,-1.3957 l -5.620681,6.2786 -2.810341,1.3949 v 0.6975 l 5.058612,0.6982 -0.562067,3.4879 c 1.683497,1.409 1.267707,2.6753 0.562067,4.8825 l 5.62068,-0.6969 v 2.7899 l -3.37241,-1.395 v 3.4881 l -3.050964,-1.15 c 0.32288,1.6716 0.508337,1.4895 -0.882903,1.8474 l 2.730737,3.0758 4.01348,0.4123 v 7.6735 h -3.93448 l 0.56206,4.186 -3.371797,-1.3962 c -0.569549,3.3118 -1.873483,4.0911 -4.497151,3.4887 v 2.7899 l -9.555157,-4.1855 1.686204,1.3956 -1.686204,4.883 -1.685598,-2.7905 0.561463,2.0924 -2.247667,0.6981 -2.810947,-4.883 -8.431021,5.5805 -2.81034,-5.5805 -3.371801,0.6975 v -1.3956 H 57.81421 l 0.562068,-2.7906 -5.058612,2.0931 c -1.390533,-3.7892 -2.314369,-5.6956 -5.620681,-6.9755 l 0.562069,-2.791 -3.373015,-0.6969 c -2.262585,2.5197 -5.374673,1.0214 -6.744817,-2.093 l 2.810947,-1.3951 v -3.4886 h -1.686811 c 0.118572,-3.8066 -2.120686,-13.7304 0.562068,-16.0438 -0.964379,-5.3043 4.963725,-5.5286 7.307492,-9.0693 l 4.495936,0.6974 -1.124135,3.4882 v 0.698 l 1.124135,3.4875 2.810342,1.395 0.562068,-2.0924 4.497151,6.2785 -1.124137,-3.488 3.93387,-1.3949 v -0.6982 c -3.152579,-1.3781 -1.455053,-3.9358 1.124744,-4.1855 l -0.562068,-5.5804 c -1.597167,1.0956 -2.911403,1.9589 -3.372409,-0.6976 l -1.686205,-1.3957 -2.810946,0.6983 -0.562068,-2.7913 c -4.041975,2.2237 -10.12709,8.273 -14.051702,4.8837 v -0.6974 l 1.686811,-2.7907 h -1.124136 l 1.686204,-4.1855 -1.686204,-0.6974 v -0.6975 l 6.744816,-2.7906 -0.562067,-2.093 3.933869,1.395 c 0,-1.9717 0.642293,-1.9459 2.248879,-2.0919 l -0.562068,-3.4885 2.247666,0.698 2.248273,-3.488 3.934476,4.1855 0.562068,-4.1855 2.810947,-0.6981 0.562068,2.093 h 3.371801 l 1.124744,-6.2785 -1.686811,1.3956 v -2.7907 h -2.247666 c -0.606731,2.5724 -1.97126,2.5359 -3.935083,2.0926 l -0.562068,2.093 H 60.62394 l -0.561462,-4.8836 -2.248272,0.698 c -1.581764,-4.9573 1.337185,-4.5227 4.495937,-5.5809 l -1.124135,-2.0925 8.993695,-10.4634 1.685598,0.6968 c 2.126185,-4.0193 7.254091,1.7972 10.679294,1.395 v -0.6969 c -2.881898,-1.0662 -4.15744,-2.5557 -4.496545,-6.2786 h 2.810947 c 0.625485,-2.3103 1.433812,-2.7927 3.371802,-2.7898 z m 21.358589,2.0931 0.56206,0.6968 z m -103.3919672,0.6901 h 0.00306 c -0.1565654,0 -0.3150462,-1e-4 -0.4751745,0.016 -0.1602223,0.018 -0.5312136,0.029 -0.6204024,0.2007 -0.071845,0.1554 0.169066,0.2345 0.2704014,0.2675 0.3141656,0.1141 0.6501633,0.1825 0.9770869,0.2542 0.03751,0 0.059781,0.012 0.066836,0.012 v 6e-4 6e-4 h 6.037e-4 v 6e-4 l 6.079e-4,6e-4 v 6e-4 l -6.079e-4,7e-4 v 5e-4 l -6.068e-4,6e-4 c -0.010583,0 -0.02915,0.012 -0.068658,0.012 l -0.6465298,0.033 c 0.1680182,0.5813 0.6773609,0.6652 1.2025223,0.7809 l 2.7064333,0.6013 c 0.041625,0 0.064978,0.012 0.071092,0.013 v 6e-4 6e-4 h 6.08e-4 v 6e-4 7e-4 l -6.08e-4,6e-4 v 6e-4 h -6.067e-4 -0.069881 c -0.7570287,-0.073 -1.6232135,-0.4557 -2.3509634,-0.2663 0.1357057,0.4518 0.5042629,0.5465 0.9205752,0.6402 0.5999577,0.1354 1.7916987,0.276 2.2689321,0.3284 0.051361,0.012 0.082063,0.014 0.091752,0.022 2.857e-4,2e-4 0.00153,0 0.00176,0 v 6e-4 5e-4 l 6.08e-4,8e-4 v 5e-4 6e-4 l -6.08e-4,6e-4 v 6e-4 6e-4 7e-4 c -0.0107,0.012 -0.034429,0.013 -0.079605,0.015 -0.6135272,0.046 -1.6033145,-0.073 -1.9796947,0.2858 0.8319191,0.5285 1.5720015,0.2543 2.4153735,0.3229 0.07208,0 0.1103305,0.014 0.1136229,0.027 v 7e-4 6e-4 6e-4 6e-4 6e-4 c -0.00212,0.013 -0.037686,0.026 -0.1014764,0.038 l -1.060333,0.1829 c 0.5051954,0.2495 0.8120331,0.6256 1.667975,0.6507 -0.5395422,0.4441 0.049351,0.8301 0.5450533,0.7534 l 0.012158,0.048 c -0.3152709,0.57 0.033253,0.9167 0.537762,1.1469 -0.2805127,0.4981 0.2850772,0.8654 0.7376764,0.757 l 0.013369,0.1001 c -0.4024255,0.621 0.028961,1.3854 0.7747409,1.3189 l 0.01215,0.048 c -0.247975,0.5088 -0.06387,0.8398 0.173178,1.1383 0.142386,0.1806 -0.06056,0.4851 0.405906,0.7164 l 0.01216,0.048 c -0.986885,0.5977 -1.5993898,1.55 -2.3625095,2.3484 -0.341422,0.2481 -0.8518804,0.1651 -1.2043438,0.4294 -0.3446672,0.2533 -0.2717806,0.6101 0.038286,0.8847 -0.1409619,0.2696 0.1589641,0.5401 0.3548618,0.568 1.059e-4,-0.012 -1.999e-4,-0.012 0,-0.014 l 6.08e-4,-6e-4 c 0.010583,0.024 0.046752,0.5027 0.4599837,0.5253 0.2091732,0.3049 0.5466725,0.3854 0.8537359,0.1387 0.5611419,-0.4471 0.7831099,-1.0907 1.4309949,-1.4886 0.925259,-0.5665 2.064215,-0.6779 3.007217,-1.2326 0,-0.012 0.0083,-0.013 0.01035,-0.014 v -5e-4 h 6.08e-4 v -6e-4 h 6.07e-4 l 6.08e-4,-6e-4 6.08e-4,6e-4 h 6.08e-4 6.08e-4 l 6.07e-4,6e-4 6.07e-4,5e-4 c 0.04736,0.038 0.103099,0.6067 0.425349,0.7231 0.138646,0.4715 0.409721,0.7439 0.900525,0.6974 0.131531,0.4871 0.399471,0.7394 0.920576,0.6397 0.152109,0.4336 0.547058,0.7605 1.008078,0.5801 0.142183,0.3064 0.272641,0.601 0.545052,0.8187 0.185751,0.1505 0.452684,0.2061 0.613717,0.3836 0.289743,0.3319 0.617247,1.1632 1.09254,1.2673 0.296833,0.062 0.403831,-0.3132 0.466668,-0.5224 0.06479,0.4248 0.03863,0.8857 0.196875,1.2922 0.173993,0.4515 0.350367,-0.028 0.410158,-0.2614 0,-0.1182 0.0765,-0.2476 0.06016,-0.3625 0.10277,0.6768 0.05933,1.6526 0.436894,2.247 0.126382,0.203 0.317749,0.1359 0.381598,-0.078 0.06679,-0.2206 0.04655,-0.5037 0.01398,-0.756 0.07302,0.4769 0.269331,1.5506 0.651392,2.247 0.02128,0.079 0.113469,0.063 0.101475,-0.02 l 0.119705,-0.7223 c 0.06985,0.464 0.05104,0.9606 0.214497,1.4088 0.106299,0.3215 0.384638,-0.1179 0.384638,-0.1179 0.236535,0.7379 0.127285,1.6586 0.882903,2.0943 0.528501,-0.6822 0.427963,-1.9785 0.302604,-2.7967 -0.349428,-1.8563 -1.144942,-3.69 -1.82353,-5.4466 -0.367584,-0.956 -0.668389,-1.9882 -1.42978,-2.7133 -1.064704,-1.0137 -2.912888,-1.1613 -3.540725,-2.6458 -0.221426,-0.5125 0.157872,-0.7869 0.478822,-1.1318 0.655293,-0.703 1.113113,-1.3024 2.099399,-1.4477 -0.273327,-0.256 -0.474617,-0.4847 -0.840368,-0.3504 -1.207511,-1.8064 -3.08861,0.6856 -4.614426,-0.1227 -1.738446,-0.9231 -1.283686,-3.3904 -2.981694,-4.438 -1.033402,-0.6373 -2.2305928,-1.0791 -3.3499267,-1.5341 -1.2607072,-0.5125 -2.5511954,-1.0846 -3.8803965,-1.3884 -0.4628409,-0.1059 -0.9194416,-0.2073 -1.3890674,-0.2225 z m 187.6365472,8.7888 0.31597,4.3272 4.33613,-0.012 -3.58751,2.4384 2.17899,3.7519 -3.9041,-1.8892 -2.15773,3.7634 -0.31657,-4.3278 -4.33613,0.012 3.58751,-2.4378 -2.17839,-3.7519 3.90348,1.8899 z m -13.98608,3.775 h 1.12415 l 0.56205,6.9755 -0.56205,2.7905 3.93445,-3.4879 h 0.56146 l 3.9351,2.7904 -0.56207,2.0931 1.12414,1.3948 5.05861,-0.698 0.93819,2.7936 3.82693,1.6297 c -2.10031,-0.4537 -3.24552,2.1694 -7.50742,-0.3923 -1.28168,1.0338 -1.70406,0.9637 -2.20511,2.7834 l 7.19568,2.9523 c -2.50945,7.6738 -10.25641,7.0528 -5.62069,16.0451 l -1.68619,0.6974 1.68619,0.6976 -3.37239,3.4874 v 0.698 l 1.6862,2.093 c -2.85372,0.6571 -6.56857,1.4492 -6.18276,-3.4878 l -5.0586,-0.6984 -2.81036,-6.9753 -3.93446,0.6968 -0.56206,2.093 h -1.12415 l -1.6856,-2.7898 -0.56268,4.1855 -5.05799,1.395 v -5.5805 l 1.68559,-0.6981 v -2.0924 l -2.24828,-1.395 2.81036,-3.488 -1.12414,-2.0931 1.68621,-2.7904 h -2.80974 l 1.12353,-1.3951 v -0.6981 l -3.37242,0.6981 2.81035,-3.488 -1.68621,-2.093 -1.12414,-2.7906 v -0.6968 l 2.24889,-2.0931 2.80974,1.395 c 0.70837,-2.6495 1.86929,-2.7754 3.93446,-2.0924 l 0.56207,-3.4881 h 1.12415 l 0.56206,6.2786 2.81033,-1.3956 z m -230.534187,6.4841 -0.03767,2.8641 15.624275,11.7332 -15.929313,11.3159 -0.03706,2.8654 27.075883,0.3587 0.09419,-7.1286 -10.634329,-0.1411 10.281287,-7.1097 6.08e-4,-0.049 -10.08988,-7.3628 10.634936,0.1411 0.09419,-7.128 z m 205.589917,1.2668 1.63272,2.1087 2.21729,-1.4812 -1.00868,2.4694 2.39106,1.1809 -2.64201,0.36 0.17439,2.6628 -1.63274,-2.1088 -2.2179,1.4812 1.0087,-2.4694 -2.39047,-1.1809 2.64142,-0.36 z m -28.45219,2.0151 3.37302,6.2785 3.93386,-1.3955 -1.68619,3.488 7.86894,-2.7899 c 2.39595,3.999 4.36237,2.6467 7.86895,2.7899 1.3882,-3.5743 2.52003,-3.553 5.54047,-2.9012 l 1.20435,2.9012 5.05861,-2.7899 -2.24827,2.7899 -0.56207,3.4881 1.12474,2.7904 h 3.3718 l -0.56207,2.0931 1.6862,0.6969 v 0.698 c -2.06111,1.6069 -2.89719,3.0466 -0.56206,4.8831 l -1.12414,1.3955 v 0.6968 l 1.12414,1.3956 c -3.63527,1.1996 -9.31406,8.3263 -9.55516,-0.6974 h -7.86895 l -3.3724,-7.6736 -7.86895,1.395 -2.24829,6.976 -3.3724,-1.3956 -0.56207,2.7913 -3.37241,0.6974 1.12416,7.6737 -2.24829,-1.3957 c 0.86427,7.2538 -4.82487,5.6562 -6.74482,0.698 h -0.56206 l 2.24887,6.2781 -2.81094,-0.6975 3.93509,2.7906 -1.12415,2.0924 5.05801,2.0925 -2.81034,1.3955 v 0.6975 h 3.3724 v 2.7905 l -6.7448,4.1855 h -0.56208 l 1.12415,-3.4879 -2.24828,-1.3956 2.81094,-0.6969 -8.43162,-2.7906 c 0.82088,-3.0664 0.74228,-4.744 -1.6856,-6.2786 l 2.80973,-5.5804 h -1.6862 l -1.6856,-6.9761 -3.373011,0.6974 v -2.7898 l 5.620681,-6.2786 1.6862,0.6974 -0.56207,-4.1855 -6.744811,2.0931 c -1.383855,-2.7289 -6.303821,-3.8649 -2.247666,-6.976 l -1.686811,-3.4887 5.058608,-3.4874 2.24888,2.7906 v -5.5811 l 0.56207,-0.6976 3.93387,-1.3948 -1.12414,3.4874 1.68681,2.093 0.56207,-2.093 h 2.24767 l 3.93509,2.7911 -0.35304,3.3293 1.66857,0.4238 -0.19201,1.1299 h 1.12414 l 0.19141,-1.1299 1.46197,0.34 0.96372,0.4038 -0.36884,-6.5899 v -0.6981 l 1.68623,0.6981 0.56205,-3.4887 -1.68621,1.3956 z m 61.82749,1.3956 -0.56207,1.3948 z m -97.222587,7.9125 2.200875,4.7541 4.893942,-1.8627 -3.014508,4.2847 4.059044,3.3098 -5.214778,-0.4694 -0.83429,5.1724 -2.200876,-4.7547 -4.894549,1.8632 3.014507,-4.2852 -4.059652,-3.3093 5.215385,0.4695 z m 46.636457,13.0149 1.12413,2.0931 1.68682,-0.6981 v 3.4879 l 1.12352,2.7907 h 4.49654 l 2.24829,-2.7907 -0.56208,3.4881 2.81034,-1.3948 -0.56207,2.7906 3.3724,1.3948 -3.3724,4.1856 -0.56206,4.1855 3.93446,-2.7906 h 0.56208 l 3.93508,0.6982 1.12352,2.0924 v 0.6974 l -2.81032,2.0931 v 0.6975 l 1.12413,0.6975 -7.86895,3.488 c -4.59491,-3.0093 -4.54033,-4.2193 -10.11723,-2.7906 l -2.81035,-4.1855 0.56207,4.8836 -3.3724,-0.6981 0.56206,4.1861 -1.68619,2.0925 -7.30689,-0.698 1.12414,-5.5806 c -1.43227,-0.8484 -2.81036,-2.1909 -0.56207,-2.7898 v -2.7906 l -1.68558,-0.6981 2.24765,-2.7899 0.56206,2.0931 0.56207,-2.0931 2.24889,0.6975 -2.24889,-7.6737 1.12413,-1.3948 3.37243,2.0922 c 0.63603,-2.9951 1.86627,-5.208 4.49652,-4.8829 z m -78.063658,6.9628 0.868926,2.8247 2.876573,-0.6685 -2.010075,2.1649 2.016152,2.1587 -2.878396,-0.6591 -0.859812,2.827 -0.86832,-2.8246 -2.876574,0.6683 2.010079,-2.1648 -2.01737,-2.1589 2.879004,0.6599 z m -82.488501,0.2517 -6.470772,1.6363 2.536295,10.0439 -3.728486,0.9426 -2.087249,-8.2676 -5.760438,1.4558 2.087249,8.2682 -3.630656,0.9183 -2.535687,-10.0445 -6.42216,1.6229 4.260173,16.8759 26.011902,-6.5766 z m 185.989229,0.8628 c 1.48467,-0.065 2.84332,0.5936 3.79046,2.3863 l 1.68681,-0.6968 0.56146,2.0924 4.49655,-2.0924 1.81684,1.3511 1.86182,0.5224 -2.55453,5.1018 3.93449,2.7906 -2.81036,-0.6975 -3.93446,3.488 1.6862,7.673 3.93447,-0.6969 -1.12413,2.0925 1.68621,0.6974 0.56207,3.4879 c -2.06052,0.397 -3.22356,0.5419 -3.93449,-2.093 l -3.93446,-0.6969 c -2.34479,3.1972 -7.51605,-2.2897 -10.11724,-3.4879 l 0.56207,-2.7906 h -2.24828 l 3.37241,-9.0684 h -2.24826 v -4.1857 l -5.62068,1.3951 c 1.43401,-2.7849 5.30873,-6.43 8.57503,-6.5724 z m -15.88191,0.2937 0.56206,0.6974 z m 34.39673,3.2863 0.0316,2.5418 2.53628,0.1485 -2.18507,1.2975 1.14054,2.2731 -2.21606,-1.2447 -1.39576,2.124 -0.0316,-2.5431 -2.53691,-0.1476 2.1857,-1.2978 -1.14054,-2.2725 2.21607,1.2449 z m 10.00663,3.6899 -0.56268,2.7899 5.62069,2.093 v 1.3957 l -1.68559,2.0924 h 2.24827 l -1.12414,2.0925 6.74421,-0.697 v 0.697 c -1.76103,1.9016 -2.90149,3.9259 -1.12353,6.2785 l -2.24827,1.3949 1.12413,6.2785 -5.0586,2.7907 c -1.61002,-1.7538 -2.50568,-1.5281 -4.49717,-0.6976 l -0.56145,-4.1855 -2.81033,0.6976 -1.68621,-2.0931 c -1.09532,10.4561 -3.77218,1.9896 -5.62129,-2.7906 h 2.24888 v -0.6969 l -2.24888,-0.698 0.56269,-2.093 -4.49656,-2.0925 v -0.6975 l 7.30688,-1.3955 -1.12413,-4.1849 h 3.37241 c -0.43272,-4.8566 2.09719,-6.173 5.62067,-6.2786 z m -48.67266,10.8599 1.35626,4.5498 4.63023,-1.035 -3.25879,3.4502 3.21018,3.496 -4.61504,-1.0988 -1.41946,4.5297 -1.35624,-4.5491 -4.63085,1.0343 3.25941,-3.4509 -3.21078,-3.4948 4.61502,1.0989 z m -164.35659,3.4825 c -1.146085,-0.033 -2.316353,0.2048 -3.465379,0.7632 -3.563223,1.7317 -4.6547,5.3542 -4.409651,9.901 0.172192,3.1382 0.641821,5.0208 -0.466061,5.5592 -0.823406,0.4001 -1.955462,-0.2163 -2.595234,-1.5349 -0.559826,-1.1536 -0.907254,-3.2808 0.0164,-4.6185 l -5.358786,-1.9689 c -1.922469,2.1007 -2.263668,5.8218 -0.475177,9.5075 2.224687,4.5847 7.130536,7.1068 11.307594,5.0769 3.638021,-1.768 4.371677,-5.3651 4.206092,-9.0617 -0.100301,-2.8767 -0.206629,-5.8797 1.036029,-6.4835 0.988108,-0.4802 2.128726,0.6128 2.790288,1.9763 0.981512,2.0226 0.992447,4.3324 0,6.0565 l 5.685699,2.0324 c 2.076116,-2.5088 2.075501,-6.9713 0.148871,-10.9415 h 6.08e-4 c -1.761245,-3.6295 -4.9801,-6.1652 -8.41826,-6.264 z m 151.76385,2.3996 -1.12415,4.1855 5.62129,-1.395 0.56146,4.1855 -0.56146,2.7905 0.56146,0.6976 5.05923,-1.3956 -1.68682,5.5811 c -3.00188,-2.3286 -4.75542,-0.4476 -5.62067,-6.278 -2.66716,1.7146 -4.90437,1.4695 -5.05862,-2.7906 l -2.81034,1.395 c 0.8751,-3.4012 2.21544,-5.964 5.05862,-6.976 z m -9.36862,5.8536 0.28741,6.4104 6.41062,0.1635 -5.40375,3.4546 3.06373,5.637 -5.69178,-2.9559 -3.34688,5.4742 -0.28742,-6.4107 -6.41001,-0.1635 5.40376,-3.4546 -3.06373,-5.6376 5.69117,2.9559 z m 62.69459,5.0409 3.74368,3.6304 3.88221,-3.4826 -1.26996,5.0606 4.9541,1.623 -5.01305,1.429 1.07188,5.1055 -3.74367,-3.6303 -3.88162,3.4825 1.26997,-5.0599 -4.9547,-1.6235 5.01425,-1.4297 z m -35.90187,0.965 1.12415,2.7901 h 1.12412 l 0.56207,-2.0931 h 0.56206 v 3.4885 l 3.37242,-3.4885 v 4.8836 l 5.62068,-2.7905 -1.68621,2.0923 v 0.6982 h 6.74483 v 1.3949 c -7.95747,1.4586 -20.54125,8.2692 -21.3586,19.5325 -4.22386,-3.9916 1.50669,-21.9489 3.93448,-26.508 z m -18.54825,12.556 h 0.56269 l 0.56146,11.8595 h -0.56146 l -5.05921,-9.7664 h 3.93445 z m -155.957169,5.6449 a 1.6852647,1.6865181 0 0 0 -1.418234,2.5077 c 0.01058,0.012 0.119658,0.2407 0.786287,1.3148 0.696425,1.1222 1.862296,2.9184 3.518244,5.1991 0.68041,0.9371 1.491808,2.0259 2.43421,3.2357 4.837701,6.2097 11.767498,13.8446 20.8882718,21.1653 7.311199,5.8684 15.9873922,11.6382 26.5277902,16.4756 2.815507,1.2923 6.160588,2.693 9.979291,4.0604 8.516064,3.0492 17.96388,5.424 28.319114,6.7662 10.28298,1.3327 18.977319,1.3183 24.465456,1.1566 -5.493005,-0.042 -14.167278,-0.4095 -24.306861,-2.1977 -10.220142,-1.8022 -19.393494,-4.5894 -27.627011,-7.9514 -3.688877,-1.5063 -6.904085,-3.0112 -9.61653,-4.369 -10.006311,-5.0093 -18.6611479,-10.8594 -25.6193664,-16.5614 -8.8606276,-7.2614 -15.5851746,-14.5657 -20.3480806,-20.6303 -0.920507,-1.172 -1.710159,-2.2257 -2.369192,-3.1336 -1.603952,-2.2088 -2.724919,-3.9357 -3.382129,-4.9949 -0.628826,-1.0132 -0.714281,-1.1927 -0.707296,-1.1802 a 1.6852647,1.6865181 0 0 0 -1.523964,-0.8629 z" />
  </g>
</svg>
