<?xml version="1.0" encoding="UTF-8" standalone="no"?>
<!-- Created with Inkscape (http://www.inkscape.org/) -->

<svg
   width="264.58334mm"
   height="264.58319mm"
   viewBox="0 0 264.58334 264.58319"
   version="1.1"
   id="svg1"
   sodipodi:docname="favicon.svg"
   inkscape:version="1.4.4 (dcaf3e7, 2026-05-05)"
   xmlns:inkscape="http://www.inkscape.org/namespaces/inkscape"
   xmlns:sodipodi="http://sodipodi.sourceforge.net/DTD/sodipodi-0.dtd"
   xmlns="http://www.w3.org/2000/svg"
   xmlns:svg="http://www.w3.org/2000/svg">
  <sodipodi:namedview
     id="namedview1"
     pagecolor="#505050"
     bordercolor="#eeeeee"
     borderopacity="1"
     inkscape:showpageshadow="0"
     inkscape:pageopacity="0"
     inkscape:pagecheckerboard="0"
     inkscape:deskcolor="#505050"
     inkscape:document-units="mm"
     inkscape:zoom="0.064125035"
     inkscape:cx="343.07974"
     inkscape:cy="1925.9249"
     inkscape:window-width="1366"
     inkscape:window-height="715"
     inkscape:window-x="-8"
     inkscape:window-y="-8"
     inkscape:window-maximized="1"
     inkscape:current-layer="svg1" />
  <defs
     id="defs1" />
  <g
     id="layer1"
     transform="translate(54.504162,-1148.8209)">
    <path
       id="path43-2"
       style="display:inline;fill:none;fill-opacity:1;stroke:none;stroke-width:2.36441"
       d="m -54.50416,1148.8208 h 264.58334 v 264.5833 H -54.50416 Z" />
    <path
       id="path51-4-5"
       style="font-weight:bold;font-size:35.2777px;line-height:0;font-family:'LEMON MILK';-inkscape-font-specification:'LEMON MILK Bold';text-align:center;letter-spacing:0px;text-orientation:upright;text-anchor:middle;display:inline;fill:#00cc00;fill-opacity:1;stroke:none;stroke-width:0.460318;stroke-miterlimit:2.5"
       d="m 83.313083,1148.821 -17.388844,0.3209 0.494011,26.8443 17.389453,-0.3199 -0.123352,-6.6786 -10.349937,0.1909 -0.07109,-3.8469 8.520334,-0.1568 -0.109989,-5.9453 -8.519725,0.1575 -0.06927,-3.7472 10.350546,-0.1914 z m 16.3832,1.93 c -4.311535,-0.1024 -8.193498,2.2652 -8.945681,6.261 -0.748715,3.9774 1.700909,6.7101 4.76633,8.7795 2.368491,1.633 4.842258,3.3367 4.586468,4.6952 -0.20328,1.0804 -1.760619,1.3465 -3.249052,1.0659 -2.208057,-0.4163 -4.067309,-1.7844 -4.858084,-3.6114 l -5.01911,3.3591 c 0.776394,3.1632 4.357354,5.8214 8.691688,6.6385 5.282908,0.9959 10.549388,-1.2481 11.495328,-6.2731 0.73333,-3.8957 -1.52368,-6.9311 -5.31866,-9.4431 -2.621033,-1.7315 -4.411629,-2.4762 -4.183608,-3.6874 0.169441,-0.9002 1.338242,-1.4427 2.777518,-1.1712 1.25938,0.2373 3.17365,1.2257 3.6969,2.765 l 4.77361,-3.1341 c -0.54045,-2.7967 -3.32346,-5.2878 -7.34698,-6.0463 -0.62559,-0.1179 -1.25071,-0.1829 -1.866667,-0.1976 z m -51.084326,1.6321 c -0.986979,-0.021 -2.01856,0.089 -3.073444,0.3472 l -9.894816,2.4196 6.402098,26.0738 6.919202,-1.6923 -2.765372,-11.3257 9.733791,9.6218 8.100454,-1.9812 -9.540562,-8.7602 c 2.26999,-1.7897 3.561929,-4.9863 2.767803,-8.2384 -0.927892,-3.799 -4.372284,-6.3716 -8.649154,-6.4646 z m 73.185413,4.5515 v 7e-4 a 1.6852625,1.6865159 0 0 0 -0.48307,3.3062 c -0.0141,0 0.17991,0.039 1.30825,0.4233 1.17923,0.4019 3.11395,1.1052 5.62615,2.1708 1.03227,0.4378 2.23599,0.9699 3.58446,1.6029 6.97838,3.2759 15.60527,8.1844 24.67263,15.1853 7.12046,5.4978 14.76766,12.6166 21.9012,21.2425 1.93361,2.3381 4.12439,5.1337 6.42274,8.3904 5.12997,7.2691 9.9118,15.5839 13.97148,25.1416 4.02778,9.4823 6.34045,17.8569 7.62163,23.2024 -1.08041,-5.3872 -3.02781,-13.8672 -6.64455,-23.5921 -3.64216,-9.793 -8.08443,-18.4692 -12.97372,-26.0842 -2.19245,-3.4146 -4.31033,-6.3589 -6.20341,-8.8125 -7.08671,-9.1852 -14.66084,-16.3434 -22.02271,-22.1479 -9.184,-7.2411 -18.17975,-12.2749 -25.31612,-15.5909 -1.39033,-0.646 -2.63299,-1.1917 -3.69869,-1.6436 -2.59378,-1.1 -4.60497,-1.8321 -5.85463,-2.2579 -1.19594,-0.4077 -1.44334,-0.4654 -1.45712,-0.4694 a 1.6852625,1.6865159 0 0 0 -0.45452,-0.067 z m -74.057984,1.9679 c 1.188649,0.021 2.307001,0.7118 2.628045,2.0261 0.391184,1.602 -0.697788,2.965 -2.172923,3.3087 l -2.833427,0.6755 -1.276044,-5.2254 2.829173,-0.6926 c 0.272917,-0.066 0.550838,-0.098 0.825176,-0.092 z m -28.362829,4.135 c -2.34415,0.092 -4.742491,0.7548 -7.015209,2.0304 -7.2724683,4.0824 -9.8585364,12.543 -5.9178083,19.5739 3.9082983,6.9727 12.4399793,9.1538 19.7124613,5.0714 7.286966,-4.0902 9.889195,-12.5213 5.981003,-19.4941 -2.709313,-4.8335 -7.603295,-7.3854 -12.760447,-7.1816 z m -0.108155,6.9219 c 2.64597,-0.084 5.164987,1.2578 6.55887,3.7446 2.019156,3.6027 0.729493,7.9738 -2.986552,10.0597 -3.716035,2.0859 -8.1168,0.9081 -10.13605,-2.6945 -2.027364,-3.6171 -0.74528,-8.0035 2.970754,-10.0895 1.161287,-0.6519 2.390242,-0.9827 3.592978,-1.0203 z m -27.1287114,14.3898 c -3.4297486,0.1721 -6.9125496,1.8965 -10.1074906,5.1531 l -6.144459,6.2408 19.0641087,18.8685 6.1560041,-6.2293 c 6.4135883,-6.4895 6.7370098,-14.0175 0.8203147,-19.8737 -2.9820175,-2.9515 -6.3588239,-4.3314 -9.7884779,-4.1594 z m 0.4326396,7.1932 c 1.5336101,0.062 3.0129907,0.7388 4.3227531,2.0353 2.95839454,2.928 2.70924009,6.7811 -0.6380218,10.1679 l -1.1934055,1.2077 -9.573374,-9.4754 1.146617,-1.1608 c 1.902511,-1.9251 3.9636032,-2.8561 5.9354312,-2.7747 z m 147.3029598,20.3225 -0.56207,2.093 -2.24766,-1.395 -1.12474,1.395 -2.24828,0.698 -2.80973,2.0931 -1.6868,-1.3954 0.56207,2.7898 h -2.81033 l 0.56205,2.0931 -2.24766,-0.6981 -1.12474,2.7911 v 4.1855 h -1.12413 l -0.56207,-2.7904 h -1.12412 l -4.49655,5.5803 -2.24767,-6.278 -2.81093,4.1855 -1.6856,-0.6974 1.12353,2.7899 -3.93448,-3.4873 -0.56207,5.5804 1.12414,2.7905 -8.431007,-3.488 -0.562067,2.0925 c -2.371431,-0.4891 -4.116428,-0.128 -5.058606,2.7905 l -2.80973,-0.6975 -0.562674,-3.488 -6.744808,-0.6975 -2.247663,4.883 -2.248876,-1.395 -0.562067,2.7899 -1.686202,-2.0924 -3.371797,-1.3956 0.562067,3.488 -0.562067,3.4881 -1.686809,1.3956 2.248876,1.3949 v 0.6981 l -1.686809,-0.6981 3.935078,4.1855 v 0.6976 l -6.18274,-3.4881 -0.562067,2.093 -5.058606,-3.488 0.562067,4.1855 -2.248269,-0.6975 -0.562675,4.1855 -3.933865,-1.395 v 3.4881 l -5.620673,-1.395 1.685596,4.8824 c -2.247072,0.4064 -3.307259,1.4645 -3.934472,4.1861 l 4.496539,1.3949 c -0.95363,1.7516 -3.582007,5.2105 -1.123528,5.5805 v 0.6981 l -1.124135,2.0925 -5.058606,-1.3956 1.123528,-4.1849 -4.496539,1.3949 -1.124134,9.0686 h -5.058611 l -3.934471,4.8835 1.124741,6.976 h -2.248876 l 1.686809,3.4874 -5.620673,1.395 v 0.6981 l 3.933864,6.2786 1.686809,1.3949 5.058606,-1.3949 -5.62128,3.4879 0.562674,2.0925 -5.058606,2.0931 2.248269,2.0924 -1.124134,2.0931 1.685595,4.1849 -0.672051,1.2551 c 0.06479,0.3324 -0.497412,1.0006 -0.40165,1.6582 l -0.04982,0.5754 v 2.0924 l -3.934471,2.7905 v 1.3949 h 3.372404 l 0.659897,4.0986 3.836641,-0.6105 v 2.7905 l 1.124135,-0.698 v 4.1855 h 3.935079 l 2.247661,-1.3945 -0.562067,2.7901 5.058606,2.0922 -0.561459,2.0931 h 1.123526 l -0.562067,2.0931 1.686202,-0.6975 -1.124135,4.883 5.620673,-3.4879 1.124135,1.3948 -1.686202,2.7907 0.562067,3.488 c 2.091519,-0.7517 10.665319,-7.6331 11.241348,-2.0926 l 2.248877,-1.3954 1.686202,4.8829 2.809728,-2.7899 1.68681,3.4879 1.685594,-0.698 -1.123526,2.093 6.744199,-1.395 3.93508,-4.1855 -1.124742,3.4875 2.810337,-2.0925 -0.562068,1.3951 1.686202,-0.6975 -0.562067,2.7898 2.810337,-0.6969 -1.124135,4.1856 3.934471,-2.093 c 0.33352,2.4138 2.767008,0.1129 3.935079,-0.6976 l -0.562067,4.1856 3.371796,-4.8837 h 0.562067 v 2.7906 l 2.248878,-2.7906 h 0.56146 l 1.6862,2.0931 -0.56207,-4.8829 3.37301,-2.7906 h 1.12352 l 1.68622,2.7906 0.56206,-2.0926 c 11.38112,9.2993 13.99168,38.4231 9.47251,49.0378 -4.5192,10.6146 -15.39931,12.5093 -23.104312,14.6479 12.849372,-1.7975 24.143522,-5.4964 33.075682,-9.2869 13.72992,-5.8265 21.92002,-11.9053 21.92002,-11.9053 0,0 -4.08746,-3.0553 -4.44246,-7.9026 -0.355,-4.8473 -0.36966,-13.0817 2.72405,-22.0332 2.1127,-6.1128 6.13654,-7.6323 9.25436,-11.8601 h 0.56207 c 5.12379,3.9319 12.99759,-8.178 16.29995,-0.6976 l 1.6862,-0.698 v 1.3956 l 2.24827,0.6974 2.24827,-2.093 v 2.7906 h 0.56146 l 1.12414,-2.0926 0.56207,3.4875 h 0.56207 l 1.45894,-0.7723 1.35199,-3.4132 1.13507,3.4983 2.06295,-1.5104 c 0.13773,-2.2004 -0.0773,-3.582 1.7585,-3.8638 l 0.57241,-0.1181 c 2.88411,-5.6916 7.72921,-13.784 11.95775,-28.6746 2.99165,-10.535 4.51355,-20.1568 4.94072,-29.8275 l -1.07431,-2.3538 c -0.57481,-3.3289 -0.12037,11.0957 -2.2434,11.2284 l 0.56207,-2.7906 -2.81035,0.6974 1.84845,-3.0093 -3.32683,1.4739 -2.45608,3.6286 c 3.92025,-1.3822 -1.05397,3.7436 7.24611,7.7379 -2.04905,3.9934 -3.87311,10.3996 -3.87311,10.3996 l -0.56206,-2.093 -0.56206,-4.8837 -3.37302,2.093 1.12414,-2.7898 -5.62067,-1.3955 -1.6856,0.6974 2.24766,-3.4875 -2.24766,0.6976 2.24766,-2.7906 5.05861,-9.0684 v -0.6982 l -2.24767,-2.7898 1.68561,-2.0931 -3.37242,0.6974 6.18336,-2.7898 v -2.7905 l 3.93386,0.6974 0.56207,-3.4881 0.56206,-2.7904 h -2.24826 l 1.12413,-2.79 -5.0586,-0.6981 v -0.6974 l 2.81032,-0.6975 -1.68558,-4.883 -2.81094,-0.6975 -2.80974,0.6975 v -1.3956 l 3.3718,-2.0925 v -0.6981 h -2.24767 v -6.9754 l -1.68681,2.0925 1.12474,-4.1855 -1.6868,-1.395 -2.24827,1.395 -0.56146,-2.0924 -2.24888,1.3955 -0.56206,-2.0931 -2.24828,3.4881 -1.68559,-0.6981 -5.62068,1.3949 1.6856,-5.5803 -2.80973,0.6974 c 1.20496,-1.8932 4.604,-7.0453 2.24827,-7.6729 v -0.6981 l 1.6856,-0.6974 -1.6856,-1.3957 v -0.6969 l 2.24767,-0.6981 v -0.6968 l -2.24767,-1.3956 -3.93508,1.3956 1.12414,-2.0931 -4.49593,0.6975 v -0.6975 l 2.24766,-0.6981 1.12413,-2.0924 v -0.6981 l -1.12413,-1.395 1.68621,-0.6968 v -0.6981 l -3.37181,0.6981 1.12414,-2.7905 -1.6862,1.3948 H 174.162 l -1.68682,-0.6974 -1.12413,-0.6974 v -4.1862 h -0.56206 l -1.12353,2.7906 h -0.56206 l -1.12474,-2.7906 h -0.56207 l -0.56208,2.7906 -3.93447,1.3956 0.56268,-2.7907 -3.37301,2.0925 v -2.0925 l -2.24766,0.6977 -1.12474,-4.1862 h -0.56207 l -1.12414,2.093 -1.23107,-2.1946 -0.45452,3.5901 -1.12413,-1.3955 h -0.56207 v 2.7906 l -5.79871,-2.8367 2.4263,-4.8363 -3.93508,2.0924 0.56208,-4.1855 -2.80974,0.6977 z m -176.55659,2.0517 -1.659466,2.9456 17.537109,24.2178 3.825703,-6.79 -2.055039,-2.7278 4.920671,-8.7334 3.388203,0.3624 3.8342105,-6.8045 z m 10.033357,7.5926 6.886997,0.7315 -2.70643,4.8028 z m 165.961163,0.8203 3.37301,1.3951 v 4.8835 l -1.6862,-0.6981 v 2.7899 l -2.24889,3.4886 -2.80972,-4.1855 -3.37301,0.6969 -1.12353,-5.5805 c 3.54174,0.3479 5.05191,-0.1129 7.86834,-2.7899 z m 14.05168,6.9754 h 6.1e-4 l 1.68559,2.7906 3.93508,-0.6975 0.56207,2.7905 4.49653,-1.3955 0.90903,4.8659 2.46278,-2.0754 0.39071,2.5399 4.91277,2.2252 c 2.30303,-1.5915 -0.46603,2.3796 2.004,3.6065 v 1.3949 l -2.24889,0.697 0.56208,2.0931 -3.93386,3.4885 -2.28413,-0.7948 -2.81094,2.0924 0.0359,2.8873 -1.68619,-0.6974 c -0.83406,3.4255 -3.52756,4.2711 -6.18275,4.8829 v 4.1855 l -2.24827,0.6981 c -1.67986,-1.9616 -2.84243,-2.0201 -5.05799,-1.3955 l 1.66554,2.8506 c -2.21637,0.705 -7.03583,6.7416 -7.8489,2.0329 l -2.24827,1.3949 c -3.22168,-3.589 -5.47288,-0.2582 -7.86893,2.7906 v -4.8836 l -2.81034,2.093 0.56206,-2.093 -2.24826,0.6981 1.12413,-4.1861 -2.24826,0.6981 1.12413,-2.7906 c -1.52389,0.4021 -1.90797,0.5356 -2.24827,-1.3949 l -5.62067,4.883 -0.56208,-3.4881 h -0.56206 l -1.6862,2.7906 -1.12414,-2.7906 h -0.56206 l -0.56146,2.0925 h -4.49715 l -1.12352,-4.1855 2.80972,-0.6974 -1.6862,-1.3951 1.6862,-2.7904 -1.12413,-1.3957 -7.30627,-1.3949 2.24766,-2.0924 1.6862,-2.7906 -2.24827,-0.6975 0.56207,-2.093 h -2.24766 l 1.68559,-4.1855 -1.68559,1.3956 v -1.3956 l -1.68681,1.3956 -0.56207,-3.4887 -1.686197,-2.7899 c 2.189697,-0.4184 3.374077,-0.411 4.497147,2.093 l 4.49654,0.6969 v -2.7899 l 1.68559,2.093 h 2.24827 l 0.56207,-2.093 2.24827,1.3949 h 0.56206 l 2.24827,-4.1854 8.43102,0.6974 -3.93448,4.883 3.37302,1.3957 -1.12476,5.5809 1.68622,1.395 h 0.56205 c 0.92131,-1.677 2.29594,-3.6013 2.81034,-0.698 h 0.56206 v 0.698 l 10.11722,-3.488 v 5.5805 h 2.24889 0.56146 l 0.56206,-2.7905 h 0.56207 l -1.12413,4.8835 1.6862,0.6981 -1.6862,1.395 1.6862,3.4874 -2.81035,2.093 2.24828,0.6976 v 0.6974 l -1.68559,2.093 h 2.24766 l -0.56207,2.0925 2.81032,-2.7906 h 2.81035 v -3.4874 h 2.81033 v -2.7904 h -5.62068 l 0.56207,-2.0925 6.18336,-2.0931 -3.93508,-3.488 3.3724,0.6976 -2.24827,-2.0931 c 0.51279,-4.2536 -2.072,-2.7849 -4.49654,-2.79 l 1.12413,-2.7905 -2.24826,0.6981 -4.49654,-1.3955 c 1.45832,-4.3064 5.56149,-5.8864 8.99308,-4.1856 l 2.24827,-2.7905 z m -23.77939,4.146 1.85937,2.7285 2.84923,-1.6643 -1.43099,2.9754 2.86502,1.6376 -3.29038,0.2474 0.0152,3.3013 -1.85938,-2.7279 -2.84982,1.6644 1.43159,-2.9754 -2.86502,-1.6376 3.29038,-0.2469 z m -176.340879,2.2567 -4.70496,16.7566 25.829577,7.2618 4.704351,-16.7561 -6.424581,-1.8066 -2.800615,9.9734 -3.701745,-1.0405 2.305996,-8.2098 -5.720934,-1.6085 -2.30478,8.2098 -3.605739,-1.0136 2.800616,-9.9739 z m 142.646612,0.012 0.964933,3.1573 3.215634,-0.7419 -2.249486,2.4153 2.249486,2.4159 -3.215634,-0.7423 -0.964933,3.1571 -0.96554,-3.1571 -3.215025,0.7423 2.249485,-2.4159 -2.249485,-2.4153 3.215025,0.7419 z m -11.09855,6.1424 c 2.356426,2.5189 3.684944,3.8678 6.745415,2.7899 l 0.562067,4.1855 3.933864,0.6981 0.562068,-2.093 h 0.562067 l 0.562674,4.1861 h 0.562068 l 0.56146,-2.7912 h 0.562067 l 0.562068,2.093 2.248269,-1.3949 -1.12414,6.278 5.62067,-0.6975 -0.56206,3.4879 1.6862,0.6977 -3.93386,4.1855 v -1.3951 l -2.81095,0.6974 v 2.7907 l -1.686197,-1.3956 h -0.562067 l -2.810337,0.698 0.562068,2.79 -2.810337,0.6981 h -0.562067 l -1.685595,-1.3956 c -0.495366,2.8102 -1.954612,1.2999 -3.373011,0 l 1.124135,6.2785 h -2.247664 c -2.307981,-1.066 -1.943369,1.8312 -3.37301,5.5806 l -6.182741,-2.79 1.124135,6.9754 -7.868336,2.093 2.247662,1.395 -1.691064,1.7452 c 0,0 1.125752,-0.349 1.128997,1.0453 0,1.3944 0.899108,4.2064 2.810944,5.5812 v -4.8836 l 5.058605,4.8836 0.562068,-2.7913 c 1.559561,0.5095 3.095836,2.6541 3.371798,0 l 5.620673,3.4887 0.562067,-2.0931 5.058606,4.1855 -1.686202,0.6974 -0.562067,3.4881 2.810336,1.3957 c 2.395748,-1.404 4.469961,-4.0101 6.744811,-1.3957 l -5.620676,6.2786 -2.810337,1.3949 v 0.6975 l 5.058606,0.6982 -0.562067,3.4879 c 1.683494,1.409 1.267704,2.6753 0.562067,4.8825 l 5.620677,-0.6969 v 2.7899 l -3.37241,-1.395 v 3.4881 l -3.05096,-1.15 c 0.322879,1.6716 0.508336,1.4895 -0.882902,1.8474 l 2.730732,3.0758 4.01348,0.4123 v 7.6735 h -3.93448 l 0.56206,4.186 -3.371792,-1.3962 c -0.569549,3.3118 -1.873481,4.0911 -4.497145,3.4887 v 2.7899 l -9.555145,-4.1855 1.686202,1.3956 -1.686202,4.883 -1.685596,-2.7905 0.561462,2.0924 -2.247664,0.6981 -2.810943,-4.883 -8.43101,5.5805 -2.810336,-5.5805 -3.371797,0.6975 v -1.3956 h -5.058607 l 0.562067,-2.7906 -5.058606,2.0931 c -1.390531,-3.7892 -2.314366,-5.6956 -5.620673,-6.9755 l 0.562068,-2.791 -3.373011,-0.6969 c -2.262582,2.5197 -5.374666,1.0214 -6.744808,-2.093 l 2.810944,-1.3951 v -3.4886 h -1.686809 c 0.118572,-3.8066 -2.120684,-13.7304 0.562067,-16.0438 -0.964378,-5.3043 4.963719,-5.5286 7.307482,-9.0692 l 4.495931,0.6974 -1.124134,3.4881 v 0.698 l 1.124134,3.4875 2.810338,1.395 0.562067,-2.0924 4.497145,6.2785 -1.124135,-3.488 3.933865,-1.3949 v -0.6982 c -3.152575,-1.3781 -1.455051,-3.9358 1.124742,-4.1855 l -0.562067,-5.5803 c -1.597165,1.0956 -2.911399,1.9589 -3.372405,-0.6976 l -1.686202,-1.3957 -2.810943,0.6983 -0.562067,-2.7913 c -4.04197,2.2237 -10.127077,8.2729 -14.051684,4.8837 v -0.6974 l 1.686809,-2.7907 h -1.124134 l 1.686201,-4.1855 -1.686201,-0.6974 v -0.6975 l 6.744807,-2.7906 -0.562067,-2.093 3.933864,1.395 c 0,-1.9717 0.642293,-1.9459 2.248876,-2.0919 l -0.562067,-3.4885 2.247663,0.698 2.24827,-3.488 3.934471,4.1855 0.562067,-4.1855 2.810944,-0.6981 0.562067,2.093 h 3.371797 l 1.124742,-6.2785 -1.686809,1.3956 v -2.7907 H 65.68301 c -0.60673,2.5724 -1.971257,2.5359 -3.935078,2.0926 l -0.562067,2.093 h -0.562072 l -0.561461,-4.8836 -2.248269,0.698 c -1.581762,-4.9573 1.337183,-4.5227 4.495931,-5.5809 l -1.124134,-2.0925 8.993684,-10.4634 1.685595,0.6968 c 2.126183,-4.0193 7.254082,1.7972 10.67928,1.395 v -0.6969 c -2.881894,-1.0662 -4.157434,-2.5557 -4.496539,-6.2786 h 2.810944 c 0.625484,-2.3103 1.43381,-2.7927 3.371797,-2.7898 z m 21.358557,2.0931 0.56206,0.6968 z m -103.391829,0.6901 h 0.00306 c -0.1565652,0 -0.3150458,-10e-5 -0.4751739,0.016 -0.1602221,0.018 -0.5312129,0.029 -0.6204016,0.2007 -0.071845,0.1554 0.1690658,0.2345 0.270401,0.2675 0.3141652,0.1141 0.6501625,0.1825 0.9770857,0.2542 0.03751,0 0.059781,0.012 0.066836,0.012 v 6e-4 6e-4 h 6.037e-4 v 6e-4 l 6.079e-4,6e-4 v 6e-4 l -6.079e-4,7e-4 v 5e-4 l -6.068e-4,6e-4 c -0.010583,0 -0.02915,0.012 -0.068658,0.012 l -0.646529,0.033 c 0.168018,0.5813 0.67736,0.6652 1.2025207,0.7809 l 2.7064298,0.6013 c 0.041625,0 0.064978,0.012 0.071092,0.013 v 6e-4 6e-4 h 6.08e-4 v 6e-4 7e-4 l -6.08e-4,6e-4 v 6e-4 h -6.067e-4 -0.069881 c -0.7570277,-0.073 -1.6232114,-0.4557 -2.3509603,-0.2663 0.1357055,0.4518 0.5042622,0.5465 0.920574,0.6402 0.5999569,0.1354 1.7916963,0.276 2.2689291,0.3284 0.051361,0.012 0.082063,0.014 0.091752,0.022 2.857e-4,2e-4 0.00153,0 0.00176,0 v 6e-4 5e-4 l 6.08e-4,8e-4 v 5e-4 6e-4 l -6.08e-4,6e-4 v 6e-4 6e-4 7e-4 c -0.0107,0.012 -0.034429,0.013 -0.079605,0.015 -0.6135264,0.046 -1.6033124,-0.073 -1.9796921,0.2858 0.831918,0.5285 1.5719994,0.2543 2.4153703,0.3229 0.07208,0 0.1103304,0.014 0.1136228,0.027 v 7e-4 6e-4 6e-4 6e-4 6e-4 c -0.00212,0.013 -0.037686,0.026 -0.1014763,0.038 l -1.0603316,0.1829 c 0.5051947,0.2495 0.812032,0.6256 1.6679728,0.6507 -0.5395415,0.4441 0.049351,0.8301 0.5450526,0.7534 l 0.012158,0.048 c -0.3152705,0.57 0.033253,0.9167 0.5377613,1.1469 -0.2805123,0.4981 0.2850768,0.8654 0.7376755,0.757 l 0.013369,0.1001 c -0.4024249,0.621 0.028961,1.3854 0.77474,1.3189 l 0.01215,0.048 c -0.247975,0.5088 -0.06387,0.8398 0.173178,1.1383 0.142385,0.1806 -0.06056,0.4851 0.405905,0.7164 l 0.01216,0.048 c -0.986884,0.5977 -1.5993876,1.55 -2.3625063,2.3484 -0.3414215,0.2481 -0.8518793,0.1651 -1.2043422,0.4294 -0.3446668,0.2533 -0.2717803,0.6101 0.038286,0.8847 -0.1409617,0.2696 0.1589639,0.5401 0.3548614,0.568 1.059e-4,-0.012 -1.999e-4,-0.012 0,-0.014 l 6.08e-4,-6e-4 c 0.010583,0.024 0.046752,0.5027 0.4599831,0.5253 0.2091729,0.3049 0.5466718,0.3854 0.8537348,0.1387 0.5611412,-0.4471 0.7831082,-1.0907 1.4309932,-1.4886 0.925257,-0.5665 2.064212,-0.6779 3.007213,-1.2326 0,-0.012 0.0083,-0.013 0.01035,-0.014 v -5e-4 h 6.08e-4 v -6e-4 h 6.07e-4 l 6.08e-4,-6e-4 6.08e-4,6e-4 h 6.08e-4 6.08e-4 l 6.07e-4,6e-4 6.07e-4,5e-4 c 0.04736,0.038 0.103099,0.6067 0.425348,0.7231 0.138646,0.4715 0.409721,0.7439 0.900524,0.6974 0.131531,0.4871 0.39947,0.7394 0.920575,0.6397 0.152109,0.4336 0.547057,0.7605 1.008076,0.5801 0.142183,0.3064 0.272641,0.601 0.545052,0.8187 0.18575,0.1505 0.452683,0.2061 0.613716,0.3836 0.289743,0.3319 0.617246,1.1632 1.092539,1.2673 0.296832,0.062 0.40383,-0.3132 0.466667,-0.5224 0.06479,0.4248 0.03863,0.8857 0.196875,1.2922 0.173992,0.4515 0.350366,-0.028 0.410157,-0.2614 0,-0.1182 0.0765,-0.2476 0.06016,-0.3625 0.10277,0.6768 0.05933,1.6526 0.436893,2.247 0.126382,0.203 0.317749,0.1359 0.381598,-0.078 0.06679,-0.2206 0.04655,-0.5037 0.01398,-0.756 0.07302,0.4769 0.269331,1.5506 0.651391,2.247 0.02128,0.079 0.113469,0.063 0.101475,-0.02 l 0.119705,-0.7223 c 0.06985,0.464 0.05104,0.9606 0.214497,1.4088 0.106298,0.3215 0.384637,-0.1179 0.384637,-0.1179 0.236535,0.7379 0.127285,1.6586 0.882902,2.0943 0.5285,-0.6822 0.427962,-1.9785 0.302604,-2.7967 -0.349428,-1.8563 -1.144941,-3.69 -1.823528,-5.4466 -0.367584,-0.956 -0.668388,-1.9882 -1.429778,-2.7133 -1.064703,-1.0137 -2.912884,-1.1613 -3.540721,-2.6458 -0.221425,-0.5125 0.157872,-0.7869 0.478822,-1.1318 0.655292,-0.703 1.113111,-1.3024 2.099396,-1.4477 -0.273327,-0.256 -0.474616,-0.4847 -0.840367,-0.3504 -1.207509,-1.8064 -3.088606,0.6856 -4.61442,-0.1227 -1.738444,-0.9231 -1.283684,-3.3904 -2.98169,-4.438 -1.033401,-0.6373 -2.2305897,-1.0791 -3.3499222,-1.5341 -1.2607056,-0.5125 -2.5511921,-1.0846 -3.8803914,-1.3884 -0.4628403,-0.1059 -0.9194405,-0.2073 -1.3890656,-0.2225 z m 187.636299,8.7888 0.31597,4.3272 4.33613,-0.012 -3.58751,2.4384 2.17899,3.7519 -3.90409,-1.8892 -2.15773,3.7634 -0.31657,-4.3278 -4.33613,0.012 3.58751,-2.4378 -2.17839,-3.7519 3.90348,1.8899 z m -13.98606,3.775 h 1.12415 l 0.56205,6.9755 -0.56205,2.7905 3.93445,-3.4879 h 0.56146 l 3.93509,2.7904 -0.56207,2.0931 1.12414,1.3948 5.0586,-0.698 0.93819,2.7936 3.82693,1.6297 c -2.10031,-0.4537 -3.24552,2.1694 -7.50741,-0.3923 -1.28168,1.0338 -1.70406,0.9637 -2.20511,2.7834 l 7.19567,2.9523 c -2.50945,7.6738 -10.2564,7.0528 -5.62068,16.0451 l -1.68619,0.6974 1.68619,0.6976 -3.37239,3.4873 v 0.698 l 1.6862,2.093 c -2.85372,0.6571 -6.56856,1.4492 -6.18275,-3.4878 l -5.0586,-0.6983 -2.81035,-6.9753 -3.93446,0.6968 -0.56206,2.093 h -1.12415 l -1.68559,-2.7898 -0.56268,4.1855 -5.05799,1.395 v -5.5805 l 1.68559,-0.6981 v -2.0924 l -2.24827,-1.395 2.81035,-3.488 -1.12414,-2.0931 1.68621,-2.7904 h -2.80974 l 1.12353,-1.3951 v -0.6981 l -3.37241,0.6981 2.81034,-3.488 -1.6862,-2.093 -1.12414,-2.7906 v -0.6968 l 2.24888,-2.0931 2.80974,1.395 c 0.70837,-2.6495 1.86929,-2.7754 3.93446,-2.0924 l 0.56206,-3.4881 h 1.12415 l 0.56206,6.2786 2.81033,-1.3956 z m -230.533885,6.4841 -0.03767,2.8641 15.624255,11.7332 -15.929292,11.3159 -0.03706,2.8654 27.075847,0.3587 0.09419,-7.1286 -10.634315,-0.1411 10.281274,-7.1097 6.08e-4,-0.049 -10.089867,-7.3628 10.634922,0.1411 0.09419,-7.128 z m 205.589645,1.2668 1.63272,2.1087 2.21729,-1.4812 -1.00868,2.4694 2.39106,1.1809 -2.64201,0.36 0.17439,2.6628 -1.63274,-2.1088 -2.21789,1.4812 1.00869,-2.4694 -2.39046,-1.1809 2.64141,-0.36 z m -28.45215,2.0151 3.37302,6.2785 3.93385,-1.3955 -1.68619,3.488 7.86893,-2.7899 c 2.39595,3.999 4.36237,2.6467 7.86894,2.7899 1.3882,-3.5743 2.52003,-3.553 5.54047,-2.9012 l 1.20435,2.9012 5.0586,-2.7899 -2.24827,2.7899 -0.56207,3.4881 1.12474,2.7904 h 3.3718 l -0.56207,2.0931 1.6862,0.6969 v 0.698 c -2.06111,1.6069 -2.89719,3.0466 -0.56206,4.8831 l -1.12414,1.3955 v 0.6968 l 1.12414,1.3956 c -3.63527,1.1996 -9.31405,8.3262 -9.55515,-0.6974 h -7.86894 l -3.3724,-7.6736 -7.86894,1.395 -2.24828,6.976 -3.3724,-1.3956 -0.56207,2.7913 -3.3724,0.6974 1.12415,7.6736 -2.24828,-1.3957 c 0.86427,7.2538 -4.82487,5.6562 -6.74481,0.698 h -0.56206 l 2.24886,6.2781 -2.81093,-0.6975 3.93508,2.7906 -1.12415,2.0924 5.05801,2.0925 -2.81034,1.3955 v 0.6975 h 3.3724 v 2.7905 l -6.7448,4.1855 h -0.56207 l 1.12414,-3.4879 -2.24827,-1.3956 2.81093,-0.6969 -8.43161,-2.7906 c 0.82088,-3.0664 0.74228,-4.744 -1.68559,-6.2786 l 2.80972,-5.5804 h -1.68619 l -1.6856,-6.976 -3.373009,0.6974 v -2.7898 l 5.620669,-6.2786 1.6862,0.6974 -0.56207,-4.1855 -6.744799,2.0931 c -1.383853,-2.7289 -6.303813,-3.8649 -2.247663,-6.976 l -1.686809,-3.4887 5.058601,-3.4874 2.24888,2.7906 v -5.5811 l 0.56207,-0.6976 3.93386,-1.3948 -1.12414,3.4874 1.68681,2.093 0.56207,-2.093 h 2.24767 l 3.93508,2.7911 -0.35304,3.3293 1.66857,0.4238 -0.19201,1.1299 h 1.12414 l 0.19141,-1.1299 1.46197,0.34 0.96372,0.4038 -0.36884,-6.5899 v -0.6981 l 1.68622,0.6981 0.56205,-3.4887 -1.6862,1.3956 z m 61.82741,1.3956 -0.56207,1.3948 z m -97.222459,7.9125 2.200872,4.7541 4.893936,-1.8627 -3.014504,4.2847 4.059038,3.3098 -5.214771,-0.4694 -0.834289,5.1724 -2.200873,-4.7547 -4.894543,1.8632 3.014503,-4.2852 -4.059646,-3.3093 5.215378,0.4695 z m 46.636399,13.0149 1.12413,2.0931 1.68681,-0.6981 v 3.4879 l 1.12352,2.7907 h 4.49654 l 2.24828,-2.7907 -0.56208,3.4881 2.81034,-1.3948 -0.56207,2.7905 3.3724,1.3948 -3.3724,4.1856 -0.56206,4.1855 3.93446,-2.7906 h 0.56208 l 3.93507,0.6982 1.12352,2.0924 v 0.6974 l -2.81032,2.0931 v 0.6975 l 1.12413,0.6975 -7.86894,3.488 c -4.5949,-3.0093 -4.54032,-4.2193 -10.11721,-2.7906 l -2.81035,-4.1855 0.56207,4.8836 -3.3724,-0.6981 0.56206,4.1861 -1.68619,2.0925 -7.30688,-0.698 1.12414,-5.5806 c -1.43227,-0.8484 -2.81035,-2.1909 -0.56207,-2.7898 v -2.7906 l -1.68558,-0.6981 2.24765,-2.7899 0.56206,2.0931 0.56207,-2.0931 2.24889,0.6975 -2.24889,-7.6736 1.12413,-1.3948 3.37242,2.0922 c 0.63603,-2.9951 1.86627,-5.208 4.49652,-4.8829 z m -78.063559,6.9628 0.868925,2.8246 2.876569,-0.6684 -2.010073,2.1648 2.01615,2.1587 -2.878392,-0.6591 -0.859811,2.827 -0.868319,-2.8246 -2.87657,0.6683 2.010076,-2.1648 -2.017367,-2.1588 2.879,0.6598 z m -82.488394,0.2517 -6.470764,1.6363 2.536292,10.0438 -3.728481,0.9426 -2.087246,-8.2676 -5.760431,1.4558 2.087246,8.2682 -3.630651,0.9183 -2.535684,-10.0445 -6.422151,1.6229 4.260167,16.8759 26.011868,-6.5766 z m 185.988983,0.8628 c 1.48467,-0.065 2.84332,0.5936 3.79046,2.3862 l 1.68681,-0.6968 0.56146,2.0924 4.49654,-2.0924 1.81684,1.3511 1.86182,0.5224 -2.55453,5.1018 3.93448,2.7906 -2.81035,-0.6975 -3.93446,3.488 1.6862,7.673 3.93447,-0.6969 -1.12413,2.0925 1.6862,0.6974 0.56207,3.4879 c -2.06051,0.397 -3.22355,0.5419 -3.93448,-2.093 l -3.93446,-0.6969 c -2.34478,3.1972 -7.51604,-2.2897 -10.11722,-3.4879 l 0.56207,-2.7906 h -2.24828 l 3.37241,-9.0684 h -2.24826 v -4.1857 l -5.62067,1.3951 c 1.434,-2.7849 5.30872,-6.4299 8.57501,-6.5723 z m -15.88189,0.2937 0.56206,0.6974 z m 34.39669,3.2862 0.0316,2.5418 2.53628,0.1485 -2.18507,1.2975 1.14054,2.2731 -2.21606,-1.2447 -1.39576,2.124 -0.0316,-2.5431 -2.5369,-0.1476 2.18569,-1.2978 -1.14054,-2.2725 2.21607,1.2449 z m 10.00662,3.6899 -0.56268,2.7899 5.62068,2.093 v 1.3957 l -1.68559,2.0924 h 2.24827 l -1.12414,2.0925 6.7442,-0.697 v 0.697 c -1.76103,1.9016 -2.90148,3.9259 -1.12353,6.2785 l -2.24826,1.3949 1.12413,6.2785 -5.0586,2.7907 c -1.61002,-1.7538 -2.50567,-1.5281 -4.49716,-0.6976 l -0.56145,-4.1855 -2.81033,0.6976 -1.68621,-2.0931 c -1.09531,10.4561 -3.77217,1.9896 -5.62128,-2.7906 H 179.22 v -0.6969 l -2.24888,-0.698 0.56269,-2.093 -4.49655,-2.0925 v -0.6975 l 7.30687,-1.3955 -1.12413,-4.1849 h 3.3724 c -0.43272,-4.8566 2.09719,-6.173 5.62067,-6.2786 z m -48.6726,10.8599 1.35626,4.5498 4.63022,-1.035 -3.25878,3.4502 3.21017,3.496 -4.61503,-1.0988 -1.41946,4.5297 -1.35624,-4.5491 -4.63084,1.0343 3.2594,-3.4509 -3.21077,-3.4948 4.61501,1.0989 z m -164.356376,3.4825 c -1.146084,-0.033 -2.31635,0.2048 -3.465374,0.7632 -3.563219,1.7317 -4.654694,5.3542 -4.409646,9.901 0.172192,3.1382 0.64182,5.0208 -0.46606,5.5592 -0.823405,0.4001 -1.95546,-0.2163 -2.595231,-1.5349 -0.559825,-1.1536 -0.907253,-3.2808 0.0164,-4.6185 l -5.358779,-1.9689 c -1.922466,2.1007 -2.263665,5.8218 -0.475176,9.5075 2.224684,4.5847 7.130527,7.1068 11.307579,5.0769 3.638016,-1.768 4.371671,-5.3651 4.206087,-9.0617 -0.100301,-2.8767 -0.206629,-5.8797 1.036027,-6.4835 0.988107,-0.4802 2.128724,0.6128 2.790285,1.9763 0.98151,2.0226 0.992445,4.3324 0,6.0565 l 5.685691,2.0324 c 2.076114,-2.5088 2.075499,-6.9713 0.148871,-10.9415 h 6.08e-4 c -1.761243,-3.6295 -4.980093,-6.1652 -8.418249,-6.264 z m 151.763656,2.3996 -1.12415,4.1855 5.62128,-1.395 0.56146,4.1855 -0.56146,2.7905 0.56146,0.6976 5.05922,-1.3956 -1.68681,5.5811 c -3.00188,-2.3286 -4.75542,-0.4476 -5.62067,-6.278 -2.66715,1.7146 -4.90436,1.4695 -5.05861,-2.7906 l -2.81034,1.395 c 0.8751,-3.4012 2.21544,-5.964 5.05862,-6.976 z m -9.36861,5.8536 0.28741,6.4104 6.41061,0.1635 -5.40374,3.4546 3.06372,5.637 -5.69177,-2.9559 -3.34688,5.4742 -0.28741,-6.4107 -6.41001,-0.1635 5.40376,-3.4546 -3.06373,-5.6376 5.69116,2.9559 z m 62.69451,5.0409 3.74367,3.6304 3.88221,-3.4826 -1.26996,5.0606 4.95409,1.623 -5.01304,1.429 1.07188,5.1055 -3.74367,-3.6303 -3.88161,3.4825 1.26997,-5.0599 -4.9547,-1.6235 5.01425,-1.4297 z m -35.90183,0.965 1.12415,2.7901 h 1.12412 l 0.56207,-2.0931 h 0.56206 v 3.4885 l 3.37242,-3.4885 v 4.8836 l 5.62067,-2.7905 -1.68621,2.0923 v 0.6982 h 6.74482 v 1.3949 c -7.95746,1.4586 -20.54122,8.2692 -21.35857,19.5325 -4.22386,-3.9916 1.50669,-21.9489 3.93447,-26.508 z m -18.54822,12.556 h 0.56269 l 0.56146,11.8595 h -0.56146 l -5.05921,-9.7664 h 3.93445 z m -155.956968,5.6449 a 1.6852625,1.6865159 0 0 0 -1.418232,2.5077 c 0.01058,0.012 0.119658,0.2407 0.786286,1.3148 0.696424,1.1222 1.862293,2.9184 3.518239,5.1991 0.680409,0.9371 1.491806,2.0259 2.434207,3.2357 4.837695,6.2097 11.767483,13.8445 20.8882446,21.1652 7.3111895,5.8684 15.9873714,11.6382 26.5277554,16.4756 2.815504,1.2923 6.16058,2.693 9.979278,4.0604 8.516053,3.0492 17.963857,5.424 28.319078,6.7662 10.282966,1.3327 18.977294,1.3183 24.465424,1.1566 -5.492998,-0.042 -14.16726,-0.4095 -24.30683,-2.1977 -10.220128,-1.8022 -19.393468,-4.5894 -27.626975,-7.9514 -3.688872,-1.5063 -6.904076,-3.0112 -9.616517,-4.369 -10.006298,-5.0093 -18.6611239,-10.8594 -25.6193333,-16.5614 -8.8606157,-7.2613 -15.5851547,-14.5656 -20.3480537,-20.6302 -0.920506,-1.172 -1.710157,-2.2257 -2.369189,-3.1336 -1.60395,-2.2088 -2.724916,-3.9357 -3.382125,-4.9949 -0.628825,-1.0132 -0.71428,-1.1927 -0.707295,-1.1802 a 1.6852625,1.6865159 0 0 0 -1.523962,-0.8629 z" />
  </g>
</svg>
