<?xml version="1.0" encoding="UTF-8" standalone="no"?>
<!-- Created with Inkscape (http://www.inkscape.org/) -->

<svg
   viewBox="0 0 63.981075 26.082129"
   version="1.1"
   id="svg1"
   xml:space="preserve"
   sodipodi:docname="hinario.svg"
   inkscape:version="1.4.4 (dcaf3e7, 2026-05-05)"
   xmlns:inkscape="http://www.inkscape.org/namespaces/inkscape"
   xmlns:sodipodi="http://sodipodi.sourceforge.net/DTD/sodipodi-0.dtd"
   xmlns="http://www.w3.org/2000/svg"
   xmlns:svg="http://www.w3.org/2000/svg"><sodipodi:namedview
     id="namedview1"
     pagecolor="#505050"
     bordercolor="#eeeeee"
     borderopacity="1"
     inkscape:showpageshadow="0"
     inkscape:pageopacity="0"
     inkscape:pagecheckerboard="0"
     inkscape:deskcolor="#505050"
     inkscape:document-units="mm"
     showguides="true"
     inkscape:zoom="0.70710678"
     inkscape:cx="-106.06602"
     inkscape:cy="84.145707"
     inkscape:window-width="1366"
     inkscape:window-height="715"
     inkscape:window-x="-8"
     inkscape:window-y="-8"
     inkscape:window-maximized="1"
     inkscape:current-layer="layer1"><inkscape:page
       x="0"
       y="0"
       width="63.981075"
       height="26.082129"
       id="page550"
       margin="0"
       bleed="0" /></sodipodi:namedview><defs
     id="defs1" /><g
     inkscape:label="Agregador de Links"
     inkscape:groupmode="layer"
     id="layer1"
     inkscape:highlight-color="#002400"
     transform="translate(-401.77151,37.649994)"><path
       style="baseline-shift:baseline;display:inline;overflow:visible;opacity:1;vector-effect:none;fill:#00cc00;paint-order:stroke fill markers;enable-background:accumulate;stop-color:#000000;stop-opacity:1"
       d="m 363.4193,-161.29687 c -8.68737,0 -15.6914,7.00403 -15.6914,15.6914 V -4.921875 c 0,8.6873721 7.00403,15.693359 15.6914,15.693359 h 140.6836 c 8.68737,0 15.69335,-7.0059869 15.69335,-15.693359 V -145.60547 c 0,-8.68737 -7.00598,-15.6914 -15.69335,-15.6914 z m 0,0.69921 h 140.6836 c 8.31168,0 14.99218,6.68051 14.99218,14.99219 V -4.921875 c 0,8.3116802 -6.6805,14.992188 -14.99218,14.992188 H 363.4193 c -8.31168,0 -14.99219,-6.6805078 -14.99219,-14.992188 V -145.60547 c 0,-8.31168 6.68051,-14.99219 14.99219,-14.99219 z"
       id="rect2"
       inkscape:highlight-color="#00cc00"
       inkscape:label="contorno" /><g
       id="g844"
       transform="translate(0,-8.8894737)"
       inkscape:highlight-color="#00cc00"><path
         id="text823-0-4"
         style="font-weight:bold;font-size:5.99722px;font-family:'LEMON MILK';-inkscape-font-specification:'LEMON MILK Bold';text-align:center;text-anchor:middle;fill:#00cc00;stroke-width:0.399999;stroke-linecap:round;paint-order:stroke fill markers"
         d="m 415.01774,-28.760518 c -7.33255,0 -13.24622,5.823535 -13.24622,13.042098 0,7.2185607 5.91367,13.0400305 13.24622,13.0400305 h 37.48866 c 7.33255,0 13.24622,-5.8214698 13.24622,-13.0400305 0,-7.218563 -5.91367,-13.042098 -13.24622,-13.042098 z m 0,0.682645 h 37.48866 c 6.96092,0 12.55479,5.506748 12.55479,12.359453 0,6.852703 -5.59387,12.3573848 -12.55479,12.3573848 h -37.48866 c -6.96092,0 -12.55479,-5.5046818 -12.55479,-12.3573848 0,-6.852705 5.59387,-12.359453 12.55479,-12.359453 z m -0.20723,1.670699 c -5.898,0 -10.68565,4.789718 -10.68565,10.68772 0,5.8980032 4.78765,10.6877198 10.68565,10.6877198 5.898,0 10.68721,-4.7897166 10.68721,-10.6877198 0,-5.898002 -4.78921,-10.68772 -10.68721,-10.68772 z m 0,0.70125 c 5.5197,0 9.98802,4.466776 9.98802,9.98647 0,5.519695 -4.46832,9.9864706 -9.98802,9.9864706 -5.51969,0 -9.98647,-4.4667756 -9.98647,-9.9864706 0,-5.519694 4.46678,-9.98647 9.98647,-9.98647 z m 30.17181,6.877099 -0.50333,0.986503 h 0.78755 l 0.69659,-0.986503 z m 11.85422,1.250096 c -1.46709,0 -2.59157,1.075042 -2.59157,2.492354 0,1.405598 1.12138,2.474268 2.58847,2.474268 1.47003,0 2.59468,-1.06867 2.59468,-2.474268 0,-1.417312 -1.12448,-2.492354 -2.59158,-2.492354 z m -12.16153,0.06768 -2.19315,4.779037 h 1.37046 l 0.2403,-0.550871 h 1.76268 l 0.2372,0.550871 h 1.37355 l -2.19624,-4.779037 z m -6.74377,0.01137 v 4.770251 h 1.25315 v -2.307352 l 2.42776,2.351277 h 0.39842 v -4.772835 h -1.25677 v 2.301668 l -2.41845,-2.343009 z m -6.79959,0.04708 v 4.720642 h 1.25315 v -1.77767 h 1.40302 v 1.77767 h 1.25005 v -4.720642 h -1.25005 v 1.771468 h -1.40302 v -1.771468 z m 4.72633,0 v 4.720642 h 1.25315 v -4.720642 z m 12.07936,0 0.006,4.720642 h 1.25367 v -2.050004 l 1.26194,2.050004 h 1.46709 l -1.26504,-1.894975 c 0.46268,-0.21084 0.81701,-0.702799 0.81701,-1.291394 0,-0.846287 -0.72917,-1.534273 -1.74822,-1.534273 z m 4.43953,0 v 4.720642 h 1.25315 v -4.720642 z m 4.45965,1.066132 c 0.74965,0 1.32344,0.56224 1.32344,1.291394 0,0.726226 -0.57379,1.285193 -1.32344,1.285193 -0.74965,0 -1.32343,-0.558967 -1.32343,-1.285193 0,-0.729154 0.57378,-1.291394 1.32343,-1.291394 z m -7.64604,0.06149 h 0.51263 c 0.26355,0 0.50953,0.181557 0.50953,0.47439 0,0.289904 -0.24305,0.477319 -0.50953,0.47439 l -0.51263,-0.0031 z m -4.2168,1.007174 0.48318,1.118795 h -0.96945 z"
         sodipodi:nodetypes="sssssssssssssssssssssssscccccssssscccccccccccccccccccccccccccccccccccccccccccccssccccccssssscssccccccc" /><path
         id="text823-0"
         style="font-weight:bold;font-size:5.99722px;font-family:'LEMON MILK';-inkscape-font-specification:'LEMON MILK Bold';text-align:center;text-anchor:middle;fill:#00cc00;stroke-width:0.399999;stroke-linecap:round;paint-order:stroke fill markers"
         d="m 404.0011,-62.452518 c -7.35285,0 -13.28291,5.821461 -13.28291,13.040031 0,7.218569 5.93006,13.042098 13.28291,13.042098 h 59.52194 c 7.35285,0 13.28291,-5.823529 13.28291,-13.042098 0,-7.21857 -5.93006,-13.040031 -13.28291,-13.040031 z m 0,0.682646 h 59.52194 c 6.98018,0 12.5889,5.504672 12.5889,12.357385 0,6.852712 -5.60872,12.359453 -12.5889,12.359453 H 404.0011 c -6.98019,0 -12.58942,-5.506741 -12.58942,-12.359453 0,-6.852713 5.60923,-12.357385 12.58942,-12.357385 z m -0.24443,1.671216 c -5.898,0 -10.68514,4.789201 -10.68514,10.687203 0,5.898003 4.78714,10.687719 10.68514,10.687719 5.898,0 10.68772,-4.789716 10.68772,-10.687719 0,-5.898002 -4.78972,-10.687203 -10.68772,-10.687203 z m 0,0.700732 c 5.5197,0 9.98853,4.466777 9.98853,9.986471 0,5.519695 -4.46883,9.98647 -9.98853,9.98647 -5.51969,0 -9.98596,-4.466775 -9.98596,-9.98647 0,-5.519694 4.46627,-9.986471 9.98596,-9.986471 z m -2.98897,4.05505 c -0.3016,0 -0.55035,0.248309 -0.55035,0.549837 v 0.198438 h -1.10484 c -0.36323,0 -0.66171,0.29828 -0.66198,0.661458 v 5.17e-4 c 8e-5,0.0027 -4.6e-4,0.01051 -5.2e-4,0.0155 -1.4e-4,0.01087 -4.1e-4,0.02516 -5.1e-4,0.04289 -1.9e-4,0.03546 -4.7e-4,0.08474 -5.2e-4,0.146761 -1e-4,0.124042 2.6e-4,0.297538 5.2e-4,0.504362 5.2e-4,0.413645 0.002,0.960015 0.002,1.506368 6.5e-4,0.546353 9.7e-4,1.093103 0,1.506368 -4.8e-4,0.206632 -0.001,0.379877 -0.003,0.502812 -6.1e-4,0.06147 -0.001,0.110444 -0.002,0.14366 -3.4e-4,0.01428 -7.3e-4,0.02408 -0.001,0.03152 -10e-4,0.0051 -0.003,0.0107 -0.006,0.01964 -0.007,0.02292 -0.0164,0.05666 -0.0289,0.0987 -0.025,0.08409 -0.0605,0.202075 -0.10284,0.342098 -0.0848,0.280046 -0.19664,0.648012 -0.30592,1.012858 -0.10929,0.364847 -0.21594,0.726105 -0.29094,0.994255 -0.1596,0.440474 -0.10579,0.852963 0.14573,1.252636 0.0651,0.470667 0.19364,0.893994 0.59273,1.189075 -0.0245,0.587504 0.1069,1.085473 0.80615,1.142566 l 9.16688,5.17e-4 c 0.74826,-0.06466 0.80667,-0.560618 0.80667,-1.153418 0.76668,-0.496134 0.53224,-1.143508 0.38964,-1.874305 0.60819,-0.626405 0.016,-1.522387 0.016,-1.522387 l -0.40618,-1.518771 v -4.383711 c 0,-0.363062 -0.29875,-0.661975 -0.66249,-0.661975 h -0.42529 v -0.198438 c 0,-0.301599 -0.24877,-0.549837 -0.55036,-0.549837 h -0.15244 c -0.30159,0 -0.55036,0.248307 -0.55036,0.549837 v 0.198438 h -5.41827 v -0.198438 c 0,-0.301599 -0.24877,-0.549837 -0.55036,-0.549837 z m 0.006,0.200504 h 0.15297 c 0.19234,0 0.34933,0.156985 0.34933,0.349333 v 0.243913 0.243913 c 0,0.192348 -0.15699,0.349332 -0.34933,0.349332 h -0.15297 c -0.19235,0 -0.34933,-0.156984 -0.34933,-0.349332 v -0.487826 c 0,-0.192344 0.15698,-0.349333 0.34933,-0.349333 z m 6.67143,0 h 0.15296 c 0.19235,0 0.34934,0.156985 0.34934,0.349333 v 0.243913 0.243913 c 0,0.192348 -0.15699,0.349332 -0.34934,0.349332 h -0.15296 c -0.19235,0 -0.34933,-0.156984 -0.34933,-0.349332 v -0.487826 c 0,-0.192344 0.15698,-0.349333 0.34933,-0.349333 z m -8.32611,0.748275 h 0.99374 c -0.0354,0.397114 0.2536,0.747275 0.65939,0.748275 h 0.15297 c 0.4058,-0.0012 0.69479,-0.351161 0.65939,-0.748275 h 5.19968 c -0.0354,0.397114 0.25412,0.747275 0.65991,0.748275 h 0.15244 c 0.4058,-0.0012 0.69479,-0.351161 0.65939,-0.748275 h 0.3173 c 0.25502,0 0.46147,0.207079 0.46147,0.461471 v 4.388362 c 0,0.01487 0.002,0.02958 0.006,0.04444 l 0.32608,1.263489 c -0.52617,-0.670138 -1.15779,-1.052763 -1.64486,-1.334286 l 0.1328,-1.531172 h -2.46703 v 1.575614 h 1.90945 c -0.0658,0.105485 -0.13428,0.208298 -0.20568,0.310059 h -1.68568 c 0.0428,0.386343 0.16587,1.246793 0.20877,1.636075 -0.0941,0.07236 -0.22024,0.149025 -0.31884,0.218075 l -0.20257,-1.85415 h -2.49856 c -0.0645,0.58574 -0.21007,1.898387 -0.27647,2.495971 h 1.7446 c -1.96213,0.825148 -4.54478,1.270995 -5.41414,1.16427 -0.48709,-0.0726 -0.86704,-0.542728 -0.83664,-1.033528 h 5.1e-4 c -0.0518,-0.01525 0.83378,-2.858417 0.83871,-2.910417 0.0172,-0.06205 0.001,-4.372594 0.006,-4.432804 0,-0.2544 0.20708,-0.461471 0.46147,-0.461471 z m 0.71779,1.365291 v 1.616956 h 2.46703 v -1.616956 z m 2.77657,0 v 1.616956 h 2.46652 v -1.616956 z m 2.77761,0 v 1.616956 h 2.46704 v -1.616956 z m 26.12554,1.14205 c -1.46709,0 -2.59157,1.075043 -2.59157,2.492354 0,1.405599 1.12137,2.474268 2.58847,2.474268 1.47002,0 2.59467,-1.068669 2.59467,-2.474268 0,-1.417311 -1.12447,-2.492354 -2.59157,-2.492354 z m 10.49238,0 c -1.46709,0 -2.59157,1.075043 -2.59157,2.492354 0,1.405599 1.12137,2.474268 2.58847,2.474268 1.47002,0 2.59468,-1.068669 2.59468,-2.474268 0,-1.417311 -1.12448,-2.492354 -2.59158,-2.492354 z m 5.60173,0.01188 c -1.46417,0 -2.60036,1.133438 -2.60036,2.480469 0,1.347032 1.13309,2.465483 2.6324,2.465483 1.34117,0 2.42466,-0.928283 2.42466,-2.363164 0,-0.149345 -0.0142,-0.30179 -0.0377,-0.45992 h -2.42207 v 0.93431 h 1.08055 c -0.0176,0.450963 -0.42426,0.726054 -0.99529,0.726054 -0.87264,0 -1.40301,-0.644061 -1.40301,-1.305864 0,-0.729154 0.61805,-1.305863 1.32085,-1.305863 0.34847,0 0.72605,0.158131 0.9896,0.40411 l 0.69402,-0.95188 c -0.38947,-0.360184 -1.08331,-0.61495 -1.68362,-0.623735 z m -25.19846,0.0031 c -1.47002,0 -2.60036,1.074353 -2.60036,2.471167 0,1.481735 1.24471,2.465999 2.5771,2.465999 0.71744,0 1.31741,-0.284047 1.76837,-0.694014 l -0.71417,-0.95188 c -0.30455,0.272335 -0.65887,0.45992 -1.0542,0.45992 -0.67352,0 -1.30638,-0.539158 -1.30638,-1.27124 0,-0.723298 0.60651,-1.276408 1.33274,-1.276408 0.34847,0 0.73174,0.172598 1.02164,0.436149 l 0.72037,-0.925525 c -0.48317,-0.43925 -1.13602,-0.705383 -1.74511,-0.714168 z m 34.55448,0.05271 -2.19315,4.779036 h 1.37046 l 0.23978,-0.550871 h 1.7632 l 0.23719,0.550871 h 1.37304 l -2.19625,-4.779036 z m 10.98692,0 -2.19315,4.779036 h 1.37046 l 0.2403,-0.550871 h 1.76268 l 0.2372,0.550871 h 1.37356 l -2.19625,-4.779036 z m -33.23053,0.01137 v 4.770251 h 1.25316 v -2.307353 l 2.42775,2.351278 h 0.39843 v -4.772835 h -1.25625 v 2.301668 l -2.41898,-2.343009 z m 25.50594,0.0031 v 4.764567 h 1.25315 v -1.871203 l 1.27383,1.792138 h 0.009 l 1.27124,-1.792138 v 1.871203 h 1.25316 v -4.764567 h -0.50385 l -2.02623,2.776058 -2.02675,-2.776058 z m -35.5384,0.04392 0.006,4.720642 h 1.25367 v -2.050004 l 1.26194,2.050004 h 1.4671 l -1.26504,-1.894975 c 0.46267,-0.21084 0.817,-0.7028 0.817,-1.291394 0,-0.846288 -0.72915,-1.534273 -1.74821,-1.534273 z m 25.99169,0 0.006,4.720642 h 1.25315 v -2.050004 l 1.26245,2.050004 h 1.46658 l -1.26504,-1.894975 c 0.46268,-0.21084 0.81701,-0.7028 0.81701,-1.291394 0,-0.846288 -0.72917,-1.534273 -1.74822,-1.534273 z m -50.84547,0.658875 v 1.575614 h 2.46703 v -1.575614 z m 2.77657,0 v 1.575614 h 2.46652 v -1.575614 z m 28.90315,0.40721 c 0.74966,0 1.32343,0.56224 1.32343,1.291394 0,0.726226 -0.57377,1.285193 -1.32343,1.285193 -0.74965,0 -1.32343,-0.558967 -1.32343,-1.285193 0,-0.729154 0.57378,-1.291394 1.32343,-1.291394 z m 10.49238,0 c 0.74966,0 1.32344,0.56224 1.32344,1.291394 0,0.726226 -0.57378,1.285193 -1.32344,1.285193 -0.74965,0 -1.32395,-0.558967 -1.32395,-1.285193 0,-0.729154 0.5743,-1.291394 1.32395,-1.291394 z m -16.06517,0.0615 h 0.51263 c 0.26355,0 0.50953,0.181557 0.50953,0.47439 0,0.289905 -0.24305,0.477317 -0.50953,0.474389 l -0.51263,-0.0031 z m 25.99221,0 h 0.51212 c 0.26355,0 0.50953,0.181557 0.50953,0.47439 0,0.289905 -0.24305,0.477317 -0.50953,0.474389 l -0.51212,-0.0031 z m 5.3294,1.007174 0.48317,1.118794 h -0.96945 z m 10.98692,0 0.48318,1.118794 h -0.96894 z m -60.68467,0.257348 c 0.0272,0.01171 2.6585,1.54431 1.9079,2.516642 -0.25639,0.309625 -0.47057,0.552616 -2.26085,0.888318 -1.84405,0.349332 -4.46743,0.459131 -6.34069,0.482141 1.25959,-0.276739 3.34764,-0.873669 4.34598,-1.533239 0.98102,-0.636621 1.77058,-1.428258 2.34766,-2.353345 z m -7.77006,0.152446 -0.7457,2.495455 h 2.95745 c 0.0676,-0.613669 0.20835,-1.8874 0.27595,-2.495455 z m 9.64178,2.828251 0.0847,0.466121 c 0.0229,0.08376 0.0415,0.167895 0.0455,0.254765 0.0167,0.298453 -0.1092,0.598496 -0.33383,0.798918 -0.1607,0.14519 -0.3706,0.236111 -0.58653,0.252181 -0.14953,0.01578 -9.38295,-0.0025 -9.51828,0.0041 -0.0478,0 -0.095,-0.004 -0.14211,-0.01034 -0.14334,-0.01987 -0.27992,-0.07066 -0.40153,-0.148828 -0.23082,-0.148924 -0.38783,-0.385255 -0.44183,-0.646472 0.0236,0.01366 0.0476,0.02728 0.0718,0.04031 0.18552,0.09618 0.39408,0.144211 0.60255,0.145211 1.37314,0 2.73551,0.0021 3.92431,-0.03256 0.52443,-0.01635 5.49349,-0.195947 6.69519,-1.123445 z m -10.78177,1.998844 5.2e-4,10e-4 c 0.12969,0.04969 0.26729,0.07777 0.40566,0.08527 0.0223,9.76e-4 0.045,0.0021 0.0667,0.0021 h 9.43302 c 0.1607,-6e-4 0.32341,-0.02973 0.47232,-0.08682 v 0.101286 c 0,0.33383 -0.27182,0.605648 -0.60565,0.605648 l -9.16688,-5.17e-4 c -0.33382,0 -0.60565,-0.271822 -0.60565,-0.605647 z"
         inkscape:export-filename="cronograma.svg"
         inkscape:export-xdpi="96"
         inkscape:export-ydpi="96" /><path
         id="rect3"
         style="baseline-shift:baseline;display:inline;overflow:visible;vector-effect:none;fill:#00cc00;fill-opacity:1;stroke:none;paint-order:stroke fill markers;enable-background:accumulate;stop-color:#000000"
         d="m 392.41369,-96.144519 c -7.21849,0 -13.03951,5.822567 -13.03951,13.041064 0,7.218498 5.82102,13.041065 13.03951,13.041065 h 82.69521 c 7.2185,0 13.04107,-5.822567 13.04107,-13.041065 0,-7.218497 -5.82257,-13.041064 -13.04107,-13.041064 z m 0,0.699182 h 82.69521 c 6.84281,0 12.33982,5.499077 12.33982,12.341882 0,6.842806 -5.49701,12.339816 -12.33982,12.339816 h -82.69521 c -6.8428,0 -12.33981,-5.49701 -12.33981,-12.339816 0,-6.842805 5.49701,-12.341882 12.33981,-12.341882 z m -5.2e-4,1.654163 c -5.898,0 -10.68565,4.789717 -10.68565,10.687719 0,5.898003 4.78765,10.687203 10.68565,10.687203 5.898,0 10.68772,-4.7892 10.68772,-10.687203 0,-5.898002 -4.78972,-10.687719 -10.68772,-10.687719 z m 0,0.701249 c 5.5197,0 9.98802,4.466776 9.98802,9.98647 0,5.519695 -4.46832,9.986471 -9.98802,9.986471 -5.51969,0 -9.98647,-4.466776 -9.98647,-9.986471 0,-5.519694 4.46678,-9.98647 9.98647,-9.98647 z m 0.001,3.183785 -7.17424,4.140316 v 5.323189 l 7.17424,4.141349 7.17424,-4.141866 v -5.322672 z m 0,0.432532 6.60941,3.816821 -6.60941,3.816821 -2.29754,-1.327051 0.61909,-0.357084 1.67845,0.96945 5.37176,-3.101619 -5.37176,-3.102137 -5.37177,3.102137 1.67897,0.969966 -0.6196,0.356568 -2.29754,-1.326534 z m 78.09704,3.233911 c -0.33383,0 -0.73226,0.172944 -0.85525,0.784965 l 0.57103,0.1757 c 0.0469,-0.202055 0.12298,-0.366386 0.2899,-0.366386 0.26062,0 0.42169,0.380855 0.91364,0.380855 0.31626,0 0.72933,-0.158302 0.85525,-0.784965 l -0.56844,-0.1757 c -0.0498,0.202055 -0.12886,0.363285 -0.28991,0.363285 -0.2577,0 -0.42719,-0.377754 -0.91622,-0.377754 z m -84.89508,0.907955 2.29754,1.326534 v 2.340942 l 2.01279,1.16272 v -2.340943 l 2.29754,1.326534 v 4.6731 l -6.6089,-3.814754 z m 13.59607,0 v 4.673616 l -6.60993,3.815788 v -4.672583 z m 71.75841,0.386539 c -1.4671,0 -2.59157,1.074526 -2.59157,2.491838 0,1.405598 1.1219,2.474268 2.58899,2.474268 1.47002,0 2.59416,-1.06867 2.59416,-2.474268 0,-1.417312 -1.12449,-2.491838 -2.59158,-2.491838 z m -16.81137,0.01137 c -1.46416,0 -2.60036,1.133437 -2.60036,2.480469 0,1.347031 1.13308,2.465483 2.63239,2.465483 1.34117,0 2.42466,-0.928282 2.42466,-2.363164 0,-0.149345 -0.0142,-0.301273 -0.0377,-0.459403 h -2.42208 v 0.933793 h 1.08056 c -0.0176,0.450962 -0.42427,0.726571 -0.99529,0.726571 -0.87264,0 -1.40301,-0.644578 -1.40301,-1.306381 0,-0.729154 0.61806,-1.305863 1.32085,-1.305863 0.34848,0 0.72605,0.15813 0.9896,0.40411 l 0.69401,-0.95188 c -0.38946,-0.360184 -1.0833,-0.61495 -1.68361,-0.623735 z m -42.20001,0.0031 c -1.47002,0 -2.60036,1.07487 -2.60036,2.471684 0,1.481735 1.2442,2.465482 2.57659,2.465482 0.71744,0 1.31792,-0.284048 1.76888,-0.694014 l -0.71468,-0.95188 c -0.30454,0.272335 -0.65887,0.45992 -1.0542,0.45992 -0.67351,0 -1.30587,-0.538641 -1.30587,-1.270723 0,-0.723298 0.60599,-1.276925 1.33222,-1.276925 0.34847,0 0.73225,0.172599 1.02216,0.436149 l 0.72037,-0.925008 c -0.48317,-0.43925 -1.13602,-0.7059 -1.74511,-0.714685 z m 32.93184,0.04082 c -0.89607,0 -1.67225,0.582911 -1.67225,1.399915 0,0.711584 0.51263,1.103981 1.11001,1.361674 0.46268,0.204983 0.94568,0.418923 0.94568,0.661975 0,0.19327 -0.26062,0.289905 -0.5271,0.289905 -0.39532,0 -0.76138,-0.1757 -0.95757,-0.465605 l -0.75809,0.743624 c 0.23719,0.521243 0.94275,0.86403 1.71876,0.86403 0.94585,0 1.78335,-0.559312 1.78335,-1.458309 0,-0.696943 -0.48886,-1.147906 -1.2268,-1.458309 -0.50953,-0.213768 -0.84336,-0.284049 -0.84336,-0.500745 0,-0.161058 0.18415,-0.293005 0.44184,-0.293005 0.22548,0 0.58859,0.108176 0.72915,0.357084 l 0.72347,-0.696598 c -0.18448,-0.465605 -0.74672,-0.805636 -1.46709,-0.805636 z m 17.71054,0 c -0.89607,0 -1.67225,0.582911 -1.67225,1.399915 0,0.711584 0.51263,1.103981 1.11001,1.361674 0.46268,0.204983 0.94568,0.418923 0.94568,0.661975 0,0.19327 -0.26062,0.289905 -0.5271,0.289905 -0.39532,0 -0.76136,-0.1757 -0.95756,-0.465605 l -0.75809,0.743624 c 0.23719,0.521243 0.94274,0.86403 1.71875,0.86403 0.94585,0 1.78336,-0.559312 1.78336,-1.458309 0,-0.696943 -0.48886,-1.147906 -1.2268,-1.458309 -0.50953,-0.213768 -0.84336,-0.284049 -0.84336,-0.500745 0,-0.161058 0.18414,-0.293005 0.44183,-0.293005 0.22548,0 0.5886,0.108176 0.72916,0.357084 l 0.72347,-0.696598 c -0.18448,-0.465605 -0.74673,-0.805636 -1.4671,-0.805636 z m 16.94626,0 c -0.89607,0 -1.67174,0.582911 -1.67174,1.399915 0,0.711584 0.51212,1.103981 1.1095,1.361674 0.46267,0.204983 0.94619,0.418923 0.94619,0.661975 0,0.19327 -0.26062,0.289905 -0.5271,0.289905 -0.39533,0 -0.76136,-0.1757 -0.95756,-0.465605 l -0.75861,0.743624 c 0.23719,0.521243 0.94275,0.86403 1.71876,0.86403 0.94585,0 1.78335,-0.559312 1.78335,-1.458309 0,-0.696943 -0.48886,-1.147906 -1.2268,-1.458309 -0.50953,-0.213768 -0.84336,-0.284049 -0.84336,-0.500745 0,-0.161058 0.18466,-0.293005 0.44235,-0.293005 0.22548,0 0.5886,0.108176 0.72916,0.357084 l 0.72295,-0.696598 c -0.18448,-0.465605 -0.74672,-0.805636 -1.46709,-0.805636 z m -63.4659,0.01189 -2.19314,4.779036 h 1.37045 l 0.2403,-0.550354 h 1.76268 l 0.2372,0.550354 h 1.37356 l -2.19625,-4.779036 z m 11.77499,0 -2.19314,4.779036 h 1.37046 l 0.23977,-0.550354 h 1.7632 l 0.2372,0.550354 h 1.37304 l -2.19625,-4.779036 z m -8.51265,0.05839 v 4.720642 h 1.25315 v -4.720642 z m 1.80402,0 1.41697,2.269629 -1.49603,2.451013 h 1.44332 l 0.79065,-1.393713 0.79375,1.393713 h 1.44384 l -1.50224,-2.454114 1.42317,-2.266528 h -1.43505 l -0.72037,1.247469 -0.72347,-1.247469 z m 13.34131,0 -1.54048,0.0031 v 4.717541 h 1.54048 c 1.60473,0 2.58588,-0.890213 2.58588,-2.354378 0,-1.475879 -0.98115,-2.372121 -2.58588,-2.366263 z m 3.20083,0 v 4.720642 h 3.05976 v -1.174088 h -1.82107 v -0.676445 h 1.49913 v -1.045414 h -1.49913 v -0.658875 h 1.82107 v -1.16582 z m 9.37618,0 v 3.004468 c 0,1.083482 0.8785,1.847949 1.95905,1.847949 1.08056,0 1.95905,-0.764467 1.95905,-1.847949 v -3.004468 h -1.26194 v 3.001884 c 0,0.38654 -0.34537,0.652673 -0.6997,0.652673 -0.35725,0 -0.69401,-0.260277 -0.69401,-0.652673 v -3.001884 z m 10.16423,0 v 4.720642 h 3.06028 v -1.174088 h -1.82159 v -0.676445 h 1.49965 v -1.045414 h -1.49965 v -0.658875 h 1.82159 v -1.16582 z m 7.30033,0 v 1.171505 h 1.13327 v 3.549137 h 1.25625 v -3.549137 h 1.13068 v -1.171505 z m 9.64644,0 v 4.720642 h 3.05976 v -1.174088 h -1.82107 v -0.676445 h 1.49913 v -1.045414 h -1.49913 v -0.658875 h 1.82107 v -1.16582 z m -85.26818,0.457853 v 1.906861 l -0.61908,0.356567 v -1.90686 z m 82.06166,0.608232 c 0.74965,0 1.32343,0.562239 1.32343,1.291394 0,0.726225 -0.57378,1.28571 -1.32343,1.28571 -0.74966,0 -1.32395,-0.559485 -1.32395,-1.28571 0,-0.729155 0.57429,-1.291394 1.32395,-1.291394 z m -36.80086,0.10542 h 0.28733 c 0.84629,0 1.36167,0.450791 1.36167,1.191658 0,0.732083 -0.5128,1.177189 -1.35031,1.177189 h -0.29869 z m -17.78961,0.963249 0.48318,1.118794 h -0.96894 z m 11.77499,0 0.48318,1.118794 h -0.96945 z m -39.11285,0.586527 0.51004,0.294039 v 0.652673 l -1.0759,-0.620634 z"
         inkscape:export-filename="caixadesugestoes.svg"
         inkscape:export-xdpi="96"
         inkscape:export-ydpi="96" /></g><path
       id="path1-0-6"
       style="font-weight:bold;font-size:15.875px;line-height:1;font-family:'LEMON MILK';-inkscape-font-specification:'LEMON MILK Bold';text-align:center;letter-spacing:0px;text-anchor:middle;display:inline;opacity:1;fill:#00cc00;fill-opacity:1;stroke:none;stroke-width:1.46509;stroke-linecap:round;stroke-linejoin:round"
       d="m 415.37066,-31.788234 c -0.026,0 -0.054,0.0085 -0.0831,0.02332 -0.71966,0.367826 -3.10812,1.58933 -4.39325,2.255627 -0.47773,0.296066 -0.58151,0.621423 -0.6246,0.861734 l 0.003,9.870543 c 0.0284,0.514352 0.83914,0.723981 1.20737,0.744692 0.42993,0.02416 2.78161,-0.530102 7.68741,-1.340586 0.10242,-0.01716 0.18527,-0.115918 0.18527,-0.220914 v -9.274057 c 0,-0.19069 -0.15132,-0.318967 -0.33816,-0.286691 -1.09756,0.18971 -4.60858,0.797685 -6.69331,1.170726 -0.18658,0.0334 -0.48983,0.09292 -0.68108,0.08932 -0.95206,-0.0176 -1.32086,-0.901672 -0.0889,-1.416357 1.34683,-0.510116 4.00544,-1.614166 4.00544,-1.614166 l -0.044,-0.711428 c -0.006,-0.09774 -0.0642,-0.154541 -0.14203,-0.151755 z m 1.46068,0.932774 -4e-5,5.77e-4 c -0.01,0 -0.0159,0.0031 -0.0302,0.0077 v -5.3e-5 c -0.64068,0.238617 -4.03713,1.505813 -5.80316,2.210809 l 5.93428,-1.765111 -0.0193,-0.370305 c -0.003,-0.04755 -0.0315,-0.07821 -0.0703,-0.08158 -0.005,0 -0.008,-0.0023 -0.0112,-0.0023 z m 1.34823,0.656458 c -0.012,0 -0.0392,0.0049 -0.0392,0.0049 v -5.4e-5 c -0.77434,0.212334 -4.80265,1.318935 -6.87603,1.92482 0.14139,0.03538 0.36259,0.06384 0.60955,0.01827 l 6.42872,-1.312107 -0.0252,-0.530281 c -0.003,-0.06142 -0.0442,-0.102775 -0.0979,-0.105539 z m 0.0253,2.694553 c 0.2565,0.0023 0.44081,0.178472 0.44081,0.44398 0,0.300928 -0.24076,0.572961 -0.55548,0.629425 -0.31409,0.05635 -0.55421,-0.1294 -0.55421,-0.430329 0,-0.303436 0.24075,-0.576729 0.55486,-0.63308 0.0392,-0.0071 0.0773,-0.0103 0.11402,-0.01001 z m -2.44183,0.159923 -0.14922,0.238058 -0.16864,0.03025 0.1078,-0.230641 z m 1.64131,1.65e-4 v 1.010641 l -0.26832,0.04816 v -1.01064 z m 0.74475,0.100112 c -0.0187,-2e-4 -0.0382,0.0014 -0.0582,0.005 -0.16051,0.02879 -0.28343,0.171209 -0.28343,0.327316 0,0.155479 0.12292,0.253201 0.28343,0.224406 0.16048,-0.02879 0.28335,-0.170598 0.28335,-0.326078 0,-0.136593 -0.0941,-0.228922 -0.22511,-0.230587 z m -1.50111,0.04229 c 0.17604,-9.8e-4 0.29556,0.110258 0.29556,0.268794 0,0.126014 -0.0759,0.244949 -0.17493,0.307861 l 0.27085,0.357033 -0.3141,0.05637 -0.27018,-0.390403 v 0.438873 l -0.26837,0.04816 -9.8e-4,-1.010426 0.38369,-0.06884 c 0.0273,-0.0049 0.0536,-0.0073 0.0787,-0.0074 z m -4.9756,0.159706 c 0.11487,-2.2e-5 0.20802,0.09309 0.20802,0.207966 v 7.616958 c 0,0.114871 -0.0931,0.207985 -0.20802,0.207963 -0.11484,0 -0.20797,-0.09311 -0.20797,-0.207963 v -7.616962 c 0,-0.11485 0.0931,-0.207967 0.20797,-0.207967 z m 3.94208,0.0065 0.4702,0.938793 -0.29406,0.05277 -0.0508,-0.108765 -0.37742,0.06771 -0.0514,0.127088 -0.2934,0.05266 0.46954,-1.10742 z m 0.97006,0.08168 c -0.007,5.6e-5 -0.0138,5.77e-4 -0.0209,0.002 l -0.10972,0.01967 v 0.202535 l 0.10972,-0.01907 c 0.057,-0.0096 0.10909,-0.05905 0.10909,-0.121123 0,-0.05486 -0.0404,-0.08423 -0.0882,-0.08395 z m -1.66786,0.05481 v 1.021868 l -0.0853,0.0153 -0.51974,-0.410176 v 0.494008 l -0.26831,0.04816 v -1.021285 l 0.0865,-0.01551 0.51786,0.408617 v -0.49277 z m -1.0489,0.189424 v 1.010584 l -0.2683,0.04816 v -1.010641 z m -0.44386,0.07964 v 1.010587 l -0.26768,0.04805 v -0.380568 l -0.30034,0.0539 v 0.380568 l -0.2683,0.04809 v -1.010584 l 0.2683,-0.04816 v 0.379279 l 0.30034,-0.05385 v -0.379334 z m 2.12719,0.0754 -0.10403,0.258156 0.20748,-0.03724 z m 2.43881,0.581977 v 0.758557 l 0.38681,-0.06938 v 0.252029 l -0.65517,0.117522 v -1.010586 z m -0.83948,0.138053 0.47021,0.938791 -0.29405,0.05277 -0.0508,-0.108766 -0.3774,0.06771 -0.0514,0.127088 -0.29341,0.05266 0.46961,-1.10742 z m -0.51093,0.104196 v 0.25079 l -0.24203,0.04341 v 0.759849 l -0.26895,0.04826 v -0.759846 l -0.24264,0.04352 v -0.250793 z m -0.8677,0.155678 v 1.010639 l -0.26831,0.04814 v -1.01064 z m -0.82718,0.134771 c 0.0999,0.0018 0.19916,0.02916 0.2617,0.07577 l -0.14859,0.230426 c -0.0564,-0.04253 -0.13732,-0.06191 -0.21193,-0.04853 -0.15047,0.027 -0.28272,0.174271 -0.28272,0.330378 0,0.141689 0.11346,0.259216 0.30028,0.225696 0.12225,-0.02193 0.20942,-0.0965 0.21319,-0.193722 l -0.23135,0.04153 v -0.20001 l 0.51848,-0.09301 c 0.005,0.03295 0.008,0.06502 0.008,0.097 0,0.307197 -0.23198,0.547549 -0.5191,0.599065 -0.321,0.0576 -0.56366,-0.138392 -0.56366,-0.426783 0,-0.288389 0.24326,-0.574638 0.55672,-0.630877 0.0322,-0.0053 0.0655,-0.0075 0.0988,-0.007 z m 2.14252,0.0863 -0.1041,0.258154 0.20753,-0.03724 z m -2.92971,0.06857 v 1.01064 l -0.26832,0.04809 v -1.010586 z m -0.83111,0.157559 c 0.27035,-0.0083 0.43113,0.144286 0.43113,0.420764 0,0.313467 -0.21004,0.541725 -0.5536,0.603365 l -0.32974,0.05915 v -1.009995 l 0.32974,-0.05974 v -5.6e-5 c 0.0429,-0.0078 0.0838,-0.01231 0.12247,-0.01349 z m -0.0648,0.258424 c -0.0204,8.03e-4 -0.042,0.003 -0.0646,0.0071 l -0.0614,0.01103 v 0.507225 l 0.064,-0.01151 c 0.17931,-0.03215 0.28901,-0.14715 0.28901,-0.303883 0,-0.138789 -0.0845,-0.214869 -0.22699,-0.209952 z m 4.2962,1.563543 v 5.3e-5 c 0.0551,0.0022 0.0966,0.04219 0.0966,0.100654 v 1.935834 c 0,0.06677 -0.0543,0.130979 -0.12101,0.143374 -0.0667,0.01229 -0.12092,-0.03176 -0.12092,-0.09856 v -1.935843 c 0,-0.06679 0.0541,-0.131051 0.12092,-0.143425 0.008,-0.0022 0.0165,-0.0021 0.0244,-0.0021 z m -2.08097,0.224407 c 0.0551,0.0022 0.0966,0.04221 0.0966,0.100704 v 2.258262 c 0,0.06679 -0.0543,0.131052 -0.12102,0.143425 -0.0667,0.01229 -0.12097,-0.03177 -0.12097,-0.09856 v -2.25832 c 0,-0.06679 0.0542,-0.131053 0.12097,-0.143425 0.008,-0.0022 0.0165,-0.0023 0.0243,-0.0021 z m 1.04041,0.06938 v 5.4e-5 c 0.0551,0.0022 0.0966,0.04214 0.0966,0.100597 v 1.733944 c 0,0.06677 -0.0543,0.131055 -0.12103,0.143428 -0.0667,0.01252 -0.12097,-0.03177 -0.12097,-0.09856 v -1.733951 c 0,-0.06677 0.0542,-0.131032 0.12097,-0.143426 0.008,-0.0022 0.0166,-0.0021 0.0244,-0.0021 z m -1.38,0.154924 v 1.66e-4 c 0.0551,0.0022 0.0962,0.04294 0.0957,0.101456 l -0.0128,1.938309 c 0,0.06662 -0.0545,0.130234 -0.12101,0.142565 v 1.12e-4 c -0.0667,0.01209 -0.12065,-0.03271 -0.12016,-0.09958 l 0.013,-1.938258 c 0,-0.06662 0.0545,-0.130288 0.12096,-0.142618 v -5.7e-5 c 0.008,-0.0022 0.0166,-0.0021 0.0243,-0.0021 z m 2.76743,0.03772 v 5.5e-5 c 0.0551,0.0022 0.0966,0.04212 0.0966,0.100597 v 0.834543 c 0,0.06677 -0.0542,0.131052 -0.12101,0.143425 -0.0667,0.01252 -0.12098,-0.03177 -0.12098,-0.09856 v -0.834541 c 0,-0.06679 0.0542,-0.131053 0.12098,-0.143426 0.008,-0.0022 0.0165,-0.0021 0.0243,-0.0021 z m -1.04051,0.0735 v 5.7e-5 c 0.0551,0.0022 0.0966,0.04219 0.0966,0.10065 v 1.072921 c 0,0.06679 -0.0543,0.131051 -0.12108,0.143426 -0.0667,0.01229 -0.12096,-0.03183 -0.12096,-0.09861 v -1.072922 c 0,-0.06677 0.0542,-0.131052 0.12096,-0.143425 0.009,-0.0022 0.0167,-0.0021 0.0244,-0.0021 z m -2.77479,0.08292 v 5.5e-5 c 0.0551,0.0022 0.0966,0.04216 0.0966,0.100598 v 1.935837 c 0,0.06677 -0.0542,0.13103 -0.12102,0.143425 -0.0667,0.01229 -0.12095,-0.03175 -0.12095,-0.09856 v -1.93589 c 0,-0.06677 0.0542,-0.131 0.12095,-0.143373 0.009,-0.0022 0.0165,-0.0021 0.0244,-0.0021 z m 1.73421,0.06164 v 5.6e-5 c 0.0551,0.0022 0.0965,0.04214 0.0965,0.100595 v 1.169648 c 0,0.0668 -0.0543,0.131001 -0.12103,0.143373 -0.0667,0.01229 -0.12094,-0.03177 -0.12094,-0.09856 v -1.169593 c 0,-0.06677 0.0541,-0.131052 0.12094,-0.143426 0.008,-0.0022 0.0167,-0.0021 0.0244,-0.0021 z m 2.42791,0.06932 v 5.3e-5 c 0.0551,0.0022 0.0966,0.0421 0.0966,0.100598 v 0.131119 c 0,0.06677 -0.0542,0.131051 -0.12101,0.143425 -0.0667,0.01229 -0.12096,-0.03177 -0.12096,-0.09856 v -0.131172 c 0,-0.06677 0.0541,-0.130978 0.12096,-0.143371 0.008,-0.0022 0.0166,-0.0021 0.0244,-0.0021 z m -1.04051,0.02644 v 5.5e-5 c 0.0551,0.0022 0.0966,0.0421 0.0966,0.100597 v 0.463861 c 0,0.06677 -0.0542,0.131085 -0.12103,0.14348 -0.0667,0.01229 -0.12096,-0.03176 -0.12096,-0.09856 v -0.463861 c 0,-0.06677 0.0542,-0.131105 0.12096,-0.143479 0.008,-0.0022 0.0166,-0.0021 0.0243,-0.0021 z m -2.42787,0.0065 v 5.4e-5 c 0.0551,0.0022 0.0966,0.04216 0.0966,0.100598 v 1.351068 c 0,0.06677 -0.0542,0.131028 -0.12101,0.143423 -0.0667,0.01229 -0.12096,-0.03176 -0.12096,-0.09856 v -1.35112 c 0,-0.06679 0.0542,-0.130999 0.12096,-0.143371 0.008,-0.0022 0.0166,-0.0021 0.0243,-0.0021 z m 1.38735,0.123543 v 5.5e-5 c 0.0551,0.0022 0.0966,0.04221 0.0966,0.100649 v 0.589822 c 0,0.06677 -0.0542,0.130999 -0.12102,0.143373 -0.0667,0.01251 -0.12096,-0.03177 -0.12096,-0.09856 v -0.58982 c 0,-0.06677 0.0541,-0.130977 0.12096,-0.143371 0.008,-0.0022 0.0167,-0.0024 0.0244,-0.0022 z m -2.77473,0.117147 v 5.4e-5 c 0.0551,0.0022 0.0965,0.04219 0.0965,0.100652 v 1.384059 c 0,0.06677 -0.0542,0.131053 -0.12103,0.143427 -0.0667,0.01229 -0.12095,-0.03177 -0.12095,-0.09856 v -1.384115 c 0,-0.06677 0.0542,-0.130976 0.12095,-0.143371 0.008,-0.0022 0.0167,-0.0024 0.0244,-0.0022 z m 0.34682,0.243215 c 0.0551,0 0.0966,0.0421 0.0966,0.100598 v 0.769197 c 0,0.06677 -0.0542,0.131054 -0.12103,0.143425 -0.0667,0.01229 -0.12096,-0.03177 -0.12096,-0.09856 v -0.769198 c 0,-0.06677 0.0541,-0.131052 0.12096,-0.143425 0.008,-0.0022 0.0166,-0.0023 0.0243,-0.0021 z m 0.6937,0.100919 v 5.4e-5 c 0.0551,0 0.0966,0.04215 0.0966,0.100652 v 0.31001 c 0,0.06677 -0.0542,0.131033 -0.12101,0.143427 -0.0667,0.01229 -0.12097,-0.03175 -0.12097,-0.09856 v -0.310075 c 0,-0.06679 0.0542,-0.131052 0.12097,-0.143426 0.008,-0.0022 0.0165,-0.0021 0.0243,-0.0021 z m -1.38741,0.321459 c 0.0551,0.0021 0.0966,0.04221 0.0966,0.100647 v 0.181472 c 0,0.06677 -0.0543,0.131052 -0.12101,0.143425 -0.0667,0.01229 -0.12094,-0.03177 -0.12094,-0.09856 v -0.18147 c 0,-0.06679 0.0541,-0.131052 0.12094,-0.143427 0.008,-0.0022 0.0165,-0.0023 0.0243,-0.0021 z" /></g></svg>
