<?xml version="1.0" encoding="UTF-8" standalone="no"?>
<!-- Created with Inkscape (http://www.inkscape.org/) -->

<svg
   viewBox="0 0 132.29166 132.29167"
   version="1.1"
   id="svg1"
   xml:space="preserve"
   xmlns:inkscape="http://www.inkscape.org/namespaces/inkscape"
   xmlns:sodipodi="http://sodipodi.sourceforge.net/DTD/sodipodi-0.dtd"
   xmlns:xlink="http://www.w3.org/1999/xlink"
   xmlns="http://www.w3.org/2000/svg"
   xmlns:svg="http://www.w3.org/2000/svg"><sodipodi:namedview
     id="namedview1"
     pagecolor="#505050"
     bordercolor="#eeeeee"
     borderopacity="1"
     inkscape:showpageshadow="0"
     inkscape:pageopacity="0"
     inkscape:pagecheckerboard="0"
     inkscape:deskcolor="#505050"
     inkscape:document-units="mm"
     showguides="true"><inkscape:page
       x="0"
       y="0"
       width="132.29166"
       height="132.29167"
       id="page550"
       margin="0"
       bleed="0" /></sodipodi:namedview><defs
     id="defs1"></defs><g
     inkscape:label="Agregador de Links"
     inkscape:groupmode="layer"
     id="layer1"
     inkscape:highlight-color="#002400"
     transform="translate(-652.36035,211.34272)"><path
       id="path59-6-1"
       style="font-weight:bold;font-size:35.2777px;line-height:0;font-family:'LEMON MILK';-inkscape-font-specification:'LEMON MILK Bold';text-align:center;letter-spacing:0px;text-orientation:upright;text-anchor:middle;fill:#00cc00;fill-opacity:1;stroke:none;stroke-width:0.460318;stroke-miterlimit:2.5"
       inkscape:label="monochromatic_symbol"
       d="m 721.26628,-211.34271 -8.69453,0.16032 0.24733,13.42215 8.69453,-0.15972 -0.0614,-3.33907 -5.17505,0.0954 -0.0358,-1.92349 4.26004,-0.0787 -0.0536,-2.97277 -4.25999,0.0787 -0.0358,-1.87354 5.17528,-0.0954 z m 8.19134,0.96515 c -2.15577,-0.0536 -4.09669,1.13225 -4.47275,3.13018 -0.37427,1.98874 0.85028,3.35522 2.38295,4.38991 1.18427,0.8165 2.42116,1.66835 2.29326,2.34765 -0.10191,0.53997 -0.88026,0.67311 -1.62445,0.53282 -1.10399,-0.2086 -2.03371,-0.89202 -2.42908,-1.80554 l -2.50953,1.67942 c 0.38798,1.58163 2.17876,2.9108 4.34585,3.31941 2.64143,0.49825 5.27451,-0.62423 5.74742,-3.13667 0.36653,-1.94781 -0.76154,-3.46567 -2.65901,-4.72171 -1.31055,-0.86573 -2.20589,-1.23792 -2.09188,-1.84357 0.0846,-0.44997 0.66911,-0.72138 1.38881,-0.58585 0.62971,0.11919 1.58661,0.61297 1.84824,1.38251 l 2.38683,-1.56697 c -0.26998,-1.39836 -1.6617,-2.64379 -3.67342,-3.02308 -0.31289,-0.0596 -0.6253,-0.0912 -0.93324,-0.0983 z m -25.542,0.81596 c -0.49347,-0.0119 -1.00905,0.0477 -1.53649,0.17343 l -4.94738,1.20997 3.20099,13.03696 3.45964,-0.84623 -1.3829,-5.66295 4.86698,4.81087 4.05007,-0.99065 -4.77024,-4.38009 c 1.13496,-0.89481 1.78118,-2.49301 1.38408,-4.1191 -0.46366,-1.89959 -2.18633,-3.18579 -4.32475,-3.23227 z m 36.59247,2.27566 v 2.9e-4 a 0.84261946,0.84326217 0 0 0 -0.24197,1.6532 c -0.005,0 0.0906,0.0179 0.65433,0.21159 0.58942,0.20084 1.55687,0.55248 2.81289,1.08535 0.51611,0.21872 1.11805,0.48512 1.79222,0.80148 3.48921,1.638 7.80259,4.09227 12.33617,7.5928 3.56019,2.74894 7.38392,6.30846 10.9506,10.62138 0.96686,1.16908 2.06202,2.56692 3.21118,4.19527 2.56502,3.6345 4.95602,7.79187 6.98586,12.57073 2.0138,4.74118 3.17,8.92841 3.81061,11.60123 -0.53995,-2.69356 -1.51378,-6.93365 -3.32209,-11.79618 -1.82107,-4.89651 -4.04215,-9.23434 -6.48679,-13.04186 -1.09618,-1.70738 -2.15522,-3.1797 -3.10175,-4.40654 -3.54326,-4.59268 -7.3304,-8.17169 -11.01121,-11.07397 -4.59199,-3.62056 -9.08971,-6.13765 -12.65783,-7.79556 -0.6952,-0.32302 -1.31663,-0.59599 -1.84949,-0.82181 -1.29685,-0.55009 -2.30238,-0.91573 -2.92714,-1.12868 -0.59806,-0.20442 -0.72179,-0.23303 -0.7287,-0.23481 a 0.84261946,0.84326217 0 0 0 -0.22707,-0.0298 z m -37.02849,0.9839 c 0.59419,0.0119 1.15333,0.35581 1.31389,1.01301 0.19548,0.801 -0.34924,1.48257 -1.08652,1.65446 l -1.4167,0.33792 -0.63805,-2.61287 1.41461,-0.34627 c 0.13648,-0.0298 0.27593,-0.0477 0.41301,-0.0477 z m -14.18114,2.06755 c -1.17211,0.0477 -2.37127,0.37725 -3.50762,1.01531 -3.63624,2.0412 -4.92927,6.27128 -2.95897,9.78676 1.95415,3.4864 6.21974,4.577 9.85596,2.53586 3.64339,-2.04518 4.94458,-6.26078 2.99049,-9.74717 -1.35465,-2.41685 -3.80137,-3.69262 -6.37986,-3.59076 z m -0.0536,3.46088 c 1.32295,-0.0417 2.58249,0.62889 3.27941,1.8723 1.00947,1.80137 0.36474,3.98697 -1.49332,5.02994 -1.85796,1.04298 -4.05819,0.45415 -5.06783,-1.34704 -1.0137,-1.80865 -0.37249,-4.00175 1.48547,-5.04479 0.58048,-0.326 1.19487,-0.4911 1.79627,-0.51076 z m -13.56406,7.19512 c -1.71487,0.0864 -3.45619,0.94821 -5.05365,2.5765 l -3.07214,3.12041 9.53192,9.43434 3.07793,-3.11456 c 3.20677,-3.24485 3.36822,-7.00886 0.41003,-9.93694 -1.49102,-1.47584 -3.17918,-2.16581 -4.89397,-2.07975 z m 0.21574,3.59648 c 0.76677,0.0298 1.50656,0.3695 2.16148,1.01764 1.47915,1.4641 1.35453,3.39051 -0.31885,5.08395 l -0.59681,0.60397 -4.78652,-4.73762 0.57333,-0.58049 c 0.95124,-0.96258 1.98168,-1.42816 2.96761,-1.38751 z m 73.65047,10.1615 -0.2807,1.04644 -1.12407,-0.69754 -0.56201,0.69754 -1.12401,0.34925 -1.40502,1.04637 -0.84325,-0.69754 0.28071,1.39502 h -1.40508 l 0.28071,1.0465 -1.12395,-0.34926 -0.56261,1.39528 v 2.09286 h -0.562 l -0.28071,-1.39532 h -0.562 l -2.24826,2.7904 -1.12401,-3.139 -1.40531,2.09257 -0.84295,-0.34865 0.562,1.39502 -1.96726,-1.74397 -0.2807,2.79035 0.56201,1.39538 -4.21535,-1.74397 -0.2807,1.04613 c -1.1857,-0.24435 -2.05821,-0.0638 -2.52927,1.39532 l -1.40502,-0.34924 -0.2807,-1.74398 -3.37233,-0.34865 -1.12395,2.44145 -1.12431,-0.69748 -0.2807,1.39497 -0.84295,-1.04637 -1.68608,-0.69754 0.2807,1.74391 -0.2807,1.74397 -0.84325,0.69785 1.12425,0.69748 v 0.34925 l -0.84331,-0.34925 1.96732,2.09287 v 0.34865 l -3.09127,-1.74398 -0.2807,1.04644 -2.52933,-1.74398 0.2813,2.09287 -1.12401,-0.34925 -0.28071,2.09287 -1.9669,-0.69749 v 1.74392 l -2.81032,-0.69755 0.84301,2.44152 c -1.12353,0.20324 -1.65371,0.732 -1.96732,2.09281 l 2.24832,0.69749 c -0.47678,0.8758 -1.7912,2.60541 -0.562,2.79035 v 0.34924 l -0.56201,1.04644 -2.52926,-0.69778 0.562,-2.09251 -2.24826,0.69748 -0.56201,4.53427 h -2.52932 l -1.96732,2.44175 0.5626,3.4879 h -1.12425 l 0.84331,1.74391 -2.81033,0.69754 v 0.34925 l 1.96702,3.13924 0.84331,0.69754 2.52932,-0.69754 -2.81068,1.74398 0.2813,1.04637 -2.52939,1.04649 1.12407,1.04638 -0.562,1.04643 0.84307,2.09257 -0.33613,0.62745 c 0.0298,0.16628 -0.24853,0.50004 -0.20085,0.82914 l -0.0238,0.28786 v 1.04614 l -1.96732,1.39538 v 0.69748 h 1.68632 l 0.32957,2.0493 1.91851,-0.30514 v 1.39532 l 0.56201,-0.34925 v 2.09287 h 1.96726 l 1.12407,-0.69754 -0.2807,1.39502 2.52926,1.04644 -0.2807,1.04643 h 0.562 l -0.2807,1.04637 0.84307,-0.34865 -0.56201,2.44146 2.81027,-1.74392 0.56201,0.69755 -0.84295,1.39532 0.2807,1.74392 c 1.0457,-0.37607 5.3325,-3.8167 5.62053,-1.04644 l 1.12425,-0.69748 0.84307,2.4414 1.40496,-1.39503 0.8433,1.74398 0.84301,-0.34925 -0.562,1.04643 3.37233,-0.69754 1.96732,-2.09287 -0.562,1.74398 1.40525,-1.04643 -0.28071,0.69754 0.84301,-0.34865 -0.2807,1.39502 1.40506,-0.34865 -0.56199,2.09287 1.96731,-1.04649 c 0.16687,1.20687 1.38326,0.0596 1.9672,-0.34925 l -0.28071,2.09286 1.68608,-2.44175 h 0.28071 v 1.39532 l 1.12431,-1.39532 h 0.2807 l 0.84301,1.04637 -0.2813,-2.4414 1.68638,-1.39538 h 0.562 l 0.84307,1.39538 0.28071,-1.04643 c 5.69055,4.64965 6.99568,19.211743 4.73616,24.519122 -2.25964,5.307379 -7.69936,6.25476 -11.55188,7.324079 6.42469,-0.898808 12.07151,-2.748333 16.53752,-4.64357 6.86488,-2.913182 10.95989,-5.952535 10.95989,-5.952535 0,0 -2.04372,-1.52793 -2.22126,-3.951569 -0.1776,-2.423639 -0.18475,-6.540717 1.36204,-11.016457 1.0563,-3.05639 3.06832,-3.81634 4.62722,-5.93018 h 0.2807 c 2.56181,1.96598 6.49871,-4.08919 8.14993,-0.34925 l 0.84295,-0.34925 v 0.69778 l 1.12425,0.34865 1.12407,-1.04643 v 1.39533 h 0.2807 l 0.562,-1.0465 0.28071,1.74398 h 0.2807 l 0.72954,-0.3856 0.67577,-1.70667 0.56797,1.7491 1.0314,-0.75529 c 0.0691,-1.1002 -0.0358,-1.791 0.87918,-1.93189 l 0.28607,-0.0596 c 1.44203,-2.84578 3.86455,-6.89205 5.97884,-14.33729 1.49578,-5.26751 2.25649,-10.07861 2.47009,-14.91397 l -0.53706,-1.17689 c -0.28726,-1.66436 -0.0602,5.5478 -1.12169,5.61413 l 0.28071,-1.39503 -1.40502,0.34866 0.92401,-1.50451 -1.66337,0.7367 -1.22796,1.81424 c 1.96011,-0.69111 -0.52684,1.87181 3.62289,3.86902 -1.02461,1.99674 -1.93657,5.19987 -1.93657,5.19987 l -0.2807,-1.04644 -0.28071,-2.44175 -1.68638,1.04643 0.56201,-1.39502 -2.81027,-0.69779 -0.84301,0.34925 1.12401,-1.74403 -1.12401,0.34925 1.12401,-1.39527 2.52927,-4.53432 v -0.34925 l -1.12395,-1.39503 0.84295,-1.04643 -1.68626,0.34865 3.09157,-1.39502 v -1.39533 l 1.96702,0.34925 0.28071,-1.74392 0.2807,-1.39538 h -1.12395 l 0.56081,-1.39497 -2.52926,-0.34924 v -0.34925 l 1.40531,-0.34865 -0.84301,-2.44176 -1.40537,-0.34865 -1.4049,0.34865 v -0.69748 l 1.68596,-1.0465 v -0.34865 h -1.12401 v -3.48789 l -0.84331,1.04648 0.5626,-2.09286 -0.8433,-0.69754 -1.12402,0.69754 -0.2807,-1.04644 -1.12425,0.69778 -0.28071,-1.04642 -1.12401,1.74392 -0.84301,-0.34926 -2.81026,0.6976 0.84301,-2.79034 -1.40501,0.34924 c 0.60247,-0.94672 2.30183,-3.523 1.12401,-3.83684 v -0.34865 l 0.843,-0.34865 -0.843,-0.69778 v -0.34866 l 1.12394,-0.34924 v -0.34866 l -1.12394,-0.69778 -1.96738,0.69778 0.56201,-1.04643 -2.24809,0.34865 v -0.34865 l 1.12401,-0.34924 0.56201,-1.04644 v -0.34924 l -0.56201,-0.69749 0.84307,-0.34865 v -0.34925 l -1.68602,0.34925 0.56201,-1.39532 -0.84301,0.69748 h -0.2807 l -0.84331,-0.34866 -0.56201,-0.34924 v -2.09287 h -0.2807 l -0.56201,1.39538 h -0.2807 l -0.56201,-1.39538 h -0.2807 l -0.28071,1.39538 -1.96726,0.69749 0.28071,-1.39503 -1.68632,1.0462 v -1.0462 l -1.12395,0.34865 -0.56201,-2.09281 h -0.28071 l -0.562,1.04644 -0.61571,-1.09728 -0.22766,1.79506 -0.562,-0.69778 h -0.2813 v 1.39532 l -2.89942,-1.41863 1.21317,-2.41815 -1.96732,1.04643 0.2807,-2.0928 -1.40501,0.34865 z m -88.27705,1.02582 -0.82966,1.47256 8.76825,12.10908 1.91302,-3.39493 -1.02764,-1.36391 2.46049,-4.36697 1.69389,0.18118 1.91712,-3.40219 z m 5.01651,3.79637 3.44344,0.36594 -1.35305,2.40105 z m 82.9796,0.41004 1.68626,0.69749 v 2.44175 l -0.84301,-0.34925 v 1.39503 l -1.12425,1.74427 -1.40502,-2.09286 -1.68632,0.34865 -0.562,-2.79035 c 1.77082,0.17402 2.52617,-0.0536 3.93434,-1.39502 z m 7.0256,3.48783 h 2.4e-4 l 0.84301,1.39533 1.96726,-0.34925 0.28071,1.39538 2.24826,-0.69784 0.45473,2.43306 1.23141,-1.03774 0.19548,1.26982 2.45644,1.11264 c 1.15148,-0.7957 -0.23303,1.18977 1.00177,1.80322 v 0.69748 l -1.12431,0.34865 0.28071,1.04644 -1.96696,1.74421 -1.14207,-0.39752 -1.40526,1.04644 0.0179,1.44353 -0.84331,-0.34865 c -0.41658,1.71281 -1.76313,2.13554 -3.09073,2.44146 v 2.09287 l -1.12425,0.34925 c -0.83997,-0.98076 -1.42128,-1.0102 -2.52908,-0.69784 l 0.83282,1.42554 c -1.1081,0.35282 -3.51758,3.37054 -3.92415,1.01615 l -1.12425,0.69755 c -1.61081,-1.79452 -2.73625,-0.12933 -3.93434,1.39538 v -2.44182 l -1.4052,1.04644 0.28071,-1.04644 -1.12431,0.34925 0.562,-2.09281 -1.12425,0.34925 0.56201,-1.39532 c -0.7619,0.20085 -0.9541,0.26819 -1.12419,-0.69749 l -2.81039,2.4414 -0.2807,-1.74391 h -0.2807 l -0.84301,1.39532 -0.56201,-1.39532 h -0.2807 l -0.28071,1.04637 h -2.24832 l -0.56201,-2.09287 1.40496,-0.34865 -0.84301,-0.69778 0.84301,-1.39503 -0.56201,-0.69778 -3.65334,-0.69754 1.12431,-1.04644 0.84307,-1.39502 -1.12437,-0.34924 0.28071,-1.04638 h -1.12431 l 0.84301,-2.09287 -0.84301,0.69785 v -0.69785 l -0.84301,0.69785 -0.28071,-1.74428 -0.84301,-1.39503 c 1.09481,-0.20919 1.68674,-0.20561 2.24833,1.04643 l 2.24826,0.34866 v -1.39503 l 0.84301,1.04643 h 1.12431 l 0.28071,-1.04643 1.12431,0.69749 h 0.2807 l 1.12431,-2.09281 4.21522,0.34925 -1.96726,2.44146 1.68655,0.69778 -0.56201,2.79034 0.84295,0.69749 h 0.28071 c 0.46069,-0.8385 1.14785,-1.80053 1.40502,-0.34865 h 0.2807 v 0.34865 l 5.05889,-1.74385 v 2.79034 h 1.12395 0.2813 l 0.28071,-1.39532 h 0.2807 l -0.56141,2.44176 0.84272,0.34924 -0.84272,0.69749 0.84272,1.74397 -1.40502,1.04638 1.12401,0.34925 v 0.34865 l -0.84301,1.04643 h 1.12402 l -0.28071,1.04644 1.40496,-1.39533 h 1.40561 v -1.74391 h 1.405 v -1.39504 h -2.81061 l 0.2807,-1.04642 3.09192,-1.04644 -1.96731,-1.74398 1.68571,0.34866 -1.124,-1.04644 c 0.25626,-2.12683 -1.03605,-1.39252 -2.24832,-1.39502 l 0.562,-1.39533 -1.12395,0.34866 -2.24832,-0.69749 c 0.72911,-2.15312 2.78112,-2.94328 4.49688,-2.09281 l 1.1237,-1.39532 z m -11.88943,2.07309 0.92949,1.36391 1.4248,-0.83199 -0.71559,1.48769 1.43261,0.819 -1.64513,0.12338 0.0119,1.65094 -0.92955,-1.36392 -1.42504,0.832 0.71559,-1.4877 -1.43231,-0.81894 1.64537,-0.12338 z m -88.16929,1.12802 -2.35226,8.37837 12.91439,3.63112 2.35226,-8.37809 -3.21237,-0.90345 -1.40013,4.98691 -1.85087,-0.52029 1.1528,-4.10497 -2.86027,-0.80412 -1.15243,4.10492 -1.80265,-0.50718 1.4,-4.98686 z m 71.32235,0.005 0.48274,1.57864 1.60765,-0.3707 -1.12491,1.20794 1.12491,1.20765 -1.60765,-0.3707 -0.48274,1.57864 -0.48274,-1.57864 -1.60723,0.3707 1.12449,-1.20765 -1.12449,-1.20794 1.60723,0.3707 z m -5.54913,3.07129 c 1.17818,1.25944 1.84239,1.93392 3.3725,1.39503 l 0.28071,2.09286 1.9669,0.34925 0.2807,-1.04643 h 0.28071 l 0.2807,2.0928 h 0.28131 l 0.2807,-1.39532 h 0.2813 l 0.28071,1.04643 1.12395,-0.69748 -0.56201,3.13894 2.81027,-0.34865 -0.2807,1.74398 0.84295,0.34925 -1.96702,2.09251 v -0.69755 l -1.40526,0.34925 v 1.39503 l -0.84301,-0.69755 h -0.2807 l -1.40526,0.34925 0.28071,1.39503 -1.40502,0.34925 h -0.2807 l -0.84301,-0.69778 c -0.24793,1.40515 -0.97711,0.64998 -1.68631,0 l 0.562,3.13924 h -1.124 c -1.15399,-0.53282 -0.97145,0.91561 -1.68632,2.7904 l -3.09121,-1.39508 0.562,3.48789 -3.93428,1.04643 1.12401,0.69749 -0.84563,0.8727 c 0,0 0.5632,-0.17462 0.56439,0.52268 0,0.69724 0.44937,2.10306 1.40526,2.79035 v -2.44152 l 2.52926,2.4417 0.28071,-1.39533 c 0.77977,0.25509 1.54805,1.32703 1.68602,0 l 2.81025,1.74428 0.28071,-1.04643 2.52933,2.0925 -0.84301,0.34925 -0.28071,1.74392 1.40496,0.69784 c 1.19791,-0.70195 2.23497,-2.00508 3.37233,-0.69784 l -2.81033,3.1393 -1.40495,0.69754 v 0.34925 l 2.52926,0.34925 -0.2807,1.74391 c 0.84176,0.70446 0.63382,1.33793 0.2807,2.44146 l 2.81033,-0.34865 v 1.39508 l -1.68631,-0.69754 v 1.74392 l -1.52547,-0.57513 c 0.16151,0.83581 0.25389,0.74498 -0.44161,0.92384 l 1.36556,1.53764 2.00677,0.20622 v 3.83678 h -1.96732 l 0.28071,2.09287 -1.68608,-0.69785 c -0.28488,1.65595 -0.93652,2.04543 -2.24827,1.74422 v 1.39508 l -4.77763,-2.09286 0.84306,0.69778 -0.84306,2.44152 -0.84295,-1.39539 0.2813,1.04644 -1.12402,0.34924 -1.40519,-2.44139 -4.21564,2.79035 -1.40502,-2.79035 -1.68602,0.34865 v -0.69754 h -2.52926 l 0.2807,-1.39533 -2.52931,1.04643 c -0.69521,-1.89464 -1.15715,-2.84798 -2.81021,-3.48789 l 0.2807,-1.39532 -1.68631,-0.34865 c -1.13123,1.25985 -2.6872,0.51076 -3.37228,-1.04644 l 1.40531,-0.69748 v -1.74427 h -0.84324 c 0.0596,-1.90335 -1.06043,-6.86541 0.2807,-8.02216 -0.48214,-2.65214 2.48171,-2.76431 3.65364,-4.53462 l 2.2479,0.34924 -0.562,1.74398 v 0.34925 l 0.562,1.74397 1.40538,0.69749 0.2807,-1.04644 2.24825,3.1393 -0.562,-1.74397 1.96696,-0.69754 v -0.34925 c -1.57624,-0.68914 -0.72763,-1.96801 0.5626,-2.09287 l -0.2807,-2.79029 c -0.79861,0.54771 -1.4558,0.97968 -1.68626,-0.34865 l -0.84301,-0.69778 -1.4053,0.34925 -0.28071,-1.39539 c -2.02096,1.11193 -5.06366,4.13645 -7.02591,2.44176 v -0.34925 l 0.84337,-1.39496 h -0.56201 l 0.84361,-2.09287 -0.84295,-0.34925 v -0.34865 l 3.37227,-1.39532 -0.2807,-1.04644 1.9669,0.69754 c 0,-0.98588 0.32123,-0.97312 1.12437,-1.04613 l -0.2813,-1.74421 1.12407,0.34865 1.124,-1.74392 1.9672,2.09293 0.2813,-2.09293 1.40526,-0.34925 0.2813,1.04638 h 1.68602 l 0.5626,-3.13924 -0.84337,0.69784 v -1.39533 h -1.12401 c -0.30335,1.2862 -0.98533,1.26814 -1.9672,1.04644 l -0.2813,1.04643 h -0.28071 l -0.2807,-2.44176 -1.12401,0.34925 c -0.79085,-2.47865 0.66868,-2.26129 2.24802,-2.79041 l -0.562,-1.04637 4.49658,-5.23188 0.84295,0.34866 c 1.0631,-2.00961 3.62706,0.89856 5.33966,0.69748 v -0.34865 c -1.44096,-0.53281 -2.07877,-1.27779 -2.24833,-3.13923 h 1.40532 c 0.31288,-1.15521 0.71708,-1.39653 1.68602,-1.39504 z m 10.67906,1.04637 0.2807,0.34866 z m -51.69357,0.34627 c -0.0787,0 -0.15734,-3e-4 -0.2372,0.0119 -0.0799,0.0119 -0.26581,0.0179 -0.30991,0.10072 -0.0358,0.0775 0.0846,0.11741 0.13529,0.1335 0.15674,0.0596 0.3254,0.0912 0.4887,0.12694 0.0179,0 0.0298,0.005 0.0298,0.005 v 3e-4 3.5e-4 h 2.9e-4 v 2.4e-4 l 3e-4,3e-4 v 2.4e-4 3.6e-4 l -3e-4,3e-4 -2.9e-4,2.3e-4 c -0.005,0 -0.0179,0.005 -0.0358,0.005 l -0.32302,0.0179 c 0.084,0.29084 0.33911,0.33316 0.60146,0.39037 l 1.35304,0.30098 c 0.0179,0 0.0298,0.005 0.0358,0.005 l 3e-4,2.3e-4 v 3e-4 h 3e-4 v 3e-4 3e-4 l -3e-4,3e-4 -3e-4,2.9e-4 h -2.4e-4 -0.0358 c -0.37844,-0.0358 -0.81148,-0.22827 -1.17532,-0.13291 0.0679,0.22589 0.2521,0.27297 0.46009,0.32005 0.29978,0.0674 0.89582,0.13886 1.13439,0.16449 0.0238,0.005 0.0417,0.005 0.0477,0.0119 1.8e-4,1.2e-4 0,4.8e-4 0,0.001 l 3.6e-4,2.4e-4 v 3e-4 l 2.4e-4,3e-4 v 3e-4 2.9e-4 3e-4 l -2.4e-4,3e-4 v 3e-4 l -3.6e-4,3e-4 c -0.005,0.005 -0.0179,0.005 -0.0417,0.0119 -0.30693,0.0238 -0.80171,-0.0357 -0.98992,0.14304 0.41599,0.26403 0.78621,0.12695 1.20792,0.16152 0.0358,0 0.0536,0.0119 0.0536,0.0179 v 3e-4 2.9e-4 3e-4 2.4e-4 3.6e-4 3e-4 l -3e-4,2.3e-4 c 0,0.005 -0.0179,0.0119 -0.0536,0.0179 l -0.53042,0.0912 c 0.25209,0.12456 0.40586,0.31289 0.83395,0.3254 -0.26939,0.22231 0.0238,0.41481 0.27236,0.37667 l 0.005,0.0238 c -0.15734,0.28489 0.0179,0.45891 0.26879,0.57393 -0.14006,0.24912 0.14303,0.43269 0.3695,0.37786 l 0.005,0.0536 c -0.20144,0.31051 0.0179,0.69266 0.38738,0.6594 l 0.005,0.0179 c -0.12396,0.25448 -0.0298,0.41957 0.0864,0.56917 0.0709,0.0906 -0.0298,0.24256 0.20263,0.35818 l 0.005,0.0238 c -0.49347,0.29859 -0.79962,0.77515 -1.18122,1.17428 -0.17105,0.12396 -0.42553,0.0828 -0.60206,0.21455 -0.17224,0.12695 -0.13588,0.30515 0.0179,0.44282 -0.0703,0.13469 0.0793,0.26998 0.1776,0.28429 0,-0.005 -1.2e-4,-0.005 0,-0.005 l 1.8e-4,-2.4e-4 c 0.005,0.0119 0.0238,0.2521 0.23005,0.26283 0.10429,0.15198 0.27355,0.1925 0.42672,0.0691 0.2807,-0.22349 0.39155,-0.54533 0.71559,-0.74427 0.46247,-0.28369 1.03187,-0.33852 1.50335,-0.61619 0,-0.005 0.005,-0.005 0.005,-0.005 l 3e-4,-2.4e-4 v -2.9e-4 l 3e-4,-3e-4 v -3e-4 h 3.6e-4 l 2.3e-4,-3e-4 3e-4,3e-4 h 3e-4 3e-4 l 2.4e-4,3e-4 c 0.0238,0.0179 0.0536,0.30335 0.21276,0.36176 0.0697,0.23601 0.20442,0.3719 0.45056,0.34865 0.0661,0.24376 0.19965,0.36951 0.46069,0.32005 0.0763,0.21634 0.27296,0.38083 0.5036,0.29024 0.0709,0.15317 0.13648,0.30098 0.27236,0.40945 0.093,0.0751 0.22647,0.10251 0.30693,0.1919 0.14482,0.16569 0.30872,0.58169 0.54651,0.6336 0.1484,0.0298 0.20144,-0.15615 0.23303,-0.26105 0.0298,0.21218 0.0179,0.44282 0.0983,0.64617 0.087,0.22588 0.17522,-0.0179 0.20562,-0.13111 0,-0.0536 0.0298,-0.11562 0.0298,-0.16986 0.0536,0.33792 0.0298,0.81781 0.21754,1.11205 0.0632,0.10191 0.15853,0.0674 0.19071,-0.0358 0.0298,-0.11026 0.0238,-0.25151 0.005,-0.37726 0.0358,0.2384 0.13469,0.7752 0.32541,1.12338 0.0119,0.0417 0.0596,0.0298 0.0536,-0.0119 l 0.0602,-0.36117 c 0.0358,0.23184 0.0238,0.47977 0.10727,0.70416 0.0536,0.16091 0.19191,-0.0596 0.19191,-0.0596 0.1186,0.36891 0.0638,0.82925 0.44162,1.04703 0.26461,-0.3415 0.21395,-0.9891 0.15138,-1.39819 -0.17522,-0.92819 -0.57274,-1.84529 -0.91209,-2.72354 -0.18415,-0.47798 -0.33374,-0.99416 -0.71475,-1.3567 -0.53221,-0.50718 -1.45651,-0.5805 -1.77041,-1.32275 -0.11085,-0.25686 0.0787,-0.39394 0.23958,-0.56617 0.32779,-0.35164 0.55664,-0.65125 1.0497,-0.72396 -0.13648,-0.12813 -0.2372,-0.24196 -0.42017,-0.17521 -0.60372,-0.90322 -1.54405,0.34269 -2.30696,-0.0614 -0.86918,-0.46189 -0.64193,-1.69517 -1.4909,-2.21892 -0.51671,-0.31885 -1.11531,-0.53936 -1.67499,-0.76697 -0.63031,-0.25687 -1.27539,-0.54235 -1.93997,-0.69403 -0.23064,-0.0536 -0.4583,-0.1031 -0.69294,-0.11145 z m 93.81522,4.39308 0.15853,2.16462 2.1678,-0.005 -1.79359,1.21927 1.08939,1.87611 -1.95195,-0.94476 -1.07895,1.88195 -0.15853,-2.16427 -2.16828,0.005 1.79371,-1.21897 -1.08885,-1.87617 1.95164,0.94506 z m -6.99307,1.88779 h 0.56201 l 0.2813,3.48789 -0.2813,1.39497 1.96702,-1.74392 h 0.28071 l 1.96731,1.39532 -0.28071,1.04644 0.56201,0.69754 2.52932,-0.34925 0.46904,1.39676 1.91356,0.81489 c -1.05011,-0.22707 -1.62285,1.08469 -3.7537,-0.19608 -0.6408,0.51672 -0.85201,0.48156 -1.1025,1.39151 l 3.59779,1.47608 c -1.25465,3.83702 -5.12808,3.52639 -2.81027,8.02251 l -0.84324,0.34925 0.84324,0.34865 -1.68625,1.74392 v 0.34925 l 0.84301,1.04643 c -1.42689,0.32898 -3.28418,0.72466 -3.09132,-1.74397 l -2.52927,-0.34925 -1.40502,-3.48784 -1.96732,0.34866 -0.2807,1.04637 h -0.56201 l -0.84295,-1.39497 -0.2813,2.09275 -2.52903,0.69754 v -2.79029 l 0.84295,-0.34924 v -1.0465 l -1.12425,-0.69748 1.40532,-1.74392 -0.56201,-1.04649 0.84301,-1.39526 h -1.40502 l 0.56201,-0.69754 v -0.34925 l -1.6862,0.34925 1.4052,-1.74392 -0.84319,-1.04643 -0.56201,-1.39533 v -0.34865 l 1.12425,-1.04643 1.40496,0.69748 c 0.35401,-1.32464 0.93473,-1.38793 1.96732,-1.04637 l 0.2807,-1.74398 h 0.56201 l 0.28071,3.1393 1.40537,-0.69778 z m -115.26525,3.24205 -0.0179,1.43191 7.812,5.8669 -7.96439,5.65799 -0.0179,1.43252 13.5379,0.17939 0.0477,-3.5643 -5.31725,-0.0703 5.14048,-3.55494 2.4e-4,-0.0238 -5.04429,-3.68135 5.31725,0.0703 0.0477,-3.564 z m 102.79361,0.63329 0.81654,1.0546 1.10834,-0.74075 -0.5042,1.23464 1.19541,0.59063 -1.3208,0.17998 0.087,1.33114 -0.81655,-1.05424 -1.10868,0.74081 0.50419,-1.235 -1.19517,-0.59003 1.32081,-0.17999 z m -14.22596,1.00752 1.68619,3.1393 1.96702,-0.69755 -0.843,1.74392 3.93434,-1.39503 c 1.19797,1.9996 2.18133,1.32345 3.93458,1.39503 0.69407,-1.78713 1.25977,-1.7767 2.76998,-1.45081 l 0.60235,1.45081 2.52932,-1.39503 -1.12431,1.39503 -0.28071,1.74398 0.5626,1.39532 h 1.68596 l -0.2807,1.04643 0.84295,0.34865 v 0.34925 c -1.03051,0.80345 -1.44852,1.52311 -0.28071,2.44146 l -0.562,0.69778 v 0.34865 l 0.562,0.69785 c -1.81761,0.59974 -4.65671,4.16284 -4.77728,-0.34925 h -3.93458 l -1.68602,-3.83679 -3.93458,0.69755 -1.12401,3.48813 -1.68632,-0.69778 -0.2807,1.39526 -1.68638,0.34925 0.56201,3.83678 -1.12424,-0.69778 c 0.43207,3.62688 -2.41234,2.82796 -3.37228,0.34925 h -0.2807 l 1.12431,3.1393 -1.40532,-0.34925 1.96732,1.39526 -0.562,1.04614 2.52897,1.04649 -1.4049,0.69778 v 0.34866 h 1.68596 v 1.39532 l -3.37234,2.09286 h -0.2813 l 0.56201,-1.74421 -1.12395,-0.69754 1.40531,-0.34865 -4.21564,-1.39533 c 0.41003,-1.53311 0.3707,-2.37196 -0.84301,-3.13924 l 1.40501,-2.79035 h -0.84301 l -0.843,-3.48789 -1.68626,0.34865 v -1.39502 l 2.81027,-3.13924 0.84301,0.34925 -0.28071,-2.09287 -3.37227,1.04649 c -0.69223,-1.36445 -3.15236,-1.9323 -1.12437,-3.48789 l -0.84331,-1.74421 2.52938,-1.74398 1.12431,1.39532 v -2.79035 l 0.28071,-0.34924 1.96708,-0.69755 -0.56201,1.74398 0.84331,1.04643 0.28071,-1.04643 h 1.12395 l 1.96732,1.39526 -0.17641,1.66495 0.83431,0.21217 -0.0954,0.565 h 0.56201 l 0.0953,-0.565 0.73097,0.16986 0.48214,0.20204 -0.18415,-3.29497 v -0.34925 l 0.84324,0.34925 0.2807,-1.74422 -0.84331,0.69778 z m 30.91324,0.69784 -0.28071,0.69754 z m -48.61052,3.95616 1.10052,2.37727 2.44684,-0.93141 -1.50716,2.14257 2.0296,1.6547 -2.60758,-0.23482 -0.41718,2.58634 -1.10052,-2.37751 -2.44715,0.93171 1.50717,-2.14257 -2.02936,-1.6547 2.6074,0.23482 z m 23.31781,6.50775 0.56201,1.04644 0.84337,-0.34925 v 1.74391 l 0.562,1.39533 h 2.24803 l 1.12431,-1.39533 -0.28071,1.74392 1.40502,-0.69748 -0.28071,1.39526 1.68626,0.69754 -1.68626,2.09287 -0.2807,2.09281 1.96726,-1.39533 h 0.2807 l 1.96737,0.34925 0.56201,1.04643 v 0.34866 l -1.40531,1.04637 v 0.34925 l 0.562,0.34865 -3.93427,1.74421 c -2.29749,-1.50468 -2.27025,-2.10973 -5.05865,-1.39526 l -1.40496,-2.09287 0.28071,2.4417 -1.68626,-0.34925 0.28071,2.09287 -0.84295,1.04637 -3.65328,-0.34925 0.562,-2.79034 c -0.71618,-0.42435 -1.40513,-1.09555 -0.2807,-1.39503 v -1.39532 l -0.84301,-0.34925 1.12407,-1.39509 0.28071,1.04649 0.2807,-1.04649 1.12425,0.34865 -1.12425,-3.83684 0.56201,-0.69748 1.6862,1.04643 c 0.31765,-1.49759 0.93324,-2.60404 2.24838,-2.44146 z m -39.03115,3.48146 0.43386,1.41219 1.43833,-0.33375 -1.00493,1.08243 1.00815,1.07921 -1.43922,-0.32958 -0.43029,1.41362 -0.43446,-1.41213 -1.4381,0.33375 1.005,-1.08243 -1.00845,-1.07951 1.43928,0.32958 z m -41.24378,0.12575 -3.23526,0.81811 1.268,5.02208 -1.86398,0.47083 -1.04361,-4.13394 -2.88023,0.72806 1.04355,4.13424 -1.81546,0.45891 -1.26764,-5.02238 -3.21125,0.81167 2.1302,8.43786 13.00588,-3.28824 z m 92.99307,0.43149 c 0.74235,-0.0298 1.42176,0.29681 1.89533,1.19311 l 0.8433,-0.34865 0.28071,1.04637 2.24802,-1.04637 0.90863,0.67573 0.93062,0.26104 -1.27694,2.55094 1.96702,1.39538 -1.40502,-0.34924 -1.96732,1.74391 0.84301,3.83679 1.96726,-0.34866 -0.562,1.04614 0.84301,0.34925 0.2807,1.74397 c -1.03026,0.19847 -1.61158,0.27118 -1.96708,-1.04643 l -1.9672,-0.34865 c -1.17247,1.59861 -3.75811,-1.14477 -5.05859,-1.74398 l 0.2807,-1.39532 h -1.12395 l 1.68596,-4.53427 h -1.12413 v -2.09275 l -2.81032,0.69749 c 0.71701,-1.39241 2.65417,-3.21481 4.28733,-3.28597 z m -7.94055,0.14721 0.28071,0.34925 z m 17.19828,1.64314 0.0179,1.27094 1.26829,0.0745 -1.09266,0.64903 0.57035,1.13649 -1.10804,-0.62257 -0.69813,1.06211 -0.0179,-1.2713 -1.2683,-0.0739 1.09267,-0.64897 -0.57035,-1.13655 1.10804,0.62257 z m 5.00309,1.84505 -0.2813,1.39497 2.81027,1.04649 v 0.69778 l -0.84295,1.04614 h 1.12425 l -0.562,1.04637 3.37227,-0.34865 v 0.34865 c -0.88049,0.95084 -1.45102,1.96306 -0.562,3.1393 l -1.12402,0.69754 0.56201,3.13924 -2.52933,1.39533 c -0.80498,-0.87694 -1.25256,-0.76424 -2.24832,-0.34925 l -0.2807,-2.09281 -1.40496,0.34925 -0.843,-1.04643 c -0.5477,5.22805 -1.88609,0.99476 -2.81063,-1.39533 h 1.12431 v -0.34865 l -1.12431,-0.34925 0.28071,-1.04637 -2.24838,-1.04643 v -0.34866 l 3.65333,-0.69784 -0.562,-2.0925 h 1.68626 c -0.21575,-2.42835 1.04855,-3.08644 2.81025,-3.13924 z m -24.33616,5.42992 0.6784,2.275 2.31472,-0.51732 -1.62898,1.72508 1.60496,1.74773 -2.3075,-0.5495 -0.70975,2.26487 -0.6781,-2.27446 -2.31508,0.51732 1.62935,-1.72539 -1.60527,-1.74743 2.3075,0.5495 z m -82.17693,1.74135 c -0.57274,-0.0179 -1.15816,0.10251 -1.73275,0.38143 -1.78155,0.86585 -2.32723,2.67717 -2.20469,4.95062 0.0864,1.56906 0.32123,2.51042 -0.23303,2.77957 -0.41182,0.20025 -0.9777,-0.10788 -1.29756,-0.76758 -0.28011,-0.57691 -0.45413,-1.64009 0.0119,-2.30891 l -2.6801,-0.98457 c -0.96113,1.05037 -1.13164,2.91068 -0.2372,4.75365 1.11227,2.29228 3.56513,3.55339 5.65367,2.53849 1.81892,-0.88403 2.18592,-2.68242 2.10308,-4.53081 -0.0536,-1.43836 -0.1031,-2.93988 0.5179,-3.24181 0.49407,-0.24078 1.0643,0.30634 1.39513,0.98826 0.49108,1.01133 0.49585,2.16594 0,3.02803 l 2.84281,1.01622 c 1.03807,-1.25437 1.03765,-3.48539 0.0745,-5.47062 h 3e-4 c -0.88061,-1.81478 -2.48987,-3.08262 -4.20891,-3.13203 z m 75.88086,1.19978 -0.56201,2.09287 2.81051,-0.69755 0.2807,2.09251 -0.2807,1.39539 0.2807,0.34924 2.52927,-0.69784 -0.84331,2.79035 c -1.50091,-1.16426 -2.37771,-0.22349 -2.81027,-3.13888 -1.33362,0.85727 -2.4522,0.73473 -2.52926,-1.39538 l -1.40502,0.69754 c 0.43745,-1.70059 1.10768,-2.9819 2.52927,-3.48789 z m -4.68413,2.92659 0.14303,3.20552 3.20509,0.0817 -2.70167,1.7274 1.53153,2.81854 -2.84566,-1.47816 -1.67326,2.73724 -0.14363,-3.20551 -3.20511,-0.0816 2.7021,-1.72735 -1.5319,-2.81877 2.84544,1.47804 z m 31.34663,2.52049 1.87207,1.81543 1.94092,-1.74129 -0.63483,2.53026 2.477,0.81144 -2.50668,0.71464 0.53638,2.55273 -1.87209,-1.81537 -1.94084,1.74129 0.63513,-2.52972 -2.47736,-0.81203 2.50692,-0.71465 z m -17.95063,0.48275 0.562,1.39508 h 0.56201 l 0.2807,-1.04643 h 0.2813 v 1.74422 l 1.68626,-1.74422 v 2.4417 l 2.81032,-1.39527 -0.84307,1.04638 v 0.34925 h 3.37228 v 0.69754 c -3.97863,0.72931 -10.27046,4.13477 -10.67912,9.76643 -2.11197,-1.99578 0.75343,-10.97468 1.96726,-13.25432 z m -9.27412,6.27824 h 0.28071 l 0.2807,5.92965 h -0.2807 l -2.52921,-4.88316 h 1.96696 z m -77.97732,2.82235 a 0.84261946,0.84326217 0 0 0 -0.70916,1.25414 c 0.005,0.005 0.0596,0.11979 0.39335,0.65713 0.34864,0.56142 0.93127,1.45916 1.7592,2.59946 0.3403,0.46844 0.74599,1.013 1.21717,1.61786 2.41883,3.10491 5.88378,6.922327 10.444,10.582757 3.65561,2.93422 7.9936,5.819272 13.26371,8.238023 1.40774,0.64605 3.08011,1.346453 4.98945,2.030109 4.25801,1.524594 8.9819,2.711918 14.1595,3.382999 5.14138,0.666313 9.48849,0.659221 12.23255,0.578107 -2.7465,-0.01788 -7.08361,-0.204423 -12.15334,-1.098701 -5.10996,-0.901191 -9.69642,-2.294966 -13.81307,-3.975946 -1.84449,-0.753148 -3.45225,-1.505461 -4.80839,-2.18435 -5.00305,-2.504693 -9.33025,-5.429973 -12.80933,-8.281053 -4.43018,-3.630631 -7.79268,-7.282535 -10.17403,-10.314915 -0.46009,-0.58586 -0.85517,-1.11277 -1.18474,-1.56667 -0.80189,-1.10443 -1.36235,-1.96801 -1.69091,-2.49754 -0.31408,-0.50659 -0.35699,-0.59659 -0.35341,-0.59063 a 0.84261946,0.84326217 0 0 0 -0.76196,-0.43149 z"
       inkscape:highlight-color="#00cc00"
       inkscape:export-filename="sem_icon.png"
       inkscape:export-xdpi="96"
       inkscape:export-ydpi="96" /></g></svg>
